<?xml version="1.0"?>
<!-- Generated by SVGo and Plotinum VG -->
<svg width="504pt" height="288pt" viewBox="0 0 504 288"
	xmlns="http://www.w3.org/2000/svg"
	xmlns:xlink="http://www.w3.org/1999/xlink">
<g transform="scale(1, -1) translate(0, -288)">
<path d="M0,0L504,0L504,288L0,288Z" style="fill:#FFFFFF" />
<text x="156.79" y="-278.61" transform="scale(1, -1)"
	style="font-family:Liberation Serif;font-variant:normal;font-weight:normal;font-style:normal;font-size:12px">Filtered view of Curvature at TDP.\G01</text>
<text x="274.7" y="-3.9023" transform="scale(1, -1)"
	style="font-family:Liberation Serif;font-variant:normal;font-weight:normal;font-style:normal;font-size:12px">Time,s</text>
<text x="72.965" y="-16.541" transform="scale(1, -1)"
	style="font-family:Liberation Serif;font-variant:normal;font-weight:normal;font-style:normal;font-size:10px">500</text>
<text x="241.72" y="-16.541" transform="scale(1, -1)"
	style="font-family:Liberation Serif;font-variant:normal;font-weight:normal;font-style:normal;font-size:10px">520</text>
<text x="410.47" y="-16.541" transform="scale(1, -1)"
	style="font-family:Liberation Serif;font-variant:normal;font-weight:normal;font-style:normal;font-size:10px">540</text>
<path d="M80.465,24.363L80.465,32.363" style="fill:none;stroke:#000000;stroke-width:0.5" />
<path d="M249.22,24.363L249.22,32.363" style="fill:none;stroke:#000000;stroke-width:0.5" />
<path d="M417.97,24.363L417.97,32.363" style="fill:none;stroke:#000000;stroke-width:0.5" />
<path d="M164.84,28.363L164.84,32.363" style="fill:none;stroke:#000000;stroke-width:0.5" />
<path d="M333.59,28.363L333.59,32.363" style="fill:none;stroke:#000000;stroke-width:0.5" />
<path d="M80.465,32.363L501.5,32.363" style="fill:none;stroke:#000000;stroke-width:0.5" />
<g transform="rotate(90)">
<text x="119.84" y="9.3867" transform="scale(1, -1)"
	style="font-family:Liberation Serif;font-variant:normal;font-weight:normal;font-style:normal;font-size:12px">Curvature, 1/m</text>
</g>
<text x="15.885" y="-52.14" transform="scale(1, -1)"
	style="font-family:Liberation Serif;font-variant:normal;font-weight:normal;font-style:normal;font-size:10px">-0.0040425</text>
<text x="15.885" y="-158.85" transform="scale(1, -1)"
	style="font-family:Liberation Serif;font-variant:normal;font-weight:normal;font-style:normal;font-size:10px">-0.0040325</text>
<text x="15.885" y="-265.57" transform="scale(1, -1)"
	style="font-family:Liberation Serif;font-variant:normal;font-weight:normal;font-style:normal;font-size:10px">-0.0040225</text>
<path d="M64.215,54.425L72.215,54.425" style="fill:none;stroke:#000000;stroke-width:0.5" />
<path d="M64.215,161.14L72.215,161.14" style="fill:none;stroke:#000000;stroke-width:0.5" />
<path d="M64.215,267.85L72.215,267.85" style="fill:none;stroke:#000000;stroke-width:0.5" />
<path d="M68.215,107.78L72.215,107.78" style="fill:none;stroke:#000000;stroke-width:0.5" />
<path d="M68.215,214.5L72.215,214.5" style="fill:none;stroke:#000000;stroke-width:0.5" />
<path d="M72.215,40.113L72.215,272.21" style="fill:none;stroke:#000000;stroke-width:0.5" />
<path d="M82.965,256.16A2.5,2.5 0 1 1 77.965,256.16A2.5,2.5 0 1 1 82.965,256.16Z" style="fill:none;stroke:#000000;stroke-width:0.5" />
<path d="M83.809,256.16A2.5,2.5 0 1 1 78.809,256.16A2.5,2.5 0 1 1 83.809,256.16Z" style="fill:none;stroke:#000000;stroke-width:0.5" />
<path d="M84.652,256.16A2.5,2.5 0 1 1 79.652,256.16A2.5,2.5 0 1 1 84.652,256.16Z" style="fill:none;stroke:#000000;stroke-width:0.5" />
<path d="M85.496,254.33A2.5,2.5 0 1 1 80.496,254.33A2.5,2.5 0 1 1 85.496,254.33Z" style="fill:none;stroke:#000000;stroke-width:0.5" />
<path d="M86.34,254.33A2.5,2.5 0 1 1 81.34,254.33A2.5,2.5 0 1 1 86.34,254.33Z" style="fill:none;stroke:#000000;stroke-width:0.5" />
<path d="M87.184,253.1A2.5,2.5 0 1 1 82.184,253.1A2.5,2.5 0 1 1 87.184,253.1Z" style="fill:none;stroke:#000000;stroke-width:0.5" />
<path d="M88.027,251.86A2.5,2.5 0 1 1 83.027,251.86A2.5,2.5 0 1 1 88.027,251.86Z" style="fill:none;stroke:#000000;stroke-width:0.5" />
<path d="M88.871,250.62A2.5,2.5 0 1 1 83.871,250.62A2.5,2.5 0 1 1 88.871,250.62Z" style="fill:none;stroke:#000000;stroke-width:0.5" />
<path d="M89.715,249.38A2.5,2.5 0 1 1 84.715,249.38A2.5,2.5 0 1 1 89.715,249.38Z" style="fill:none;stroke:#000000;stroke-width:0.5" />
<path d="M90.559,248.14A2.5,2.5 0 1 1 85.559,248.14A2.5,2.5 0 1 1 90.559,248.14Z" style="fill:none;stroke:#000000;stroke-width:0.5" />
<path d="M91.402,246.9A2.5,2.5 0 1 1 86.402,246.9A2.5,2.5 0 1 1 91.402,246.9Z" style="fill:none;stroke:#000000;stroke-width:0.5" />
<path d="M92.246,245.67A2.5,2.5 0 1 1 87.246,245.67A2.5,2.5 0 1 1 92.246,245.67Z" style="fill:none;stroke:#000000;stroke-width:0.5" />
<path d="M93.09,244.43A2.5,2.5 0 1 1 88.09,244.43A2.5,2.5 0 1 1 93.09,244.43Z" style="fill:none;stroke:#000000;stroke-width:0.5" />
<path d="M93.934,241.95A2.5,2.5 0 1 1 88.934,241.95A2.5,2.5 0 1 1 93.934,241.95Z" style="fill:none;stroke:#000000;stroke-width:0.5" />
<path d="M94.777,240.71A2.5,2.5 0 1 1 89.777,240.71A2.5,2.5 0 1 1 94.777,240.71Z" style="fill:none;stroke:#000000;stroke-width:0.5" />
<path d="M95.621,239.47A2.5,2.5 0 1 1 90.621,239.47A2.5,2.5 0 1 1 95.621,239.47Z" style="fill:none;stroke:#000000;stroke-width:0.5" />
<path d="M96.465,237A2.5,2.5 0 1 1 91.465,237A2.5,2.5 0 1 1 96.465,237Z" style="fill:none;stroke:#000000;stroke-width:0.5" />
<path d="M97.309,234.52A2.5,2.5 0 1 1 92.309,234.52A2.5,2.5 0 1 1 97.309,234.52Z" style="fill:none;stroke:#000000;stroke-width:0.5" />
<path d="M98.152,232.04A2.5,2.5 0 1 1 93.152,232.04A2.5,2.5 0 1 1 98.152,232.04Z" style="fill:none;stroke:#000000;stroke-width:0.5" />
<path d="M98.996,230.81A2.5,2.5 0 1 1 93.996,230.81A2.5,2.5 0 1 1 98.996,230.81Z" style="fill:none;stroke:#000000;stroke-width:0.5" />
<path d="M99.84,229.57A2.5,2.5 0 1 1 94.84,229.57A2.5,2.5 0 1 1 99.84,229.57Z" style="fill:none;stroke:#000000;stroke-width:0.5" />
<path d="M100.68,225.85A2.5,2.5 0 1 1 95.684,225.85A2.5,2.5 0 1 1 100.68,225.85Z" style="fill:none;stroke:#000000;stroke-width:0.5" />
<path d="M101.53,224.62A2.5,2.5 0 1 1 96.528,224.62A2.5,2.5 0 1 1 101.53,224.62Z" style="fill:none;stroke:#000000;stroke-width:0.5" />
<path d="M102.37,222.14A2.5,2.5 0 1 1 97.371,222.14A2.5,2.5 0 1 1 102.37,222.14Z" style="fill:none;stroke:#000000;stroke-width:0.5" />
<path d="M103.22,220.9A2.5,2.5 0 1 1 98.215,220.9A2.5,2.5 0 1 1 103.22,220.9Z" style="fill:none;stroke:#000000;stroke-width:0.5" />
<path d="M104.06,217.19A2.5,2.5 0 1 1 99.059,217.19A2.5,2.5 0 1 1 104.06,217.19Z" style="fill:none;stroke:#000000;stroke-width:0.5" />
<path d="M104.9,214.71A2.5,2.5 0 1 1 99.903,214.71A2.5,2.5 0 1 1 104.9,214.71Z" style="fill:none;stroke:#000000;stroke-width:0.5" />
<path d="M105.75,212.23A2.5,2.5 0 1 1 100.75,212.23A2.5,2.5 0 1 1 105.75,212.23Z" style="fill:none;stroke:#000000;stroke-width:0.5" />
<path d="M106.59,210.34A2.5,2.5 0 1 1 101.59,210.34A2.5,2.5 0 1 1 106.59,210.34Z" style="fill:none;stroke:#000000;stroke-width:0.5" />
<path d="M107.43,207.86A2.5,2.5 0 1 1 102.43,207.86A2.5,2.5 0 1 1 107.43,207.86Z" style="fill:none;stroke:#000000;stroke-width:0.5" />
<path d="M108.28,205.39A2.5,2.5 0 1 1 103.28,205.39A2.5,2.5 0 1 1 108.28,205.39Z" style="fill:none;stroke:#000000;stroke-width:0.5" />
<path d="M109.12,202.91A2.5,2.5 0 1 1 104.12,202.91A2.5,2.5 0 1 1 109.12,202.91Z" style="fill:none;stroke:#000000;stroke-width:0.5" />
<path d="M109.97,200.44A2.5,2.5 0 1 1 104.97,200.44A2.5,2.5 0 1 1 109.97,200.44Z" style="fill:none;stroke:#000000;stroke-width:0.5" />
<path d="M110.81,196.72A2.5,2.5 0 1 1 105.81,196.72A2.5,2.5 0 1 1 110.81,196.72Z" style="fill:none;stroke:#000000;stroke-width:0.5" />
<path d="M111.65,195.48A2.5,2.5 0 1 1 106.65,195.48A2.5,2.5 0 1 1 111.65,195.48Z" style="fill:none;stroke:#000000;stroke-width:0.5" />
<path d="M112.5,191.77A2.5,2.5 0 1 1 107.5,191.77A2.5,2.5 0 1 1 112.5,191.77Z" style="fill:none;stroke:#000000;stroke-width:0.5" />
<path d="M113.34,189.29A2.5,2.5 0 1 1 108.34,189.29A2.5,2.5 0 1 1 113.34,189.29Z" style="fill:none;stroke:#000000;stroke-width:0.5" />
<path d="M114.18,186.82A2.5,2.5 0 1 1 109.18,186.82A2.5,2.5 0 1 1 114.18,186.82Z" style="fill:none;stroke:#000000;stroke-width:0.5" />
<path d="M115.03,184.34A2.5,2.5 0 1 1 110.03,184.34A2.5,2.5 0 1 1 115.03,184.34Z" style="fill:none;stroke:#000000;stroke-width:0.5" />
<path d="M115.87,181.86A2.5,2.5 0 1 1 110.87,181.86A2.5,2.5 0 1 1 115.87,181.86Z" style="fill:none;stroke:#000000;stroke-width:0.5" />
<path d="M116.72,178.15A2.5,2.5 0 1 1 111.72,178.15A2.5,2.5 0 1 1 116.72,178.15Z" style="fill:none;stroke:#000000;stroke-width:0.5" />
<path d="M117.56,175.67A2.5,2.5 0 1 1 112.56,175.67A2.5,2.5 0 1 1 117.56,175.67Z" style="fill:none;stroke:#000000;stroke-width:0.5" />
<path d="M118.4,173.2A2.5,2.5 0 1 1 113.4,173.2A2.5,2.5 0 1 1 118.4,173.2Z" style="fill:none;stroke:#000000;stroke-width:0.5" />
<path d="M119.25,170.72A2.5,2.5 0 1 1 114.25,170.72A2.5,2.5 0 1 1 119.25,170.72Z" style="fill:none;stroke:#000000;stroke-width:0.5" />
<path d="M120.09,168.24A2.5,2.5 0 1 1 115.09,168.24A2.5,2.5 0 1 1 120.09,168.24Z" style="fill:none;stroke:#000000;stroke-width:0.5" />
<path d="M120.93,164.53A2.5,2.5 0 1 1 115.93,164.53A2.5,2.5 0 1 1 120.93,164.53Z" style="fill:none;stroke:#000000;stroke-width:0.5" />
<path d="M121.78,163.29A2.5,2.5 0 1 1 116.78,163.29A2.5,2.5 0 1 1 121.78,163.29Z" style="fill:none;stroke:#000000;stroke-width:0.5" />
<path d="M122.62,159.58A2.5,2.5 0 1 1 117.62,159.58A2.5,2.5 0 1 1 122.62,159.58Z" style="fill:none;stroke:#000000;stroke-width:0.5" />
<path d="M123.47,157.1A2.5,2.5 0 1 1 118.47,157.1A2.5,2.5 0 1 1 123.47,157.1Z" style="fill:none;stroke:#000000;stroke-width:0.5" />
<path d="M124.31,154.62A2.5,2.5 0 1 1 119.31,154.62A2.5,2.5 0 1 1 124.31,154.62Z" style="fill:none;stroke:#000000;stroke-width:0.5" />
<path d="M125.15,152.15A2.5,2.5 0 1 1 120.15,152.15A2.5,2.5 0 1 1 125.15,152.15Z" style="fill:none;stroke:#000000;stroke-width:0.5" />
<path d="M126,149.67A2.5,2.5 0 1 1 121,149.67A2.5,2.5 0 1 1 126,149.67Z" style="fill:none;stroke:#000000;stroke-width:0.5" />
<path d="M126.84,147.19A2.5,2.5 0 1 1 121.84,147.19A2.5,2.5 0 1 1 126.84,147.19Z" style="fill:none;stroke:#000000;stroke-width:0.5" />
<path d="M127.68,145.96A2.5,2.5 0 1 1 122.68,145.96A2.5,2.5 0 1 1 127.68,145.96Z" style="fill:none;stroke:#000000;stroke-width:0.5" />
<path d="M128.53,143.48A2.5,2.5 0 1 1 123.53,143.48A2.5,2.5 0 1 1 128.53,143.48Z" style="fill:none;stroke:#000000;stroke-width:0.5" />
<path d="M129.37,141A2.5,2.5 0 1 1 124.37,141A2.5,2.5 0 1 1 129.37,141Z" style="fill:none;stroke:#000000;stroke-width:0.5" />
<path d="M130.22,138.53A2.5,2.5 0 1 1 125.22,138.53A2.5,2.5 0 1 1 130.22,138.53Z" style="fill:none;stroke:#000000;stroke-width:0.5" />
<path d="M131.06,137.29A2.5,2.5 0 1 1 126.06,137.29A2.5,2.5 0 1 1 131.06,137.29Z" style="fill:none;stroke:#000000;stroke-width:0.5" />
<path d="M131.9,134.81A2.5,2.5 0 1 1 126.9,134.81A2.5,2.5 0 1 1 131.9,134.81Z" style="fill:none;stroke:#000000;stroke-width:0.5" />
<path d="M132.75,133.57A2.5,2.5 0 1 1 127.75,133.57A2.5,2.5 0 1 1 132.75,133.57Z" style="fill:none;stroke:#000000;stroke-width:0.5" />
<path d="M133.59,130.51A2.5,2.5 0 1 1 128.59,130.51A2.5,2.5 0 1 1 133.59,130.51Z" style="fill:none;stroke:#000000;stroke-width:0.5" />
<path d="M134.43,128.04A2.5,2.5 0 1 1 129.43,128.04A2.5,2.5 0 1 1 134.43,128.04Z" style="fill:none;stroke:#000000;stroke-width:0.5" />
<path d="M135.28,126.8A2.5,2.5 0 1 1 130.28,126.8A2.5,2.5 0 1 1 135.28,126.8Z" style="fill:none;stroke:#000000;stroke-width:0.5" />
<path d="M136.12,125.56A2.5,2.5 0 1 1 131.12,125.56A2.5,2.5 0 1 1 136.12,125.56Z" style="fill:none;stroke:#000000;stroke-width:0.5" />
<path d="M136.97,124.32A2.5,2.5 0 1 1 131.97,124.32A2.5,2.5 0 1 1 136.97,124.32Z" style="fill:none;stroke:#000000;stroke-width:0.5" />
<path d="M137.81,121.85A2.5,2.5 0 1 1 132.81,121.85A2.5,2.5 0 1 1 137.81,121.85Z" style="fill:none;stroke:#000000;stroke-width:0.5" />
<path d="M138.65,121.85A2.5,2.5 0 1 1 133.65,121.85A2.5,2.5 0 1 1 138.65,121.85Z" style="fill:none;stroke:#000000;stroke-width:0.5" />
<path d="M139.5,120.61A2.5,2.5 0 1 1 134.5,120.61A2.5,2.5 0 1 1 139.5,120.61Z" style="fill:none;stroke:#000000;stroke-width:0.5" />
<path d="M140.34,118.13A2.5,2.5 0 1 1 135.34,118.13A2.5,2.5 0 1 1 140.34,118.13Z" style="fill:none;stroke:#000000;stroke-width:0.5" />
<path d="M141.18,118.13A2.5,2.5 0 1 1 136.18,118.13A2.5,2.5 0 1 1 141.18,118.13Z" style="fill:none;stroke:#000000;stroke-width:0.5" />
<path d="M142.03,115.66A2.5,2.5 0 1 1 137.03,115.66A2.5,2.5 0 1 1 142.03,115.66Z" style="fill:none;stroke:#000000;stroke-width:0.5" />
<path d="M142.87,114.42A2.5,2.5 0 1 1 137.87,114.42A2.5,2.5 0 1 1 142.87,114.42Z" style="fill:none;stroke:#000000;stroke-width:0.5" />
<path d="M143.72,114.42A2.5,2.5 0 1 1 138.72,114.42A2.5,2.5 0 1 1 143.72,114.42Z" style="fill:none;stroke:#000000;stroke-width:0.5" />
<path d="M144.56,113.18A2.5,2.5 0 1 1 139.56,113.18A2.5,2.5 0 1 1 144.56,113.18Z" style="fill:none;stroke:#000000;stroke-width:0.5" />
<path d="M145.4,111.94A2.5,2.5 0 1 1 140.4,111.94A2.5,2.5 0 1 1 145.4,111.94Z" style="fill:none;stroke:#000000;stroke-width:0.5" />
<path d="M146.25,113.18A2.5,2.5 0 1 1 141.25,113.18A2.5,2.5 0 1 1 146.25,113.18Z" style="fill:none;stroke:#000000;stroke-width:0.5" />
<path d="M147.09,110.7A2.5,2.5 0 1 1 142.09,110.7A2.5,2.5 0 1 1 147.09,110.7Z" style="fill:none;stroke:#000000;stroke-width:0.5" />
<path d="M147.93,111.94A2.5,2.5 0 1 1 142.93,111.94A2.5,2.5 0 1 1 147.93,111.94Z" style="fill:none;stroke:#000000;stroke-width:0.5" />
<path d="M148.78,110.7A2.5,2.5 0 1 1 143.78,110.7A2.5,2.5 0 1 1 148.78,110.7Z" style="fill:none;stroke:#000000;stroke-width:0.5" />
<path d="M149.62,109.47A2.5,2.5 0 1 1 144.62,109.47A2.5,2.5 0 1 1 149.62,109.47Z" style="fill:none;stroke:#000000;stroke-width:0.5" />
<path d="M150.47,110.7A2.5,2.5 0 1 1 145.47,110.7A2.5,2.5 0 1 1 150.47,110.7Z" style="fill:none;stroke:#000000;stroke-width:0.5" />
<path d="M151.31,109.47A2.5,2.5 0 1 1 146.31,109.47A2.5,2.5 0 1 1 151.31,109.47Z" style="fill:none;stroke:#000000;stroke-width:0.5" />
<path d="M152.15,109.47A2.5,2.5 0 1 1 147.15,109.47A2.5,2.5 0 1 1 152.15,109.47Z" style="fill:none;stroke:#000000;stroke-width:0.5" />
<path d="M153,111.29A2.5,2.5 0 1 1 148,111.29A2.5,2.5 0 1 1 153,111.29Z" style="fill:none;stroke:#000000;stroke-width:0.5" />
<path d="M153.84,111.29A2.5,2.5 0 1 1 148.84,111.29A2.5,2.5 0 1 1 153.84,111.29Z" style="fill:none;stroke:#000000;stroke-width:0.5" />
<path d="M154.68,110.05A2.5,2.5 0 1 1 149.68,110.05A2.5,2.5 0 1 1 154.68,110.05Z" style="fill:none;stroke:#000000;stroke-width:0.5" />
<path d="M155.53,111.29A2.5,2.5 0 1 1 150.53,111.29A2.5,2.5 0 1 1 155.53,111.29Z" style="fill:none;stroke:#000000;stroke-width:0.5" />
<path d="M156.37,111.29A2.5,2.5 0 1 1 151.37,111.29A2.5,2.5 0 1 1 156.37,111.29Z" style="fill:none;stroke:#000000;stroke-width:0.5" />
<path d="M157.22,111.29A2.5,2.5 0 1 1 152.22,111.29A2.5,2.5 0 1 1 157.22,111.29Z" style="fill:none;stroke:#000000;stroke-width:0.5" />
<path d="M158.06,112.53A2.5,2.5 0 1 1 153.06,112.53A2.5,2.5 0 1 1 158.06,112.53Z" style="fill:none;stroke:#000000;stroke-width:0.5" />
<path d="M158.9,113.77A2.5,2.5 0 1 1 153.9,113.77A2.5,2.5 0 1 1 158.9,113.77Z" style="fill:none;stroke:#000000;stroke-width:0.5" />
<path d="M159.75,113.77A2.5,2.5 0 1 1 154.75,113.77A2.5,2.5 0 1 1 159.75,113.77Z" style="fill:none;stroke:#000000;stroke-width:0.5" />
<path d="M160.59,113.77A2.5,2.5 0 1 1 155.59,113.77A2.5,2.5 0 1 1 160.59,113.77Z" style="fill:none;stroke:#000000;stroke-width:0.5" />
<path d="M161.43,115A2.5,2.5 0 1 1 156.43,115A2.5,2.5 0 1 1 161.43,115Z" style="fill:none;stroke:#000000;stroke-width:0.5" />
<path d="M162.28,115A2.5,2.5 0 1 1 157.28,115A2.5,2.5 0 1 1 162.28,115Z" style="fill:none;stroke:#000000;stroke-width:0.5" />
<path d="M163.12,116.24A2.5,2.5 0 1 1 158.12,116.24A2.5,2.5 0 1 1 163.12,116.24Z" style="fill:none;stroke:#000000;stroke-width:0.5" />
<path d="M163.97,117.48A2.5,2.5 0 1 1 158.97,117.48A2.5,2.5 0 1 1 163.97,117.48Z" style="fill:none;stroke:#000000;stroke-width:0.5" />
<path d="M164.81,118.72A2.5,2.5 0 1 1 159.81,118.72A2.5,2.5 0 1 1 164.81,118.72Z" style="fill:none;stroke:#000000;stroke-width:0.5" />
<path d="M165.65,118.72A2.5,2.5 0 1 1 160.65,118.72A2.5,2.5 0 1 1 165.65,118.72Z" style="fill:none;stroke:#000000;stroke-width:0.5" />
<path d="M166.5,119.96A2.5,2.5 0 1 1 161.5,119.96A2.5,2.5 0 1 1 166.5,119.96Z" style="fill:none;stroke:#000000;stroke-width:0.5" />
<path d="M167.34,121.19A2.5,2.5 0 1 1 162.34,121.19A2.5,2.5 0 1 1 167.34,121.19Z" style="fill:none;stroke:#000000;stroke-width:0.5" />
<path d="M168.18,122.43A2.5,2.5 0 1 1 163.18,122.43A2.5,2.5 0 1 1 168.18,122.43Z" style="fill:none;stroke:#000000;stroke-width:0.5" />
<path d="M169.03,123.67A2.5,2.5 0 1 1 164.03,123.67A2.5,2.5 0 1 1 169.03,123.67Z" style="fill:none;stroke:#000000;stroke-width:0.5" />
<path d="M169.87,123.67A2.5,2.5 0 1 1 164.87,123.67A2.5,2.5 0 1 1 169.87,123.67Z" style="fill:none;stroke:#000000;stroke-width:0.5" />
<path d="M170.72,124.91A2.5,2.5 0 1 1 165.72,124.91A2.5,2.5 0 1 1 170.72,124.91Z" style="fill:none;stroke:#000000;stroke-width:0.5" />
<path d="M171.56,126.15A2.5,2.5 0 1 1 166.56,126.15A2.5,2.5 0 1 1 171.56,126.15Z" style="fill:none;stroke:#000000;stroke-width:0.5" />
<path d="M172.4,127.38A2.5,2.5 0 1 1 167.4,127.38A2.5,2.5 0 1 1 172.4,127.38Z" style="fill:none;stroke:#000000;stroke-width:0.5" />
<path d="M173.25,127.38A2.5,2.5 0 1 1 168.25,127.38A2.5,2.5 0 1 1 173.25,127.38Z" style="fill:none;stroke:#000000;stroke-width:0.5" />
<path d="M174.09,129.86A2.5,2.5 0 1 1 169.09,129.86A2.5,2.5 0 1 1 174.09,129.86Z" style="fill:none;stroke:#000000;stroke-width:0.5" />
<path d="M174.93,129.86A2.5,2.5 0 1 1 169.93,129.86A2.5,2.5 0 1 1 174.93,129.86Z" style="fill:none;stroke:#000000;stroke-width:0.5" />
<path d="M175.78,131.1A2.5,2.5 0 1 1 170.78,131.1A2.5,2.5 0 1 1 175.78,131.1Z" style="fill:none;stroke:#000000;stroke-width:0.5" />
<path d="M176.62,133.58A2.5,2.5 0 1 1 171.62,133.58A2.5,2.5 0 1 1 176.62,133.58Z" style="fill:none;stroke:#000000;stroke-width:0.5" />
<path d="M177.47,133.58A2.5,2.5 0 1 1 172.47,133.58A2.5,2.5 0 1 1 177.47,133.58Z" style="fill:none;stroke:#000000;stroke-width:0.5" />
<path d="M178.31,134.81A2.5,2.5 0 1 1 173.31,134.81A2.5,2.5 0 1 1 178.31,134.81Z" style="fill:none;stroke:#000000;stroke-width:0.5" />
<path d="M179.15,136.05A2.5,2.5 0 1 1 174.15,136.05A2.5,2.5 0 1 1 179.15,136.05Z" style="fill:none;stroke:#000000;stroke-width:0.5" />
<path d="M180,137.29A2.5,2.5 0 1 1 175,137.29A2.5,2.5 0 1 1 180,137.29Z" style="fill:none;stroke:#000000;stroke-width:0.5" />
<path d="M180.84,138.53A2.5,2.5 0 1 1 175.84,138.53A2.5,2.5 0 1 1 180.84,138.53Z" style="fill:none;stroke:#000000;stroke-width:0.5" />
<path d="M181.68,138.53A2.5,2.5 0 1 1 176.68,138.53A2.5,2.5 0 1 1 181.68,138.53Z" style="fill:none;stroke:#000000;stroke-width:0.5" />
<path d="M182.53,139.77A2.5,2.5 0 1 1 177.53,139.77A2.5,2.5 0 1 1 182.53,139.77Z" style="fill:none;stroke:#000000;stroke-width:0.5" />
<path d="M183.37,141A2.5,2.5 0 1 1 178.37,141A2.5,2.5 0 1 1 183.37,141Z" style="fill:none;stroke:#000000;stroke-width:0.5" />
<path d="M184.22,142.24A2.5,2.5 0 1 1 179.22,142.24A2.5,2.5 0 1 1 184.22,142.24Z" style="fill:none;stroke:#000000;stroke-width:0.5" />
<path d="M185.06,142.24A2.5,2.5 0 1 1 180.06,142.24A2.5,2.5 0 1 1 185.06,142.24Z" style="fill:none;stroke:#000000;stroke-width:0.5" />
<path d="M185.9,144.72A2.5,2.5 0 1 1 180.9,144.72A2.5,2.5 0 1 1 185.9,144.72Z" style="fill:none;stroke:#000000;stroke-width:0.5" />
<path d="M186.75,144.72A2.5,2.5 0 1 1 181.75,144.72A2.5,2.5 0 1 1 186.75,144.72Z" style="fill:none;stroke:#000000;stroke-width:0.5" />
<path d="M187.59,144.72A2.5,2.5 0 1 1 182.59,144.72A2.5,2.5 0 1 1 187.59,144.72Z" style="fill:none;stroke:#000000;stroke-width:0.5" />
<path d="M188.43,144.72A2.5,2.5 0 1 1 183.43,144.72A2.5,2.5 0 1 1 188.43,144.72Z" style="fill:none;stroke:#000000;stroke-width:0.5" />
<path d="M189.28,145.96A2.5,2.5 0 1 1 184.28,145.96A2.5,2.5 0 1 1 189.28,145.96Z" style="fill:none;stroke:#000000;stroke-width:0.5" />
<path d="M190.12,145.96A2.5,2.5 0 1 1 185.12,145.96A2.5,2.5 0 1 1 190.12,145.96Z" style="fill:none;stroke:#000000;stroke-width:0.5" />
<path d="M190.97,148.43A2.5,2.5 0 1 1 185.97,148.43A2.5,2.5 0 1 1 190.97,148.43Z" style="fill:none;stroke:#000000;stroke-width:0.5" />
<path d="M191.81,148.43A2.5,2.5 0 1 1 186.81,148.43A2.5,2.5 0 1 1 191.81,148.43Z" style="fill:none;stroke:#000000;stroke-width:0.5" />
<path d="M192.65,148.43A2.5,2.5 0 1 1 187.65,148.43A2.5,2.5 0 1 1 192.65,148.43Z" style="fill:none;stroke:#000000;stroke-width:0.5" />
<path d="M193.5,148.43A2.5,2.5 0 1 1 188.5,148.43A2.5,2.5 0 1 1 193.5,148.43Z" style="fill:none;stroke:#000000;stroke-width:0.5" />
<path d="M194.34,148.43A2.5,2.5 0 1 1 189.34,148.43A2.5,2.5 0 1 1 194.34,148.43Z" style="fill:none;stroke:#000000;stroke-width:0.5" />
<path d="M195.18,149.67A2.5,2.5 0 1 1 190.18,149.67A2.5,2.5 0 1 1 195.18,149.67Z" style="fill:none;stroke:#000000;stroke-width:0.5" />
<path d="M196.03,148.43A2.5,2.5 0 1 1 191.03,148.43A2.5,2.5 0 1 1 196.03,148.43Z" style="fill:none;stroke:#000000;stroke-width:0.5" />
<path d="M196.87,148.43A2.5,2.5 0 1 1 191.87,148.43A2.5,2.5 0 1 1 196.87,148.43Z" style="fill:none;stroke:#000000;stroke-width:0.5" />
<path d="M197.72,149.67A2.5,2.5 0 1 1 192.72,149.67A2.5,2.5 0 1 1 197.72,149.67Z" style="fill:none;stroke:#000000;stroke-width:0.5" />
<path d="M198.56,149.67A2.5,2.5 0 1 1 193.56,149.67A2.5,2.5 0 1 1 198.56,149.67Z" style="fill:none;stroke:#000000;stroke-width:0.5" />
<path d="M199.4,148.43A2.5,2.5 0 1 1 194.4,148.43A2.5,2.5 0 1 1 199.4,148.43Z" style="fill:none;stroke:#000000;stroke-width:0.5" />
<path d="M200.25,148.43A2.5,2.5 0 1 1 195.25,148.43A2.5,2.5 0 1 1 200.25,148.43Z" style="fill:none;stroke:#000000;stroke-width:0.5" />
<path d="M201.09,148.43A2.5,2.5 0 1 1 196.09,148.43A2.5,2.5 0 1 1 201.09,148.43Z" style="fill:none;stroke:#000000;stroke-width:0.5" />
<path d="M201.93,148.43A2.5,2.5 0 1 1 196.93,148.43A2.5,2.5 0 1 1 201.93,148.43Z" style="fill:none;stroke:#000000;stroke-width:0.5" />
<path d="M202.78,147.19A2.5,2.5 0 1 1 197.78,147.19A2.5,2.5 0 1 1 202.78,147.19Z" style="fill:none;stroke:#000000;stroke-width:0.5" />
<path d="M203.62,147.19A2.5,2.5 0 1 1 198.62,147.19A2.5,2.5 0 1 1 203.62,147.19Z" style="fill:none;stroke:#000000;stroke-width:0.5" />
<path d="M204.47,145.95A2.5,2.5 0 1 1 199.47,145.95A2.5,2.5 0 1 1 204.47,145.95Z" style="fill:none;stroke:#000000;stroke-width:0.5" />
<path d="M205.31,145.95A2.5,2.5 0 1 1 200.31,145.95A2.5,2.5 0 1 1 205.31,145.95Z" style="fill:none;stroke:#000000;stroke-width:0.5" />
<path d="M206.15,145.95A2.5,2.5 0 1 1 201.15,145.95A2.5,2.5 0 1 1 206.15,145.95Z" style="fill:none;stroke:#000000;stroke-width:0.5" />
<path d="M207,143.48A2.5,2.5 0 1 1 202,143.48A2.5,2.5 0 1 1 207,143.48Z" style="fill:none;stroke:#000000;stroke-width:0.5" />
<path d="M207.84,143.48A2.5,2.5 0 1 1 202.84,143.48A2.5,2.5 0 1 1 207.84,143.48Z" style="fill:none;stroke:#000000;stroke-width:0.5" />
<path d="M208.68,142.24A2.5,2.5 0 1 1 203.68,142.24A2.5,2.5 0 1 1 208.68,142.24Z" style="fill:none;stroke:#000000;stroke-width:0.5" />
<path d="M209.53,141A2.5,2.5 0 1 1 204.53,141A2.5,2.5 0 1 1 209.53,141Z" style="fill:none;stroke:#000000;stroke-width:0.5" />
<path d="M210.37,141A2.5,2.5 0 1 1 205.37,141A2.5,2.5 0 1 1 210.37,141Z" style="fill:none;stroke:#000000;stroke-width:0.5" />
<path d="M211.22,139.76A2.5,2.5 0 1 1 206.22,139.76A2.5,2.5 0 1 1 211.22,139.76Z" style="fill:none;stroke:#000000;stroke-width:0.5" />
<path d="M212.06,138.52A2.5,2.5 0 1 1 207.06,138.52A2.5,2.5 0 1 1 212.06,138.52Z" style="fill:none;stroke:#000000;stroke-width:0.5" />
<path d="M212.9,136.05A2.5,2.5 0 1 1 207.9,136.05A2.5,2.5 0 1 1 212.9,136.05Z" style="fill:none;stroke:#000000;stroke-width:0.5" />
<path d="M213.75,136.05A2.5,2.5 0 1 1 208.75,136.05A2.5,2.5 0 1 1 213.75,136.05Z" style="fill:none;stroke:#000000;stroke-width:0.5" />
<path d="M214.59,134.81A2.5,2.5 0 1 1 209.59,134.81A2.5,2.5 0 1 1 214.59,134.81Z" style="fill:none;stroke:#000000;stroke-width:0.5" />
<path d="M215.43,133.57A2.5,2.5 0 1 1 210.43,133.57A2.5,2.5 0 1 1 215.43,133.57Z" style="fill:none;stroke:#000000;stroke-width:0.5" />
<path d="M216.28,131.09A2.5,2.5 0 1 1 211.28,131.09A2.5,2.5 0 1 1 216.28,131.09Z" style="fill:none;stroke:#000000;stroke-width:0.5" />
<path d="M217.12,130.51A2.5,2.5 0 1 1 212.12,130.51A2.5,2.5 0 1 1 217.12,130.51Z" style="fill:none;stroke:#000000;stroke-width:0.5" />
<path d="M217.97,128.03A2.5,2.5 0 1 1 212.97,128.03A2.5,2.5 0 1 1 217.97,128.03Z" style="fill:none;stroke:#000000;stroke-width:0.5" />
<path d="M218.81,126.79A2.5,2.5 0 1 1 213.81,126.79A2.5,2.5 0 1 1 218.81,126.79Z" style="fill:none;stroke:#000000;stroke-width:0.5" />
<path d="M219.65,125.56A2.5,2.5 0 1 1 214.65,125.56A2.5,2.5 0 1 1 219.65,125.56Z" style="fill:none;stroke:#000000;stroke-width:0.5" />
<path d="M220.5,124.32A2.5,2.5 0 1 1 215.5,124.32A2.5,2.5 0 1 1 220.5,124.32Z" style="fill:none;stroke:#000000;stroke-width:0.5" />
<path d="M221.34,123.08A2.5,2.5 0 1 1 216.34,123.08A2.5,2.5 0 1 1 221.34,123.08Z" style="fill:none;stroke:#000000;stroke-width:0.5" />
<path d="M222.18,120.6A2.5,2.5 0 1 1 217.18,120.6A2.5,2.5 0 1 1 222.18,120.6Z" style="fill:none;stroke:#000000;stroke-width:0.5" />
<path d="M223.03,118.13A2.5,2.5 0 1 1 218.03,118.13A2.5,2.5 0 1 1 223.03,118.13Z" style="fill:none;stroke:#000000;stroke-width:0.5" />
<path d="M223.87,116.89A2.5,2.5 0 1 1 218.87,116.89A2.5,2.5 0 1 1 223.87,116.89Z" style="fill:none;stroke:#000000;stroke-width:0.5" />
<path d="M224.72,114.41A2.5,2.5 0 1 1 219.72,114.41A2.5,2.5 0 1 1 224.72,114.41Z" style="fill:none;stroke:#000000;stroke-width:0.5" />
<path d="M225.56,113.17A2.5,2.5 0 1 1 220.56,113.17A2.5,2.5 0 1 1 225.56,113.17Z" style="fill:none;stroke:#000000;stroke-width:0.5" />
<path d="M226.4,111.94A2.5,2.5 0 1 1 221.4,111.94A2.5,2.5 0 1 1 226.4,111.94Z" style="fill:none;stroke:#000000;stroke-width:0.5" />
<path d="M227.25,110.7A2.5,2.5 0 1 1 222.25,110.7A2.5,2.5 0 1 1 227.25,110.7Z" style="fill:none;stroke:#000000;stroke-width:0.5" />
<path d="M228.09,109.46A2.5,2.5 0 1 1 223.09,109.46A2.5,2.5 0 1 1 228.09,109.46Z" style="fill:none;stroke:#000000;stroke-width:0.5" />
<path d="M228.93,106.98A2.5,2.5 0 1 1 223.93,106.98A2.5,2.5 0 1 1 228.93,106.98Z" style="fill:none;stroke:#000000;stroke-width:0.5" />
<path d="M229.78,105.74A2.5,2.5 0 1 1 224.78,105.74A2.5,2.5 0 1 1 229.78,105.74Z" style="fill:none;stroke:#000000;stroke-width:0.5" />
<path d="M230.62,103.27A2.5,2.5 0 1 1 225.62,103.27A2.5,2.5 0 1 1 230.62,103.27Z" style="fill:none;stroke:#000000;stroke-width:0.5" />
<path d="M231.47,100.79A2.5,2.5 0 1 1 226.47,100.79A2.5,2.5 0 1 1 231.47,100.79Z" style="fill:none;stroke:#000000;stroke-width:0.5" />
<path d="M232.31,99.553A2.5,2.5 0 1 1 227.31,99.553A2.5,2.5 0 1 1 232.31,99.553Z" style="fill:none;stroke:#000000;stroke-width:0.5" />
<path d="M233.15,98.315A2.5,2.5 0 1 1 228.15,98.315A2.5,2.5 0 1 1 233.15,98.315Z" style="fill:none;stroke:#000000;stroke-width:0.5" />
<path d="M234,95.838A2.5,2.5 0 1 1 229,95.838A2.5,2.5 0 1 1 234,95.838Z" style="fill:none;stroke:#000000;stroke-width:0.5" />
<path d="M234.84,93.946A2.5,2.5 0 1 1 229.84,93.946A2.5,2.5 0 1 1 234.84,93.946Z" style="fill:none;stroke:#000000;stroke-width:0.5" />
<path d="M235.69,92.708A2.5,2.5 0 1 1 230.69,92.708A2.5,2.5 0 1 1 235.69,92.708Z" style="fill:none;stroke:#000000;stroke-width:0.5" />
<path d="M236.53,91.47A2.5,2.5 0 1 1 231.53,91.47A2.5,2.5 0 1 1 236.53,91.47Z" style="fill:none;stroke:#000000;stroke-width:0.5" />
<path d="M237.37,90.232A2.5,2.5 0 1 1 232.37,90.232A2.5,2.5 0 1 1 237.37,90.232Z" style="fill:none;stroke:#000000;stroke-width:0.5" />
<path d="M238.22,87.755A2.5,2.5 0 1 1 233.22,87.755A2.5,2.5 0 1 1 238.22,87.755Z" style="fill:none;stroke:#000000;stroke-width:0.5" />
<path d="M239.06,86.517A2.5,2.5 0 1 1 234.06,86.517A2.5,2.5 0 1 1 239.06,86.517Z" style="fill:none;stroke:#000000;stroke-width:0.5" />
<path d="M239.9,84.041A2.5,2.5 0 1 1 234.9,84.041A2.5,2.5 0 1 1 239.9,84.041Z" style="fill:none;stroke:#000000;stroke-width:0.5" />
<path d="M240.75,82.802A2.5,2.5 0 1 1 235.75,82.802A2.5,2.5 0 1 1 240.75,82.802Z" style="fill:none;stroke:#000000;stroke-width:0.5" />
<path d="M241.59,80.326A2.5,2.5 0 1 1 236.59,80.326A2.5,2.5 0 1 1 241.59,80.326Z" style="fill:none;stroke:#000000;stroke-width:0.5" />
<path d="M242.44,79.088A2.5,2.5 0 1 1 237.44,79.088A2.5,2.5 0 1 1 242.44,79.088Z" style="fill:none;stroke:#000000;stroke-width:0.5" />
<path d="M243.28,79.088A2.5,2.5 0 1 1 238.28,79.088A2.5,2.5 0 1 1 243.28,79.088Z" style="fill:none;stroke:#000000;stroke-width:0.5" />
<path d="M244.12,77.849A2.5,2.5 0 1 1 239.12,77.849A2.5,2.5 0 1 1 244.12,77.849Z" style="fill:none;stroke:#000000;stroke-width:0.5" />
<path d="M244.97,75.373A2.5,2.5 0 1 1 239.97,75.373A2.5,2.5 0 1 1 244.97,75.373Z" style="fill:none;stroke:#000000;stroke-width:0.5" />
<path d="M245.81,74.135A2.5,2.5 0 1 1 240.81,74.135A2.5,2.5 0 1 1 245.81,74.135Z" style="fill:none;stroke:#000000;stroke-width:0.5" />
<path d="M246.65,72.897A2.5,2.5 0 1 1 241.65,72.897A2.5,2.5 0 1 1 246.65,72.897Z" style="fill:none;stroke:#000000;stroke-width:0.5" />
<path d="M247.5,71.659A2.5,2.5 0 1 1 242.5,71.659A2.5,2.5 0 1 1 247.5,71.659Z" style="fill:none;stroke:#000000;stroke-width:0.5" />
<path d="M248.34,70.42A2.5,2.5 0 1 1 243.34,70.42A2.5,2.5 0 1 1 248.34,70.42Z" style="fill:none;stroke:#000000;stroke-width:0.5" />
<path d="M249.19,69.182A2.5,2.5 0 1 1 244.19,69.182A2.5,2.5 0 1 1 249.19,69.182Z" style="fill:none;stroke:#000000;stroke-width:0.5" />
<path d="M250.03,67.944A2.5,2.5 0 1 1 245.03,67.944A2.5,2.5 0 1 1 250.03,67.944Z" style="fill:none;stroke:#000000;stroke-width:0.5" />
<path d="M250.87,66.706A2.5,2.5 0 1 1 245.87,66.706A2.5,2.5 0 1 1 250.87,66.706Z" style="fill:none;stroke:#000000;stroke-width:0.5" />
<path d="M251.72,65.468A2.5,2.5 0 1 1 246.72,65.468A2.5,2.5 0 1 1 251.72,65.468Z" style="fill:none;stroke:#000000;stroke-width:0.5" />
<path d="M252.56,64.23A2.5,2.5 0 1 1 247.56,64.23A2.5,2.5 0 1 1 252.56,64.23Z" style="fill:none;stroke:#000000;stroke-width:0.5" />
<path d="M253.4,64.23A2.5,2.5 0 1 1 248.4,64.23A2.5,2.5 0 1 1 253.4,64.23Z" style="fill:none;stroke:#000000;stroke-width:0.5" />
<path d="M254.25,62.992A2.5,2.5 0 1 1 249.25,62.992A2.5,2.5 0 1 1 254.25,62.992Z" style="fill:none;stroke:#000000;stroke-width:0.5" />
<path d="M255.09,61.754A2.5,2.5 0 1 1 250.09,61.754A2.5,2.5 0 1 1 255.09,61.754Z" style="fill:none;stroke:#000000;stroke-width:0.5" />
<path d="M255.94,60.515A2.5,2.5 0 1 1 250.94,60.515A2.5,2.5 0 1 1 255.94,60.515Z" style="fill:none;stroke:#000000;stroke-width:0.5" />
<path d="M256.78,60.515A2.5,2.5 0 1 1 251.78,60.515A2.5,2.5 0 1 1 256.78,60.515Z" style="fill:none;stroke:#000000;stroke-width:0.5" />
<path d="M257.62,58.039A2.5,2.5 0 1 1 252.62,58.039A2.5,2.5 0 1 1 257.62,58.039Z" style="fill:none;stroke:#000000;stroke-width:0.5" />
<path d="M258.47,58.039A2.5,2.5 0 1 1 253.47,58.039A2.5,2.5 0 1 1 258.47,58.039Z" style="fill:none;stroke:#000000;stroke-width:0.5" />
<path d="M259.31,58.039A2.5,2.5 0 1 1 254.31,58.039A2.5,2.5 0 1 1 259.31,58.039Z" style="fill:none;stroke:#000000;stroke-width:0.5" />
<path d="M260.15,56.217A2.5,2.5 0 1 1 255.15,56.217A2.5,2.5 0 1 1 260.15,56.217Z" style="fill:none;stroke:#000000;stroke-width:0.5" />
<path d="M261,56.217A2.5,2.5 0 1 1 256,56.217A2.5,2.5 0 1 1 261,56.217Z" style="fill:none;stroke:#000000;stroke-width:0.5" />
<path d="M261.84,56.217A2.5,2.5 0 1 1 256.84,56.217A2.5,2.5 0 1 1 261.84,56.217Z" style="fill:none;stroke:#000000;stroke-width:0.5" />
<path d="M262.69,54.979A2.5,2.5 0 1 1 257.69,54.979A2.5,2.5 0 1 1 262.69,54.979Z" style="fill:none;stroke:#000000;stroke-width:0.5" />
<path d="M263.53,54.325A2.5,2.5 0 1 1 258.53,54.325A2.5,2.5 0 1 1 263.53,54.325Z" style="fill:none;stroke:#000000;stroke-width:0.5" />
<path d="M264.37,54.325A2.5,2.5 0 1 1 259.37,54.325A2.5,2.5 0 1 1 264.37,54.325Z" style="fill:none;stroke:#000000;stroke-width:0.5" />
<path d="M265.22,54.326A2.5,2.5 0 1 1 260.22,54.326A2.5,2.5 0 1 1 265.22,54.326Z" style="fill:none;stroke:#000000;stroke-width:0.5" />
<path d="M266.06,54.326A2.5,2.5 0 1 1 261.06,54.326A2.5,2.5 0 1 1 266.06,54.326Z" style="fill:none;stroke:#000000;stroke-width:0.5" />
<path d="M266.9,54.326A2.5,2.5 0 1 1 261.9,54.326A2.5,2.5 0 1 1 266.9,54.326Z" style="fill:none;stroke:#000000;stroke-width:0.5" />
<path d="M267.75,54.326A2.5,2.5 0 1 1 262.75,54.326A2.5,2.5 0 1 1 267.75,54.326Z" style="fill:none;stroke:#000000;stroke-width:0.5" />
<path d="M268.59,54.326A2.5,2.5 0 1 1 263.59,54.326A2.5,2.5 0 1 1 268.59,54.326Z" style="fill:none;stroke:#000000;stroke-width:0.5" />
<path d="M269.44,54.326A2.5,2.5 0 1 1 264.44,54.326A2.5,2.5 0 1 1 269.44,54.326Z" style="fill:none;stroke:#000000;stroke-width:0.5" />
<path d="M270.28,54.326A2.5,2.5 0 1 1 265.28,54.326A2.5,2.5 0 1 1 270.28,54.326Z" style="fill:none;stroke:#000000;stroke-width:0.5" />
<path d="M271.12,54.326A2.5,2.5 0 1 1 266.12,54.326A2.5,2.5 0 1 1 271.12,54.326Z" style="fill:none;stroke:#000000;stroke-width:0.5" />
<path d="M271.97,54.326A2.5,2.5 0 1 1 266.97,54.326A2.5,2.5 0 1 1 271.97,54.326Z" style="fill:none;stroke:#000000;stroke-width:0.5" />
<path d="M272.81,54.326A2.5,2.5 0 1 1 267.81,54.326A2.5,2.5 0 1 1 272.81,54.326Z" style="fill:none;stroke:#000000;stroke-width:0.5" />
<path d="M273.65,54.327A2.5,2.5 0 1 1 268.65,54.327A2.5,2.5 0 1 1 273.65,54.327Z" style="fill:none;stroke:#000000;stroke-width:0.5" />
<path d="M274.5,54.327A2.5,2.5 0 1 1 269.5,54.327A2.5,2.5 0 1 1 274.5,54.327Z" style="fill:none;stroke:#000000;stroke-width:0.5" />
<path d="M275.34,55.565A2.5,2.5 0 1 1 270.34,55.565A2.5,2.5 0 1 1 275.34,55.565Z" style="fill:none;stroke:#000000;stroke-width:0.5" />
<path d="M276.19,55.565A2.5,2.5 0 1 1 271.19,55.565A2.5,2.5 0 1 1 276.19,55.565Z" style="fill:none;stroke:#000000;stroke-width:0.5" />
<path d="M277.03,55.565A2.5,2.5 0 1 1 272.03,55.565A2.5,2.5 0 1 1 277.03,55.565Z" style="fill:none;stroke:#000000;stroke-width:0.5" />
<path d="M277.87,56.803A2.5,2.5 0 1 1 272.87,56.803A2.5,2.5 0 1 1 277.87,56.803Z" style="fill:none;stroke:#000000;stroke-width:0.5" />
<path d="M278.72,56.803A2.5,2.5 0 1 1 273.72,56.803A2.5,2.5 0 1 1 278.72,56.803Z" style="fill:none;stroke:#000000;stroke-width:0.5" />
<path d="M279.56,56.219A2.5,2.5 0 1 1 274.56,56.219A2.5,2.5 0 1 1 279.56,56.219Z" style="fill:none;stroke:#000000;stroke-width:0.5" />
<path d="M280.4,56.219A2.5,2.5 0 1 1 275.4,56.219A2.5,2.5 0 1 1 280.4,56.219Z" style="fill:none;stroke:#000000;stroke-width:0.5" />
<path d="M281.25,57.457A2.5,2.5 0 1 1 276.25,57.457A2.5,2.5 0 1 1 281.25,57.457Z" style="fill:none;stroke:#000000;stroke-width:0.5" />
<path d="M282.09,58.695A2.5,2.5 0 1 1 277.09,58.695A2.5,2.5 0 1 1 282.09,58.695Z" style="fill:none;stroke:#000000;stroke-width:0.5" />
<path d="M282.94,59.28A2.5,2.5 0 1 1 277.94,59.28A2.5,2.5 0 1 1 282.94,59.28Z" style="fill:none;stroke:#000000;stroke-width:0.5" />
<path d="M283.78,59.28A2.5,2.5 0 1 1 278.78,59.28A2.5,2.5 0 1 1 283.78,59.28Z" style="fill:none;stroke:#000000;stroke-width:0.5" />
<path d="M284.62,60.518A2.5,2.5 0 1 1 279.62,60.518A2.5,2.5 0 1 1 284.62,60.518Z" style="fill:none;stroke:#000000;stroke-width:0.5" />
<path d="M285.47,60.518A2.5,2.5 0 1 1 280.47,60.518A2.5,2.5 0 1 1 285.47,60.518Z" style="fill:none;stroke:#000000;stroke-width:0.5" />
<path d="M286.31,61.757A2.5,2.5 0 1 1 281.31,61.757A2.5,2.5 0 1 1 286.31,61.757Z" style="fill:none;stroke:#000000;stroke-width:0.5" />
<path d="M287.15,62.995A2.5,2.5 0 1 1 282.15,62.995A2.5,2.5 0 1 1 287.15,62.995Z" style="fill:none;stroke:#000000;stroke-width:0.5" />
<path d="M288,62.995A2.5,2.5 0 1 1 283,62.995A2.5,2.5 0 1 1 288,62.995Z" style="fill:none;stroke:#000000;stroke-width:0.5" />
<path d="M288.84,64.233A2.5,2.5 0 1 1 283.84,64.233A2.5,2.5 0 1 1 288.84,64.233Z" style="fill:none;stroke:#000000;stroke-width:0.5" />
<path d="M289.69,64.233A2.5,2.5 0 1 1 284.69,64.233A2.5,2.5 0 1 1 289.69,64.233Z" style="fill:none;stroke:#000000;stroke-width:0.5" />
<path d="M290.53,65.471A2.5,2.5 0 1 1 285.53,65.471A2.5,2.5 0 1 1 290.53,65.471Z" style="fill:none;stroke:#000000;stroke-width:0.5" />
<path d="M291.37,66.709A2.5,2.5 0 1 1 286.37,66.709A2.5,2.5 0 1 1 291.37,66.709Z" style="fill:none;stroke:#000000;stroke-width:0.5" />
<path d="M292.22,66.709A2.5,2.5 0 1 1 287.22,66.709A2.5,2.5 0 1 1 292.22,66.709Z" style="fill:none;stroke:#000000;stroke-width:0.5" />
<path d="M293.06,67.947A2.5,2.5 0 1 1 288.06,67.947A2.5,2.5 0 1 1 293.06,67.947Z" style="fill:none;stroke:#000000;stroke-width:0.5" />
<path d="M293.9,69.185A2.5,2.5 0 1 1 288.9,69.185A2.5,2.5 0 1 1 293.9,69.185Z" style="fill:none;stroke:#000000;stroke-width:0.5" />
<path d="M294.75,70.423A2.5,2.5 0 1 1 289.75,70.423A2.5,2.5 0 1 1 294.75,70.423Z" style="fill:none;stroke:#000000;stroke-width:0.5" />
<path d="M295.59,70.424A2.5,2.5 0 1 1 290.59,70.424A2.5,2.5 0 1 1 295.59,70.424Z" style="fill:none;stroke:#000000;stroke-width:0.5" />
<path d="M296.44,71.662A2.5,2.5 0 1 1 291.44,71.662A2.5,2.5 0 1 1 296.44,71.662Z" style="fill:none;stroke:#000000;stroke-width:0.5" />
<path d="M297.28,72.9A2.5,2.5 0 1 1 292.28,72.9A2.5,2.5 0 1 1 297.28,72.9Z" style="fill:none;stroke:#000000;stroke-width:0.5" />
<path d="M298.12,74.138A2.5,2.5 0 1 1 293.12,74.138A2.5,2.5 0 1 1 298.12,74.138Z" style="fill:none;stroke:#000000;stroke-width:0.5" />
<path d="M298.97,74.138A2.5,2.5 0 1 1 293.97,74.138A2.5,2.5 0 1 1 298.97,74.138Z" style="fill:none;stroke:#000000;stroke-width:0.5" />
<path d="M299.81,74.791A2.5,2.5 0 1 1 294.81,74.791A2.5,2.5 0 1 1 299.81,74.791Z" style="fill:none;stroke:#000000;stroke-width:0.5" />
<path d="M300.65,74.791A2.5,2.5 0 1 1 295.65,74.791A2.5,2.5 0 1 1 300.65,74.791Z" style="fill:none;stroke:#000000;stroke-width:0.5" />
<path d="M301.5,76.029A2.5,2.5 0 1 1 296.5,76.029A2.5,2.5 0 1 1 301.5,76.029Z" style="fill:none;stroke:#000000;stroke-width:0.5" />
<path d="M302.34,76.029A2.5,2.5 0 1 1 297.34,76.029A2.5,2.5 0 1 1 302.34,76.029Z" style="fill:none;stroke:#000000;stroke-width:0.5" />
<path d="M303.19,78.505A2.5,2.5 0 1 1 298.19,78.505A2.5,2.5 0 1 1 303.19,78.505Z" style="fill:none;stroke:#000000;stroke-width:0.5" />
<path d="M304.03,79.743A2.5,2.5 0 1 1 299.03,79.743A2.5,2.5 0 1 1 304.03,79.743Z" style="fill:none;stroke:#000000;stroke-width:0.5" />
<path d="M304.87,79.743A2.5,2.5 0 1 1 299.87,79.743A2.5,2.5 0 1 1 304.87,79.743Z" style="fill:none;stroke:#000000;stroke-width:0.5" />
<path d="M305.72,80.981A2.5,2.5 0 1 1 300.72,80.981A2.5,2.5 0 1 1 305.72,80.981Z" style="fill:none;stroke:#000000;stroke-width:0.5" />
<path d="M306.56,82.219A2.5,2.5 0 1 1 301.56,82.219A2.5,2.5 0 1 1 306.56,82.219Z" style="fill:none;stroke:#000000;stroke-width:0.5" />
<path d="M307.4,83.457A2.5,2.5 0 1 1 302.4,83.457A2.5,2.5 0 1 1 307.4,83.457Z" style="fill:none;stroke:#000000;stroke-width:0.5" />
<path d="M308.25,84.041A2.5,2.5 0 1 1 303.25,84.041A2.5,2.5 0 1 1 308.25,84.041Z" style="fill:none;stroke:#000000;stroke-width:0.5" />
<path d="M309.09,85.279A2.5,2.5 0 1 1 304.09,85.279A2.5,2.5 0 1 1 309.09,85.279Z" style="fill:none;stroke:#000000;stroke-width:0.5" />
<path d="M309.94,86.517A2.5,2.5 0 1 1 304.94,86.517A2.5,2.5 0 1 1 309.94,86.517Z" style="fill:none;stroke:#000000;stroke-width:0.5" />
<path d="M310.78,86.517A2.5,2.5 0 1 1 305.78,86.517A2.5,2.5 0 1 1 310.78,86.517Z" style="fill:none;stroke:#000000;stroke-width:0.5" />
<path d="M311.62,87.754A2.5,2.5 0 1 1 306.62,87.754A2.5,2.5 0 1 1 311.62,87.754Z" style="fill:none;stroke:#000000;stroke-width:0.5" />
<path d="M312.47,87.754A2.5,2.5 0 1 1 307.47,87.754A2.5,2.5 0 1 1 312.47,87.754Z" style="fill:none;stroke:#000000;stroke-width:0.5" />
<path d="M313.31,88.992A2.5,2.5 0 1 1 308.31,88.992A2.5,2.5 0 1 1 313.31,88.992Z" style="fill:none;stroke:#000000;stroke-width:0.5" />
<path d="M314.15,88.992A2.5,2.5 0 1 1 309.15,88.992A2.5,2.5 0 1 1 314.15,88.992Z" style="fill:none;stroke:#000000;stroke-width:0.5" />
<path d="M315,90.23A2.5,2.5 0 1 1 310,90.23A2.5,2.5 0 1 1 315,90.23Z" style="fill:none;stroke:#000000;stroke-width:0.5" />
<path d="M315.84,90.229A2.5,2.5 0 1 1 310.84,90.229A2.5,2.5 0 1 1 315.84,90.229Z" style="fill:none;stroke:#000000;stroke-width:0.5" />
<path d="M316.69,91.467A2.5,2.5 0 1 1 311.69,91.467A2.5,2.5 0 1 1 316.69,91.467Z" style="fill:none;stroke:#000000;stroke-width:0.5" />
<path d="M317.53,92.705A2.5,2.5 0 1 1 312.53,92.705A2.5,2.5 0 1 1 317.53,92.705Z" style="fill:none;stroke:#000000;stroke-width:0.5" />
<path d="M318.37,92.704A2.5,2.5 0 1 1 313.37,92.704A2.5,2.5 0 1 1 318.37,92.704Z" style="fill:none;stroke:#000000;stroke-width:0.5" />
<path d="M319.22,93.942A2.5,2.5 0 1 1 314.22,93.942A2.5,2.5 0 1 1 319.22,93.942Z" style="fill:none;stroke:#000000;stroke-width:0.5" />
<path d="M320.06,95.18A2.5,2.5 0 1 1 315.06,95.18A2.5,2.5 0 1 1 320.06,95.18Z" style="fill:none;stroke:#000000;stroke-width:0.5" />
<path d="M320.9,95.18A2.5,2.5 0 1 1 315.9,95.18A2.5,2.5 0 1 1 320.9,95.18Z" style="fill:none;stroke:#000000;stroke-width:0.5" />
<path d="M321.75,96.417A2.5,2.5 0 1 1 316.75,96.417A2.5,2.5 0 1 1 321.75,96.417Z" style="fill:none;stroke:#000000;stroke-width:0.5" />
<path d="M322.59,95.179A2.5,2.5 0 1 1 317.59,95.179A2.5,2.5 0 1 1 322.59,95.179Z" style="fill:none;stroke:#000000;stroke-width:0.5" />
<path d="M323.44,96.417A2.5,2.5 0 1 1 318.44,96.417A2.5,2.5 0 1 1 323.44,96.417Z" style="fill:none;stroke:#000000;stroke-width:0.5" />
<path d="M324.28,96.416A2.5,2.5 0 1 1 319.28,96.416A2.5,2.5 0 1 1 324.28,96.416Z" style="fill:none;stroke:#000000;stroke-width:0.5" />
<path d="M325.12,97.654A2.5,2.5 0 1 1 320.12,97.654A2.5,2.5 0 1 1 325.12,97.654Z" style="fill:none;stroke:#000000;stroke-width:0.5" />
<path d="M325.97,97.654A2.5,2.5 0 1 1 320.97,97.654A2.5,2.5 0 1 1 325.97,97.654Z" style="fill:none;stroke:#000000;stroke-width:0.5" />
<path d="M326.81,97.653A2.5,2.5 0 1 1 321.81,97.653A2.5,2.5 0 1 1 326.81,97.653Z" style="fill:none;stroke:#000000;stroke-width:0.5" />
<path d="M327.65,98.891A2.5,2.5 0 1 1 322.65,98.891A2.5,2.5 0 1 1 327.65,98.891Z" style="fill:none;stroke:#000000;stroke-width:0.5" />
<path d="M328.5,98.89A2.5,2.5 0 1 1 323.5,98.89A2.5,2.5 0 1 1 328.5,98.89Z" style="fill:none;stroke:#000000;stroke-width:0.5" />
<path d="M329.34,99.544A2.5,2.5 0 1 1 324.34,99.544A2.5,2.5 0 1 1 329.34,99.544Z" style="fill:none;stroke:#000000;stroke-width:0.5" />
<path d="M330.19,99.543A2.5,2.5 0 1 1 325.19,99.543A2.5,2.5 0 1 1 330.19,99.543Z" style="fill:none;stroke:#000000;stroke-width:0.5" />
<path d="M331.03,100.78A2.5,2.5 0 1 1 326.03,100.78A2.5,2.5 0 1 1 331.03,100.78Z" style="fill:none;stroke:#000000;stroke-width:0.5" />
<path d="M331.87,99.542A2.5,2.5 0 1 1 326.87,99.542A2.5,2.5 0 1 1 331.87,99.542Z" style="fill:none;stroke:#000000;stroke-width:0.5" />
<path d="M332.72,99.542A2.5,2.5 0 1 1 327.72,99.542A2.5,2.5 0 1 1 332.72,99.542Z" style="fill:none;stroke:#000000;stroke-width:0.5" />
<path d="M333.56,100.78A2.5,2.5 0 1 1 328.56,100.78A2.5,2.5 0 1 1 333.56,100.78Z" style="fill:none;stroke:#000000;stroke-width:0.5" />
<path d="M334.4,100.78A2.5,2.5 0 1 1 329.4,100.78A2.5,2.5 0 1 1 334.4,100.78Z" style="fill:none;stroke:#000000;stroke-width:0.5" />
<path d="M335.25,100.78A2.5,2.5 0 1 1 330.25,100.78A2.5,2.5 0 1 1 335.25,100.78Z" style="fill:none;stroke:#000000;stroke-width:0.5" />
<path d="M336.09,101.36A2.5,2.5 0 1 1 331.09,101.36A2.5,2.5 0 1 1 336.09,101.36Z" style="fill:none;stroke:#000000;stroke-width:0.5" />
<path d="M336.94,101.36A2.5,2.5 0 1 1 331.94,101.36A2.5,2.5 0 1 1 336.94,101.36Z" style="fill:none;stroke:#000000;stroke-width:0.5" />
<path d="M337.78,101.36A2.5,2.5 0 1 1 332.78,101.36A2.5,2.5 0 1 1 337.78,101.36Z" style="fill:none;stroke:#000000;stroke-width:0.5" />
<path d="M338.62,101.36A2.5,2.5 0 1 1 333.62,101.36A2.5,2.5 0 1 1 338.62,101.36Z" style="fill:none;stroke:#000000;stroke-width:0.5" />
<path d="M339.47,101.36A2.5,2.5 0 1 1 334.47,101.36A2.5,2.5 0 1 1 339.47,101.36Z" style="fill:none;stroke:#000000;stroke-width:0.5" />
<path d="M340.31,101.36A2.5,2.5 0 1 1 335.31,101.36A2.5,2.5 0 1 1 340.31,101.36Z" style="fill:none;stroke:#000000;stroke-width:0.5" />
<path d="M341.15,100.12A2.5,2.5 0 1 1 336.15,100.12A2.5,2.5 0 1 1 341.15,100.12Z" style="fill:none;stroke:#000000;stroke-width:0.5" />
<path d="M342,100.12A2.5,2.5 0 1 1 337,100.12A2.5,2.5 0 1 1 342,100.12Z" style="fill:none;stroke:#000000;stroke-width:0.5" />
<path d="M342.84,100.12A2.5,2.5 0 1 1 337.84,100.12A2.5,2.5 0 1 1 342.84,100.12Z" style="fill:none;stroke:#000000;stroke-width:0.5" />
<path d="M343.69,100.12A2.5,2.5 0 1 1 338.69,100.12A2.5,2.5 0 1 1 343.69,100.12Z" style="fill:none;stroke:#000000;stroke-width:0.5" />
<path d="M344.53,100.12A2.5,2.5 0 1 1 339.53,100.12A2.5,2.5 0 1 1 344.53,100.12Z" style="fill:none;stroke:#000000;stroke-width:0.5" />
<path d="M345.37,100.12A2.5,2.5 0 1 1 340.37,100.12A2.5,2.5 0 1 1 345.37,100.12Z" style="fill:none;stroke:#000000;stroke-width:0.5" />
<path d="M346.22,98.882A2.5,2.5 0 1 1 341.22,98.882A2.5,2.5 0 1 1 346.22,98.882Z" style="fill:none;stroke:#000000;stroke-width:0.5" />
<path d="M347.06,100.12A2.5,2.5 0 1 1 342.06,100.12A2.5,2.5 0 1 1 347.06,100.12Z" style="fill:none;stroke:#000000;stroke-width:0.5" />
<path d="M347.9,98.297A2.5,2.5 0 1 1 342.9,98.297A2.5,2.5 0 1 1 347.9,98.297Z" style="fill:none;stroke:#000000;stroke-width:0.5" />
<path d="M348.75,97.643A2.5,2.5 0 1 1 343.75,97.643A2.5,2.5 0 1 1 348.75,97.643Z" style="fill:none;stroke:#000000;stroke-width:0.5" />
<path d="M349.59,97.642A2.5,2.5 0 1 1 344.59,97.642A2.5,2.5 0 1 1 349.59,97.642Z" style="fill:none;stroke:#000000;stroke-width:0.5" />
<path d="M350.44,97.642A2.5,2.5 0 1 1 345.44,97.642A2.5,2.5 0 1 1 350.44,97.642Z" style="fill:none;stroke:#000000;stroke-width:0.5" />
<path d="M351.28,96.403A2.5,2.5 0 1 1 346.28,96.403A2.5,2.5 0 1 1 351.28,96.403Z" style="fill:none;stroke:#000000;stroke-width:0.5" />
<path d="M352.12,95.165A2.5,2.5 0 1 1 347.12,95.165A2.5,2.5 0 1 1 352.12,95.165Z" style="fill:none;stroke:#000000;stroke-width:0.5" />
<path d="M352.97,95.165A2.5,2.5 0 1 1 347.97,95.165A2.5,2.5 0 1 1 352.97,95.165Z" style="fill:none;stroke:#000000;stroke-width:0.5" />
<path d="M353.81,93.926A2.5,2.5 0 1 1 348.81,93.926A2.5,2.5 0 1 1 353.81,93.926Z" style="fill:none;stroke:#000000;stroke-width:0.5" />
<path d="M354.65,93.926A2.5,2.5 0 1 1 349.65,93.926A2.5,2.5 0 1 1 354.65,93.926Z" style="fill:none;stroke:#000000;stroke-width:0.5" />
<path d="M355.5,92.688A2.5,2.5 0 1 1 350.5,92.688A2.5,2.5 0 1 1 355.5,92.688Z" style="fill:none;stroke:#000000;stroke-width:0.5" />
<path d="M356.34,91.45A2.5,2.5 0 1 1 351.34,91.45A2.5,2.5 0 1 1 356.34,91.45Z" style="fill:none;stroke:#000000;stroke-width:0.5" />
<path d="M357.19,90.211A2.5,2.5 0 1 1 352.19,90.211A2.5,2.5 0 1 1 357.19,90.211Z" style="fill:none;stroke:#000000;stroke-width:0.5" />
<path d="M358.03,90.211A2.5,2.5 0 1 1 353.03,90.211A2.5,2.5 0 1 1 358.03,90.211Z" style="fill:none;stroke:#000000;stroke-width:0.5" />
<path d="M358.87,90.211A2.5,2.5 0 1 1 353.87,90.211A2.5,2.5 0 1 1 358.87,90.211Z" style="fill:none;stroke:#000000;stroke-width:0.5" />
<path d="M359.72,87.734A2.5,2.5 0 1 1 354.72,87.734A2.5,2.5 0 1 1 359.72,87.734Z" style="fill:none;stroke:#000000;stroke-width:0.5" />
<path d="M360.56,87.734A2.5,2.5 0 1 1 355.56,87.734A2.5,2.5 0 1 1 360.56,87.734Z" style="fill:none;stroke:#000000;stroke-width:0.5" />
<path d="M361.4,86.496A2.5,2.5 0 1 1 356.4,86.496A2.5,2.5 0 1 1 361.4,86.496Z" style="fill:none;stroke:#000000;stroke-width:0.5" />
<path d="M362.25,86.496A2.5,2.5 0 1 1 357.25,86.496A2.5,2.5 0 1 1 362.25,86.496Z" style="fill:none;stroke:#000000;stroke-width:0.5" />
<path d="M363.09,84.02A2.5,2.5 0 1 1 358.09,84.02A2.5,2.5 0 1 1 363.09,84.02Z" style="fill:none;stroke:#000000;stroke-width:0.5" />
<path d="M363.94,84.02A2.5,2.5 0 1 1 358.94,84.02A2.5,2.5 0 1 1 363.94,84.02Z" style="fill:none;stroke:#000000;stroke-width:0.5" />
<path d="M364.78,82.781A2.5,2.5 0 1 1 359.78,82.781A2.5,2.5 0 1 1 364.78,82.781Z" style="fill:none;stroke:#000000;stroke-width:0.5" />
<path d="M365.62,81.543A2.5,2.5 0 1 1 360.62,81.543A2.5,2.5 0 1 1 365.62,81.543Z" style="fill:none;stroke:#000000;stroke-width:0.5" />
<path d="M366.47,80.89A2.5,2.5 0 1 1 361.47,80.89A2.5,2.5 0 1 1 366.47,80.89Z" style="fill:none;stroke:#000000;stroke-width:0.5" />
<path d="M367.31,79.652A2.5,2.5 0 1 1 362.31,79.652A2.5,2.5 0 1 1 367.31,79.652Z" style="fill:none;stroke:#000000;stroke-width:0.5" />
<path d="M368.15,78.413A2.5,2.5 0 1 1 363.15,78.413A2.5,2.5 0 1 1 368.15,78.413Z" style="fill:none;stroke:#000000;stroke-width:0.5" />
<path d="M369,77.175A2.5,2.5 0 1 1 364,77.175A2.5,2.5 0 1 1 369,77.175Z" style="fill:none;stroke:#000000;stroke-width:0.5" />
<path d="M369.84,75.937A2.5,2.5 0 1 1 364.84,75.937A2.5,2.5 0 1 1 369.84,75.937Z" style="fill:none;stroke:#000000;stroke-width:0.5" />
<path d="M370.69,75.937A2.5,2.5 0 1 1 365.69,75.937A2.5,2.5 0 1 1 370.69,75.937Z" style="fill:none;stroke:#000000;stroke-width:0.5" />
<path d="M371.53,73.461A2.5,2.5 0 1 1 366.53,73.461A2.5,2.5 0 1 1 371.53,73.461Z" style="fill:none;stroke:#000000;stroke-width:0.5" />
<path d="M372.37,71.639A2.5,2.5 0 1 1 367.37,71.639A2.5,2.5 0 1 1 372.37,71.639Z" style="fill:none;stroke:#000000;stroke-width:0.5" />
<path d="M373.22,70.401A2.5,2.5 0 1 1 368.22,70.401A2.5,2.5 0 1 1 373.22,70.401Z" style="fill:none;stroke:#000000;stroke-width:0.5" />
<path d="M374.06,69.163A2.5,2.5 0 1 1 369.06,69.163A2.5,2.5 0 1 1 374.06,69.163Z" style="fill:none;stroke:#000000;stroke-width:0.5" />
<path d="M374.91,69.163A2.5,2.5 0 1 1 369.91,69.163A2.5,2.5 0 1 1 374.91,69.163Z" style="fill:none;stroke:#000000;stroke-width:0.5" />
<path d="M375.75,66.687A2.5,2.5 0 1 1 370.75,66.687A2.5,2.5 0 1 1 375.75,66.687Z" style="fill:none;stroke:#000000;stroke-width:0.5" />
<path d="M376.59,65.449A2.5,2.5 0 1 1 371.59,65.449A2.5,2.5 0 1 1 376.59,65.449Z" style="fill:none;stroke:#000000;stroke-width:0.5" />
<path d="M377.44,64.211A2.5,2.5 0 1 1 372.44,64.211A2.5,2.5 0 1 1 377.44,64.211Z" style="fill:none;stroke:#000000;stroke-width:0.5" />
<path d="M378.28,62.973A2.5,2.5 0 1 1 373.28,62.973A2.5,2.5 0 1 1 378.28,62.973Z" style="fill:none;stroke:#000000;stroke-width:0.5" />
<path d="M379.12,62.974A2.5,2.5 0 1 1 374.12,62.974A2.5,2.5 0 1 1 379.12,62.974Z" style="fill:none;stroke:#000000;stroke-width:0.5" />
<path d="M379.97,61.736A2.5,2.5 0 1 1 374.97,61.736A2.5,2.5 0 1 1 379.97,61.736Z" style="fill:none;stroke:#000000;stroke-width:0.5" />
<path d="M380.81,60.498A2.5,2.5 0 1 1 375.81,60.498A2.5,2.5 0 1 1 380.81,60.498Z" style="fill:none;stroke:#000000;stroke-width:0.5" />
<path d="M381.66,58.022A2.5,2.5 0 1 1 376.66,58.022A2.5,2.5 0 1 1 381.66,58.022Z" style="fill:none;stroke:#000000;stroke-width:0.5" />
<path d="M382.5,58.022A2.5,2.5 0 1 1 377.5,58.022A2.5,2.5 0 1 1 382.5,58.022Z" style="fill:none;stroke:#000000;stroke-width:0.5" />
<path d="M383.34,55.546A2.5,2.5 0 1 1 378.34,55.546A2.5,2.5 0 1 1 383.34,55.546Z" style="fill:none;stroke:#000000;stroke-width:0.5" />
<path d="M384.19,55.547A2.5,2.5 0 1 1 379.19,55.547A2.5,2.5 0 1 1 384.19,55.547Z" style="fill:none;stroke:#000000;stroke-width:0.5" />
<path d="M385.03,54.309A2.5,2.5 0 1 1 380.03,54.309A2.5,2.5 0 1 1 385.03,54.309Z" style="fill:none;stroke:#000000;stroke-width:0.5" />
<path d="M385.87,53.071A2.5,2.5 0 1 1 380.87,53.071A2.5,2.5 0 1 1 385.87,53.071Z" style="fill:none;stroke:#000000;stroke-width:0.5" />
<path d="M386.72,51.833A2.5,2.5 0 1 1 381.72,51.833A2.5,2.5 0 1 1 386.72,51.833Z" style="fill:none;stroke:#000000;stroke-width:0.5" />
<path d="M387.56,50.596A2.5,2.5 0 1 1 382.56,50.596A2.5,2.5 0 1 1 387.56,50.596Z" style="fill:none;stroke:#000000;stroke-width:0.5" />
<path d="M388.41,50.596A2.5,2.5 0 1 1 383.41,50.596A2.5,2.5 0 1 1 388.41,50.596Z" style="fill:none;stroke:#000000;stroke-width:0.5" />
<path d="M389.25,48.774A2.5,2.5 0 1 1 384.25,48.774A2.5,2.5 0 1 1 389.25,48.774Z" style="fill:none;stroke:#000000;stroke-width:0.5" />
<path d="M390.09,48.121A2.5,2.5 0 1 1 385.09,48.121A2.5,2.5 0 1 1 390.09,48.121Z" style="fill:none;stroke:#000000;stroke-width:0.5" />
<path d="M390.94,48.121A2.5,2.5 0 1 1 385.94,48.121A2.5,2.5 0 1 1 390.94,48.121Z" style="fill:none;stroke:#000000;stroke-width:0.5" />
<path d="M391.78,45.645A2.5,2.5 0 1 1 386.78,45.645A2.5,2.5 0 1 1 391.78,45.645Z" style="fill:none;stroke:#000000;stroke-width:0.5" />
<path d="M392.62,45.646A2.5,2.5 0 1 1 387.62,45.646A2.5,2.5 0 1 1 392.62,45.646Z" style="fill:none;stroke:#000000;stroke-width:0.5" />
<path d="M393.47,45.646A2.5,2.5 0 1 1 388.47,45.646A2.5,2.5 0 1 1 393.47,45.646Z" style="fill:none;stroke:#000000;stroke-width:0.5" />
<path d="M394.31,44.408A2.5,2.5 0 1 1 389.31,44.408A2.5,2.5 0 1 1 394.31,44.408Z" style="fill:none;stroke:#000000;stroke-width:0.5" />
<path d="M395.16,44.409A2.5,2.5 0 1 1 390.16,44.409A2.5,2.5 0 1 1 395.16,44.409Z" style="fill:none;stroke:#000000;stroke-width:0.5" />
<path d="M396,44.409A2.5,2.5 0 1 1 391,44.409A2.5,2.5 0 1 1 396,44.409Z" style="fill:none;stroke:#000000;stroke-width:0.5" />
<path d="M396.84,43.171A2.5,2.5 0 1 1 391.84,43.171A2.5,2.5 0 1 1 396.84,43.171Z" style="fill:none;stroke:#000000;stroke-width:0.5" />
<path d="M397.69,43.172A2.5,2.5 0 1 1 392.69,43.172A2.5,2.5 0 1 1 397.69,43.172Z" style="fill:none;stroke:#000000;stroke-width:0.5" />
<path d="M398.53,43.172A2.5,2.5 0 1 1 393.53,43.172A2.5,2.5 0 1 1 398.53,43.172Z" style="fill:none;stroke:#000000;stroke-width:0.5" />
<path d="M399.37,41.35A2.5,2.5 0 1 1 394.37,41.35A2.5,2.5 0 1 1 399.37,41.35Z" style="fill:none;stroke:#000000;stroke-width:0.5" />
<path d="M400.22,41.351A2.5,2.5 0 1 1 395.22,41.351A2.5,2.5 0 1 1 400.22,41.351Z" style="fill:none;stroke:#000000;stroke-width:0.5" />
<path d="M401.06,41.351A2.5,2.5 0 1 1 396.06,41.351A2.5,2.5 0 1 1 401.06,41.351Z" style="fill:none;stroke:#000000;stroke-width:0.5" />
<path d="M401.91,40.113A2.5,2.5 0 1 1 396.91,40.113A2.5,2.5 0 1 1 401.91,40.113Z" style="fill:none;stroke:#000000;stroke-width:0.5" />
<path d="M402.75,41.936A2.5,2.5 0 1 1 397.75,41.936A2.5,2.5 0 1 1 402.75,41.936Z" style="fill:none;stroke:#000000;stroke-width:0.5" />
<path d="M403.59,41.937A2.5,2.5 0 1 1 398.59,41.937A2.5,2.5 0 1 1 403.59,41.937Z" style="fill:none;stroke:#000000;stroke-width:0.5" />
<path d="M404.44,40.699A2.5,2.5 0 1 1 399.44,40.699A2.5,2.5 0 1 1 404.44,40.699Z" style="fill:none;stroke:#000000;stroke-width:0.5" />
<path d="M405.28,41.937A2.5,2.5 0 1 1 400.28,41.937A2.5,2.5 0 1 1 405.28,41.937Z" style="fill:none;stroke:#000000;stroke-width:0.5" />
<path d="M406.12,40.7A2.5,2.5 0 1 1 401.12,40.7A2.5,2.5 0 1 1 406.12,40.7Z" style="fill:none;stroke:#000000;stroke-width:0.5" />
<path d="M406.97,41.938A2.5,2.5 0 1 1 401.97,41.938A2.5,2.5 0 1 1 406.97,41.938Z" style="fill:none;stroke:#000000;stroke-width:0.5" />
<path d="M407.81,41.939A2.5,2.5 0 1 1 402.81,41.939A2.5,2.5 0 1 1 407.81,41.939Z" style="fill:none;stroke:#000000;stroke-width:0.5" />
<path d="M408.66,43.177A2.5,2.5 0 1 1 403.66,43.177A2.5,2.5 0 1 1 408.66,43.177Z" style="fill:none;stroke:#000000;stroke-width:0.5" />
<path d="M409.5,42.593A2.5,2.5 0 1 1 404.5,42.593A2.5,2.5 0 1 1 409.5,42.593Z" style="fill:none;stroke:#000000;stroke-width:0.5" />
<path d="M410.34,43.831A2.5,2.5 0 1 1 405.34,43.831A2.5,2.5 0 1 1 410.34,43.831Z" style="fill:none;stroke:#000000;stroke-width:0.5" />
<path d="M411.19,42.593A2.5,2.5 0 1 1 406.19,42.593A2.5,2.5 0 1 1 411.19,42.593Z" style="fill:none;stroke:#000000;stroke-width:0.5" />
<path d="M412.03,45.07A2.5,2.5 0 1 1 407.03,45.07A2.5,2.5 0 1 1 412.03,45.07Z" style="fill:none;stroke:#000000;stroke-width:0.5" />
<path d="M412.87,45.07A2.5,2.5 0 1 1 407.87,45.07A2.5,2.5 0 1 1 412.87,45.07Z" style="fill:none;stroke:#000000;stroke-width:0.5" />
<path d="M413.72,46.309A2.5,2.5 0 1 1 408.72,46.309A2.5,2.5 0 1 1 413.72,46.309Z" style="fill:none;stroke:#000000;stroke-width:0.5" />
<path d="M414.56,46.309A2.5,2.5 0 1 1 409.56,46.309A2.5,2.5 0 1 1 414.56,46.309Z" style="fill:none;stroke:#000000;stroke-width:0.5" />
<path d="M415.41,47.547A2.5,2.5 0 1 1 410.41,47.547A2.5,2.5 0 1 1 415.41,47.547Z" style="fill:none;stroke:#000000;stroke-width:0.5" />
<path d="M416.25,48.786A2.5,2.5 0 1 1 411.25,48.786A2.5,2.5 0 1 1 416.25,48.786Z" style="fill:none;stroke:#000000;stroke-width:0.5" />
<path d="M417.09,50.024A2.5,2.5 0 1 1 412.09,50.024A2.5,2.5 0 1 1 417.09,50.024Z" style="fill:none;stroke:#000000;stroke-width:0.5" />
<path d="M417.94,51.262A2.5,2.5 0 1 1 412.94,51.262A2.5,2.5 0 1 1 417.94,51.262Z" style="fill:none;stroke:#000000;stroke-width:0.5" />
<path d="M418.78,52.5A2.5,2.5 0 1 1 413.78,52.5A2.5,2.5 0 1 1 418.78,52.5Z" style="fill:none;stroke:#000000;stroke-width:0.5" />
<path d="M419.62,53.739A2.5,2.5 0 1 1 414.62,53.739A2.5,2.5 0 1 1 419.62,53.739Z" style="fill:none;stroke:#000000;stroke-width:0.5" />
<path d="M420.47,54.977A2.5,2.5 0 1 1 415.47,54.977A2.5,2.5 0 1 1 420.47,54.977Z" style="fill:none;stroke:#000000;stroke-width:0.5" />
<path d="M421.31,57.453A2.5,2.5 0 1 1 416.31,57.453A2.5,2.5 0 1 1 421.31,57.453Z" style="fill:none;stroke:#000000;stroke-width:0.5" />
<path d="M422.16,57.453A2.5,2.5 0 1 1 417.16,57.453A2.5,2.5 0 1 1 422.16,57.453Z" style="fill:none;stroke:#000000;stroke-width:0.5" />
<path d="M423,59.93A2.5,2.5 0 1 1 418,59.93A2.5,2.5 0 1 1 423,59.93Z" style="fill:none;stroke:#000000;stroke-width:0.5" />
<path d="M423.84,61.168A2.5,2.5 0 1 1 418.84,61.168A2.5,2.5 0 1 1 423.84,61.168Z" style="fill:none;stroke:#000000;stroke-width:0.5" />
<path d="M424.69,63.644A2.5,2.5 0 1 1 419.69,63.644A2.5,2.5 0 1 1 424.69,63.644Z" style="fill:none;stroke:#000000;stroke-width:0.5" />
<path d="M425.53,64.882A2.5,2.5 0 1 1 420.53,64.882A2.5,2.5 0 1 1 425.53,64.882Z" style="fill:none;stroke:#000000;stroke-width:0.5" />
<path d="M426.37,67.358A2.5,2.5 0 1 1 421.37,67.358A2.5,2.5 0 1 1 426.37,67.358Z" style="fill:none;stroke:#000000;stroke-width:0.5" />
<path d="M427.22,68.597A2.5,2.5 0 1 1 422.22,68.597A2.5,2.5 0 1 1 427.22,68.597Z" style="fill:none;stroke:#000000;stroke-width:0.5" />
<path d="M428.06,71.073A2.5,2.5 0 1 1 423.06,71.073A2.5,2.5 0 1 1 428.06,71.073Z" style="fill:none;stroke:#000000;stroke-width:0.5" />
<path d="M428.91,73.549A2.5,2.5 0 1 1 423.91,73.549A2.5,2.5 0 1 1 428.91,73.549Z" style="fill:none;stroke:#000000;stroke-width:0.5" />
<path d="M429.75,76.025A2.5,2.5 0 1 1 424.75,76.025A2.5,2.5 0 1 1 429.75,76.025Z" style="fill:none;stroke:#000000;stroke-width:0.5" />
<path d="M430.59,77.263A2.5,2.5 0 1 1 425.59,77.263A2.5,2.5 0 1 1 430.59,77.263Z" style="fill:none;stroke:#000000;stroke-width:0.5" />
<path d="M431.44,79.739A2.5,2.5 0 1 1 426.44,79.739A2.5,2.5 0 1 1 431.44,79.739Z" style="fill:none;stroke:#000000;stroke-width:0.5" />
<path d="M432.28,82.215A2.5,2.5 0 1 1 427.28,82.215A2.5,2.5 0 1 1 432.28,82.215Z" style="fill:none;stroke:#000000;stroke-width:0.5" />
<path d="M433.12,83.453A2.5,2.5 0 1 1 428.12,83.453A2.5,2.5 0 1 1 433.12,83.453Z" style="fill:none;stroke:#000000;stroke-width:0.5" />
<path d="M433.97,85.929A2.5,2.5 0 1 1 428.97,85.929A2.5,2.5 0 1 1 433.97,85.929Z" style="fill:none;stroke:#000000;stroke-width:0.5" />
<path d="M434.81,88.405A2.5,2.5 0 1 1 429.81,88.405A2.5,2.5 0 1 1 434.81,88.405Z" style="fill:none;stroke:#000000;stroke-width:0.5" />
<path d="M435.66,90.881A2.5,2.5 0 1 1 430.66,90.881A2.5,2.5 0 1 1 435.66,90.881Z" style="fill:none;stroke:#000000;stroke-width:0.5" />
<path d="M436.5,93.357A2.5,2.5 0 1 1 431.5,93.357A2.5,2.5 0 1 1 436.5,93.357Z" style="fill:none;stroke:#000000;stroke-width:0.5" />
<path d="M437.34,95.833A2.5,2.5 0 1 1 432.34,95.833A2.5,2.5 0 1 1 437.34,95.833Z" style="fill:none;stroke:#000000;stroke-width:0.5" />
<path d="M438.19,98.309A2.5,2.5 0 1 1 433.19,98.309A2.5,2.5 0 1 1 438.19,98.309Z" style="fill:none;stroke:#000000;stroke-width:0.5" />
<path d="M439.03,102.02A2.5,2.5 0 1 1 434.03,102.02A2.5,2.5 0 1 1 439.03,102.02Z" style="fill:none;stroke:#000000;stroke-width:0.5" />
<path d="M439.87,103.26A2.5,2.5 0 1 1 434.87,103.26A2.5,2.5 0 1 1 439.87,103.26Z" style="fill:none;stroke:#000000;stroke-width:0.5" />
<path d="M440.72,106.98A2.5,2.5 0 1 1 435.72,106.98A2.5,2.5 0 1 1 440.72,106.98Z" style="fill:none;stroke:#000000;stroke-width:0.5" />
<path d="M441.56,108.8A2.5,2.5 0 1 1 436.56,108.8A2.5,2.5 0 1 1 441.56,108.8Z" style="fill:none;stroke:#000000;stroke-width:0.5" />
<path d="M442.41,112.51A2.5,2.5 0 1 1 437.41,112.51A2.5,2.5 0 1 1 442.41,112.51Z" style="fill:none;stroke:#000000;stroke-width:0.5" />
<path d="M443.25,114.99A2.5,2.5 0 1 1 438.25,114.99A2.5,2.5 0 1 1 443.25,114.99Z" style="fill:none;stroke:#000000;stroke-width:0.5" />
<path d="M444.09,117.46A2.5,2.5 0 1 1 439.09,117.46A2.5,2.5 0 1 1 444.09,117.46Z" style="fill:none;stroke:#000000;stroke-width:0.5" />
<path d="M444.94,121.18A2.5,2.5 0 1 1 439.94,121.18A2.5,2.5 0 1 1 444.94,121.18Z" style="fill:none;stroke:#000000;stroke-width:0.5" />
<path d="M445.78,122.41A2.5,2.5 0 1 1 440.78,122.41A2.5,2.5 0 1 1 445.78,122.41Z" style="fill:none;stroke:#000000;stroke-width:0.5" />
<path d="M446.62,126.13A2.5,2.5 0 1 1 441.62,126.13A2.5,2.5 0 1 1 446.62,126.13Z" style="fill:none;stroke:#000000;stroke-width:0.5" />
<path d="M447.47,128.6A2.5,2.5 0 1 1 442.47,128.6A2.5,2.5 0 1 1 447.47,128.6Z" style="fill:none;stroke:#000000;stroke-width:0.5" />
<path d="M448.31,131.08A2.5,2.5 0 1 1 443.31,131.08A2.5,2.5 0 1 1 448.31,131.08Z" style="fill:none;stroke:#000000;stroke-width:0.5" />
<path d="M449.16,134.21A2.5,2.5 0 1 1 444.16,134.21A2.5,2.5 0 1 1 449.16,134.21Z" style="fill:none;stroke:#000000;stroke-width:0.5" />
<path d="M450,136.69A2.5,2.5 0 1 1 445,136.69A2.5,2.5 0 1 1 450,136.69Z" style="fill:none;stroke:#000000;stroke-width:0.5" />
<path d="M450.84,139.16A2.5,2.5 0 1 1 445.84,139.16A2.5,2.5 0 1 1 450.84,139.16Z" style="fill:none;stroke:#000000;stroke-width:0.5" />
<path d="M451.69,141.64A2.5,2.5 0 1 1 446.69,141.64A2.5,2.5 0 1 1 451.69,141.64Z" style="fill:none;stroke:#000000;stroke-width:0.5" />
<path d="M452.53,145.35A2.5,2.5 0 1 1 447.53,145.35A2.5,2.5 0 1 1 452.53,145.35Z" style="fill:none;stroke:#000000;stroke-width:0.5" />
<path d="M453.37,147.83A2.5,2.5 0 1 1 448.37,147.83A2.5,2.5 0 1 1 453.37,147.83Z" style="fill:none;stroke:#000000;stroke-width:0.5" />
<path d="M454.22,150.89A2.5,2.5 0 1 1 449.22,150.89A2.5,2.5 0 1 1 454.22,150.89Z" style="fill:none;stroke:#000000;stroke-width:0.5" />
<path d="M455.06,154.6A2.5,2.5 0 1 1 450.06,154.6A2.5,2.5 0 1 1 455.06,154.6Z" style="fill:none;stroke:#000000;stroke-width:0.5" />
<path d="M455.91,157.08A2.5,2.5 0 1 1 450.91,157.08A2.5,2.5 0 1 1 455.91,157.08Z" style="fill:none;stroke:#000000;stroke-width:0.5" />
<path d="M456.75,160.79A2.5,2.5 0 1 1 451.75,160.79A2.5,2.5 0 1 1 456.75,160.79Z" style="fill:none;stroke:#000000;stroke-width:0.5" />
<path d="M457.59,163.27A2.5,2.5 0 1 1 452.59,163.27A2.5,2.5 0 1 1 457.59,163.27Z" style="fill:none;stroke:#000000;stroke-width:0.5" />
<path d="M458.44,165.74A2.5,2.5 0 1 1 453.44,165.74A2.5,2.5 0 1 1 458.44,165.74Z" style="fill:none;stroke:#000000;stroke-width:0.5" />
<path d="M459.28,168.22A2.5,2.5 0 1 1 454.28,168.22A2.5,2.5 0 1 1 459.28,168.22Z" style="fill:none;stroke:#000000;stroke-width:0.5" />
<path d="M460.12,170.69A2.5,2.5 0 1 1 455.12,170.69A2.5,2.5 0 1 1 460.12,170.69Z" style="fill:none;stroke:#000000;stroke-width:0.5" />
<path d="M460.97,173.17A2.5,2.5 0 1 1 455.97,173.17A2.5,2.5 0 1 1 460.97,173.17Z" style="fill:none;stroke:#000000;stroke-width:0.5" />
<path d="M461.81,175.65A2.5,2.5 0 1 1 456.81,175.65A2.5,2.5 0 1 1 461.81,175.65Z" style="fill:none;stroke:#000000;stroke-width:0.5" />
<path d="M462.66,179.36A2.5,2.5 0 1 1 457.66,179.36A2.5,2.5 0 1 1 462.66,179.36Z" style="fill:none;stroke:#000000;stroke-width:0.5" />
<path d="M463.5,180.6A2.5,2.5 0 1 1 458.5,180.6A2.5,2.5 0 1 1 463.5,180.6Z" style="fill:none;stroke:#000000;stroke-width:0.5" />
<path d="M464.34,184.31A2.5,2.5 0 1 1 459.34,184.31A2.5,2.5 0 1 1 464.34,184.31Z" style="fill:none;stroke:#000000;stroke-width:0.5" />
<path d="M465.19,186.79A2.5,2.5 0 1 1 460.19,186.79A2.5,2.5 0 1 1 465.19,186.79Z" style="fill:none;stroke:#000000;stroke-width:0.5" />
<path d="M466.03,189.26A2.5,2.5 0 1 1 461.03,189.26A2.5,2.5 0 1 1 466.03,189.26Z" style="fill:none;stroke:#000000;stroke-width:0.5" />
<path d="M466.87,191.74A2.5,2.5 0 1 1 461.87,191.74A2.5,2.5 0 1 1 466.87,191.74Z" style="fill:none;stroke:#000000;stroke-width:0.5" />
<path d="M467.72,194.21A2.5,2.5 0 1 1 462.72,194.21A2.5,2.5 0 1 1 467.72,194.21Z" style="fill:none;stroke:#000000;stroke-width:0.5" />
<path d="M468.56,196.11A2.5,2.5 0 1 1 463.56,196.11A2.5,2.5 0 1 1 468.56,196.11Z" style="fill:none;stroke:#000000;stroke-width:0.5" />
<path d="M469.41,199.17A2.5,2.5 0 1 1 464.41,199.17A2.5,2.5 0 1 1 469.41,199.17Z" style="fill:none;stroke:#000000;stroke-width:0.5" />
<path d="M470.25,201.64A2.5,2.5 0 1 1 465.25,201.64A2.5,2.5 0 1 1 470.25,201.64Z" style="fill:none;stroke:#000000;stroke-width:0.5" />
<path d="M471.09,204.12A2.5,2.5 0 1 1 466.09,204.12A2.5,2.5 0 1 1 471.09,204.12Z" style="fill:none;stroke:#000000;stroke-width:0.5" />
<path d="M471.94,206.59A2.5,2.5 0 1 1 466.94,206.59A2.5,2.5 0 1 1 471.94,206.59Z" style="fill:none;stroke:#000000;stroke-width:0.5" />
<path d="M472.78,209.07A2.5,2.5 0 1 1 467.78,209.07A2.5,2.5 0 1 1 472.78,209.07Z" style="fill:none;stroke:#000000;stroke-width:0.5" />
<path d="M473.62,210.31A2.5,2.5 0 1 1 468.62,210.31A2.5,2.5 0 1 1 473.62,210.31Z" style="fill:none;stroke:#000000;stroke-width:0.5" />
<path d="M474.47,214.02A2.5,2.5 0 1 1 469.47,214.02A2.5,2.5 0 1 1 474.47,214.02Z" style="fill:none;stroke:#000000;stroke-width:0.5" />
<path d="M475.31,215.26A2.5,2.5 0 1 1 470.31,215.26A2.5,2.5 0 1 1 475.31,215.26Z" style="fill:none;stroke:#000000;stroke-width:0.5" />
<path d="M476.16,217.73A2.5,2.5 0 1 1 471.16,217.73A2.5,2.5 0 1 1 476.16,217.73Z" style="fill:none;stroke:#000000;stroke-width:0.5" />
<path d="M477,218.97A2.5,2.5 0 1 1 472,218.97A2.5,2.5 0 1 1 477,218.97Z" style="fill:none;stroke:#000000;stroke-width:0.5" />
<path d="M477.84,222.69A2.5,2.5 0 1 1 472.84,222.69A2.5,2.5 0 1 1 477.84,222.69Z" style="fill:none;stroke:#000000;stroke-width:0.5" />
<path d="M478.69,223.92A2.5,2.5 0 1 1 473.69,223.92A2.5,2.5 0 1 1 478.69,223.92Z" style="fill:none;stroke:#000000;stroke-width:0.5" />
<path d="M479.53,225.16A2.5,2.5 0 1 1 474.53,225.16A2.5,2.5 0 1 1 479.53,225.16Z" style="fill:none;stroke:#000000;stroke-width:0.5" />
<path d="M480.37,227.64A2.5,2.5 0 1 1 475.37,227.64A2.5,2.5 0 1 1 480.37,227.64Z" style="fill:none;stroke:#000000;stroke-width:0.5" />
<path d="M481.22,230.11A2.5,2.5 0 1 1 476.22,230.11A2.5,2.5 0 1 1 481.22,230.11Z" style="fill:none;stroke:#000000;stroke-width:0.5" />
<path d="M482.06,231.35A2.5,2.5 0 1 1 477.06,231.35A2.5,2.5 0 1 1 482.06,231.35Z" style="fill:none;stroke:#000000;stroke-width:0.5" />
<path d="M482.91,233.83A2.5,2.5 0 1 1 477.91,233.83A2.5,2.5 0 1 1 482.91,233.83Z" style="fill:none;stroke:#000000;stroke-width:0.5" />
<path d="M483.75,236.3A2.5,2.5 0 1 1 478.75,236.3A2.5,2.5 0 1 1 483.75,236.3Z" style="fill:none;stroke:#000000;stroke-width:0.5" />
<path d="M484.59,237.54A2.5,2.5 0 1 1 479.59,237.54A2.5,2.5 0 1 1 484.59,237.54Z" style="fill:none;stroke:#000000;stroke-width:0.5" />
<path d="M485.44,240.02A2.5,2.5 0 1 1 480.44,240.02A2.5,2.5 0 1 1 485.44,240.02Z" style="fill:none;stroke:#000000;stroke-width:0.5" />
<path d="M486.28,241.26A2.5,2.5 0 1 1 481.28,241.26A2.5,2.5 0 1 1 486.28,241.26Z" style="fill:none;stroke:#000000;stroke-width:0.5" />
<path d="M487.12,241.91A2.5,2.5 0 1 1 482.12,241.91A2.5,2.5 0 1 1 487.12,241.91Z" style="fill:none;stroke:#000000;stroke-width:0.5" />
<path d="M487.97,243.73A2.5,2.5 0 1 1 482.97,243.73A2.5,2.5 0 1 1 487.97,243.73Z" style="fill:none;stroke:#000000;stroke-width:0.5" />
<path d="M488.81,246.21A2.5,2.5 0 1 1 483.81,246.21A2.5,2.5 0 1 1 488.81,246.21Z" style="fill:none;stroke:#000000;stroke-width:0.5" />
<path d="M489.66,247.45A2.5,2.5 0 1 1 484.66,247.45A2.5,2.5 0 1 1 489.66,247.45Z" style="fill:none;stroke:#000000;stroke-width:0.5" />
<path d="M490.5,249.92A2.5,2.5 0 1 1 485.5,249.92A2.5,2.5 0 1 1 490.5,249.92Z" style="fill:none;stroke:#000000;stroke-width:0.5" />
<path d="M491.34,251.16A2.5,2.5 0 1 1 486.34,251.16A2.5,2.5 0 1 1 491.34,251.16Z" style="fill:none;stroke:#000000;stroke-width:0.5" />
<path d="M492.19,252.4A2.5,2.5 0 1 1 487.19,252.4A2.5,2.5 0 1 1 492.19,252.4Z" style="fill:none;stroke:#000000;stroke-width:0.5" />
<path d="M493.03,254.88A2.5,2.5 0 1 1 488.03,254.88A2.5,2.5 0 1 1 493.03,254.88Z" style="fill:none;stroke:#000000;stroke-width:0.5" />
<path d="M493.87,256.11A2.5,2.5 0 1 1 488.87,256.11A2.5,2.5 0 1 1 493.87,256.11Z" style="fill:none;stroke:#000000;stroke-width:0.5" />
<path d="M494.72,257.35A2.5,2.5 0 1 1 489.72,257.35A2.5,2.5 0 1 1 494.72,257.35Z" style="fill:none;stroke:#000000;stroke-width:0.5" />
<path d="M495.56,258.59A2.5,2.5 0 1 1 490.56,258.59A2.5,2.5 0 1 1 495.56,258.59Z" style="fill:none;stroke:#000000;stroke-width:0.5" />
<path d="M496.41,259.83A2.5,2.5 0 1 1 491.41,259.83A2.5,2.5 0 1 1 496.41,259.83Z" style="fill:none;stroke:#000000;stroke-width:0.5" />
<path d="M497.25,262.3A2.5,2.5 0 1 1 492.25,262.3A2.5,2.5 0 1 1 497.25,262.3Z" style="fill:none;stroke:#000000;stroke-width:0.5" />
<path d="M498.09,263.54A2.5,2.5 0 1 1 493.09,263.54A2.5,2.5 0 1 1 498.09,263.54Z" style="fill:none;stroke:#000000;stroke-width:0.5" />
<path d="M498.94,263.54A2.5,2.5 0 1 1 493.94,263.54A2.5,2.5 0 1 1 498.94,263.54Z" style="fill:none;stroke:#000000;stroke-width:0.5" />
<path d="M499.78,266.02A2.5,2.5 0 1 1 494.78,266.02A2.5,2.5 0 1 1 499.78,266.02Z" style="fill:none;stroke:#000000;stroke-width:0.5" />
<path d="M500.62,267.26A2.5,2.5 0 1 1 495.62,267.26A2.5,2.5 0 1 1 500.62,267.26Z" style="fill:none;stroke:#000000;stroke-width:0.5" />
<path d="M501.47,268.5A2.5,2.5 0 1 1 496.47,268.5A2.5,2.5 0 1 1 501.47,268.5Z" style="fill:none;stroke:#000000;stroke-width:0.5" />
<path d="M502.31,269.73A2.5,2.5 0 1 1 497.31,269.73A2.5,2.5 0 1 1 502.31,269.73Z" style="fill:none;stroke:#000000;stroke-width:0.5" />
<path d="M503.16,270.97A2.5,2.5 0 1 1 498.16,270.97A2.5,2.5 0 1 1 503.16,270.97Z" style="fill:none;stroke:#000000;stroke-width:0.5" />
<path d="M504,272.21A2.5,2.5 0 1 1 499,272.21A2.5,2.5 0 1 1 504,272.21Z" style="fill:none;stroke:#000000;stroke-width:0.5" />
<path d="M80.465,256.16L81.309,256.16L82.152,256.16L82.996,254.33L83.84,254.33L84.684,253.1L85.527,251.86L86.371,250.62L87.215,249.38L88.059,248.14L88.902,246.9L89.746,245.67L90.59,244.43L91.434,241.95L92.277,240.71L93.121,239.47L93.965,237L94.809,234.52L95.652,232.04L96.496,230.81L97.34,229.57L98.184,225.85L99.028,224.62L99.871,222.14L100.72,220.9L101.56,217.19L102.4,214.71L103.25,212.23L104.09,210.34L104.93,207.86L105.78,205.39L106.62,202.91L107.47,200.44L108.31,196.72L109.15,195.48L110,191.77L110.84,189.29L111.68,186.82L112.53,184.34L113.37,181.86L114.22,178.15L115.06,175.67L115.9,173.2L116.75,170.72L117.59,168.24L118.43,164.53L119.28,163.29L120.12,159.58L120.97,157.1L121.81,154.62L122.65,152.15L123.5,149.67L124.34,147.19L125.18,145.96L126.03,143.48L126.87,141L127.72,138.53L128.56,137.29L129.4,134.81L130.25,133.57L131.09,130.51L131.93,128.04L132.78,126.8L133.62,125.56L134.47,124.32L135.31,121.85L136.15,121.85L137,120.61L137.84,118.13L138.68,118.13L139.53,115.66L140.37,114.42L141.22,114.42L142.06,113.18L142.9,111.94L143.75,113.18L144.59,110.7L145.43,111.94L146.28,110.7L147.12,109.47L147.97,110.7L148.81,109.47L149.65,109.47L150.5,111.29L151.34,111.29L152.18,110.05L153.03,111.29L153.87,111.29L154.72,111.29L155.56,112.53L156.4,113.77L157.25,113.77L158.09,113.77L158.93,115L159.78,115L160.62,116.24L161.47,117.48L162.31,118.72L163.15,118.72L164,119.96L164.84,121.19L165.68,122.43L166.53,123.67L167.37,123.67L168.22,124.91L169.06,126.15L169.9,127.38L170.75,127.38L171.59,129.86L172.43,129.86L173.28,131.1L174.12,133.58L174.97,133.58L175.81,134.81L176.65,136.05L177.5,137.29L178.34,138.53L179.18,138.53L180.03,139.77L180.87,141L181.72,142.24L182.56,142.24L183.4,144.72L184.25,144.72L185.09,144.72L185.93,144.72L186.78,145.96L187.62,145.96L188.47,148.43L189.31,148.43L190.15,148.43L191,148.43L191.84,148.43L192.68,149.67L193.53,148.43L194.37,148.43L195.22,149.67L196.06,149.67L196.9,148.43L197.75,148.43L198.59,148.43L199.43,148.43L200.28,147.19L201.12,147.19L201.97,145.95L202.81,145.95L203.65,145.95L204.5,143.48L205.34,143.48L206.18,142.24L207.03,141L207.87,141L208.72,139.76L209.56,138.52L210.4,136.05L211.25,136.05L212.09,134.81L212.93,133.57L213.78,131.09L214.62,130.51L215.47,128.03L216.31,126.79L217.15,125.56L218,124.32L218.84,123.08L219.68,120.6L220.53,118.13L221.37,116.89L222.22,114.41L223.06,113.17L223.9,111.94L224.75,110.7L225.59,109.46L226.43,106.98L227.28,105.74L228.12,103.27L228.97,100.79L229.81,99.553L230.65,98.315L231.5,95.838L232.34,93.946L233.19,92.708L234.03,91.47L234.87,90.232L235.72,87.755L236.56,86.517L237.4,84.041L238.25,82.802L239.09,80.326L239.94,79.088L240.78,79.088L241.62,77.849L242.47,75.373L243.31,74.135L244.15,72.897L245,71.659L245.84,70.42L246.69,69.182L247.53,67.944L248.37,66.706L249.22,65.468L250.06,64.23L250.9,64.23L251.75,62.992L252.59,61.754L253.44,60.515L254.28,60.515L255.12,58.039L255.97,58.039L256.81,58.039L257.65,56.217L258.5,56.217L259.34,56.217L260.19,54.979L261.03,54.325L261.87,54.325L262.72,54.326L263.56,54.326L264.4,54.326L265.25,54.326L266.09,54.326L266.94,54.326L267.78,54.326L268.62,54.326L269.47,54.326L270.31,54.326L271.15,54.327L272,54.327L272.84,55.565L273.69,55.565L274.53,55.565L275.37,56.803L276.22,56.803L277.06,56.219L277.9,56.219L278.75,57.457L279.59,58.695L280.44,59.28L281.28,59.28L282.12,60.518L282.97,60.518L283.81,61.757L284.65,62.995L285.5,62.995L286.34,64.233L287.19,64.233L288.03,65.471L288.87,66.709L289.72,66.709L290.56,67.947L291.4,69.185L292.25,70.423L293.09,70.424L293.94,71.662L294.78,72.9L295.62,74.138L296.47,74.138L297.31,74.791L298.15,74.791L299,76.029L299.84,76.029L300.69,78.505L301.53,79.743L302.37,79.743L303.22,80.981L304.06,82.219L304.9,83.457L305.75,84.041L306.59,85.279L307.44,86.517L308.28,86.517L309.12,87.754L309.97,87.754L310.81,88.992L311.65,88.992L312.5,90.23L313.34,90.229L314.19,91.467L315.03,92.705L315.87,92.704L316.72,93.942L317.56,95.18L318.4,95.18L319.25,96.417L320.09,95.179L320.94,96.417L321.78,96.416L322.62,97.654L323.47,97.654L324.31,97.653L325.15,98.891L326,98.89L326.84,99.544L327.69,99.543L328.53,100.78L329.37,99.542L330.22,99.542L331.06,100.78L331.9,100.78L332.75,100.78L333.59,101.36L334.44,101.36L335.28,101.36L336.12,101.36L336.97,101.36L337.81,101.36L338.65,100.12L339.5,100.12L340.34,100.12L341.19,100.12L342.03,100.12L342.87,100.12L343.72,98.882L344.56,100.12L345.4,98.297L346.25,97.643L347.09,97.642L347.94,97.642L348.78,96.403L349.62,95.165L350.47,95.165L351.31,93.926L352.15,93.926L353,92.688L353.84,91.45L354.69,90.211L355.53,90.211L356.37,90.211L357.22,87.734L358.06,87.734L358.9,86.496L359.75,86.496L360.59,84.02L361.44,84.02L362.28,82.781L363.12,81.543L363.97,80.89L364.81,79.652L365.65,78.413L366.5,77.175L367.34,75.937L368.19,75.937L369.03,73.461L369.87,71.639L370.72,70.401L371.56,69.163L372.41,69.163L373.25,66.687L374.09,65.449L374.94,64.211L375.78,62.973L376.62,62.974L377.47,61.736L378.31,60.498L379.16,58.022L380,58.022L380.84,55.546L381.69,55.547L382.53,54.309L383.37,53.071L384.22,51.833L385.06,50.596L385.91,50.596L386.75,48.774L387.59,48.121L388.44,48.121L389.28,45.645L390.12,45.646L390.97,45.646L391.81,44.408L392.66,44.409L393.5,44.409L394.34,43.171L395.19,43.172L396.03,43.172L396.87,41.35L397.72,41.351L398.56,41.351L399.41,40.113L400.25,41.936L401.09,41.937L401.94,40.699L402.78,41.937L403.62,40.7L404.47,41.938L405.31,41.939L406.16,43.177L407,42.593L407.84,43.831L408.69,42.593L409.53,45.07L410.37,45.07L411.22,46.309L412.06,46.309L412.91,47.547L413.75,48.786L414.59,50.024L415.44,51.262L416.28,52.5L417.12,53.739L417.97,54.977L418.81,57.453L419.66,57.453L420.5,59.93L421.34,61.168L422.19,63.644L423.03,64.882L423.87,67.358L424.72,68.597L425.56,71.073L426.41,73.549L427.25,76.025L428.09,77.263L428.94,79.739L429.78,82.215L430.62,83.453L431.47,85.929L432.31,88.405L433.16,90.881L434,93.357L434.84,95.833L435.69,98.309L436.53,102.02L437.37,103.26L438.22,106.98L439.06,108.8L439.91,112.51L440.75,114.99L441.59,117.46L442.44,121.18L443.28,122.41L444.12,126.13L444.97,128.6L445.81,131.08L446.66,134.21L447.5,136.69L448.34,139.16L449.19,141.64L450.03,145.35L450.87,147.83L451.72,150.89L452.56,154.6L453.41,157.08L454.25,160.79L455.09,163.27L455.94,165.74L456.78,168.22L457.62,170.69L458.47,173.17L459.31,175.65L460.16,179.36L461,180.6L461.84,184.31L462.69,186.79L463.53,189.26L464.37,191.74L465.22,194.21L466.06,196.11L466.91,199.17L467.75,201.64L468.59,204.12L469.44,206.59L470.28,209.07L471.12,210.31L471.97,214.02L472.81,215.26L473.66,217.73L474.5,218.97L475.34,222.69L476.19,223.92L477.03,225.16L477.87,227.64L478.72,230.11L479.56,231.35L480.41,233.83L481.25,236.3L482.09,237.54L482.94,240.02L483.78,241.26L484.62,241.91L485.47,243.73L486.31,246.21L487.16,247.45L488,249.92L488.84,251.16L489.69,252.4L490.53,254.88L491.37,256.11L492.22,257.35L493.06,258.59L493.91,259.83L494.75,262.3L495.59,263.54L496.44,263.54L497.28,266.02L498.12,267.26L498.97,268.5L499.81,269.73L500.66,270.97L501.5,272.21" style="fill:none;stroke:#000000" />
</g>
</svg>
