<?xml version="1.0"?>
<!-- Generated by SVGo and Plotinum VG -->
<svg width="504pt" height="288pt" viewBox="0 0 504 288"
	xmlns="http://www.w3.org/2000/svg"
	xmlns:xlink="http://www.w3.org/1999/xlink">
<g transform="scale(1, -1) translate(0, -288)">
<path d="M0,0L504,0L504,288L0,288Z" style="fill:#FFFFFF" />
<text x="156.79" y="-278.61" transform="scale(1, -1)"
	style="font-family:Liberation Serif;font-variant:normal;font-weight:normal;font-style:normal;font-size:12px">Filtered view of Curvature at TDP.\G07</text>
<text x="264.7" y="-3.9023" transform="scale(1, -1)"
	style="font-family:Liberation Serif;font-variant:normal;font-weight:normal;font-style:normal;font-size:12px">Time,s</text>
<text x="52.965" y="-16.541" transform="scale(1, -1)"
	style="font-family:Liberation Serif;font-variant:normal;font-weight:normal;font-style:normal;font-size:10px">500</text>
<text x="229.73" y="-16.541" transform="scale(1, -1)"
	style="font-family:Liberation Serif;font-variant:normal;font-weight:normal;font-style:normal;font-size:10px">520</text>
<text x="406.5" y="-16.541" transform="scale(1, -1)"
	style="font-family:Liberation Serif;font-variant:normal;font-weight:normal;font-style:normal;font-size:10px">540</text>
<path d="M60.465,24.363L60.465,32.363" style="fill:none;stroke:#000000;stroke-width:0.5" />
<path d="M237.23,24.363L237.23,32.363" style="fill:none;stroke:#000000;stroke-width:0.5" />
<path d="M414,24.363L414,32.363" style="fill:none;stroke:#000000;stroke-width:0.5" />
<path d="M148.85,28.363L148.85,32.363" style="fill:none;stroke:#000000;stroke-width:0.5" />
<path d="M325.62,28.363L325.62,32.363" style="fill:none;stroke:#000000;stroke-width:0.5" />
<path d="M60.465,32.363L501.5,32.363" style="fill:none;stroke:#000000;stroke-width:0.5" />
<g transform="rotate(90)">
<text x="119.84" y="9.3867" transform="scale(1, -1)"
	style="font-family:Liberation Serif;font-variant:normal;font-weight:normal;font-style:normal;font-size:12px">Curvature, 1/m</text>
</g>
<text x="16.256" y="-66.239" transform="scale(1, -1)"
	style="font-family:Liberation Serif;font-variant:normal;font-weight:normal;font-style:normal;font-size:10px">-0.011</text>
<text x="20.885" y="-125.99" transform="scale(1, -1)"
	style="font-family:Liberation Serif;font-variant:normal;font-weight:normal;font-style:normal;font-size:10px">-0.01</text>
<text x="15.885" y="-185.73" transform="scale(1, -1)"
	style="font-family:Liberation Serif;font-variant:normal;font-weight:normal;font-style:normal;font-size:10px">-0.009</text>
<text x="15.885" y="-245.48" transform="scale(1, -1)"
	style="font-family:Liberation Serif;font-variant:normal;font-weight:normal;font-style:normal;font-size:10px">-0.008</text>
<path d="M44.215,68.524L52.215,68.524" style="fill:none;stroke:#000000;stroke-width:0.5" />
<path d="M44.215,128.27L52.215,128.27" style="fill:none;stroke:#000000;stroke-width:0.5" />
<path d="M44.215,188.02L52.215,188.02" style="fill:none;stroke:#000000;stroke-width:0.5" />
<path d="M44.215,247.77L52.215,247.77" style="fill:none;stroke:#000000;stroke-width:0.5" />
<path d="M48.215,44.625L52.215,44.625" style="fill:none;stroke:#000000;stroke-width:0.5" />
<path d="M48.215,56.574L52.215,56.574" style="fill:none;stroke:#000000;stroke-width:0.5" />
<path d="M48.215,80.474L52.215,80.474" style="fill:none;stroke:#000000;stroke-width:0.5" />
<path d="M48.215,92.423L52.215,92.423" style="fill:none;stroke:#000000;stroke-width:0.5" />
<path d="M48.215,104.37L52.215,104.37" style="fill:none;stroke:#000000;stroke-width:0.5" />
<path d="M48.215,116.32L52.215,116.32" style="fill:none;stroke:#000000;stroke-width:0.5" />
<path d="M48.215,140.22L52.215,140.22" style="fill:none;stroke:#000000;stroke-width:0.5" />
<path d="M48.215,152.17L52.215,152.17" style="fill:none;stroke:#000000;stroke-width:0.5" />
<path d="M48.215,164.12L52.215,164.12" style="fill:none;stroke:#000000;stroke-width:0.5" />
<path d="M48.215,176.07L52.215,176.07" style="fill:none;stroke:#000000;stroke-width:0.5" />
<path d="M48.215,199.97L52.215,199.97" style="fill:none;stroke:#000000;stroke-width:0.5" />
<path d="M48.215,211.92L52.215,211.92" style="fill:none;stroke:#000000;stroke-width:0.5" />
<path d="M48.215,223.87L52.215,223.87" style="fill:none;stroke:#000000;stroke-width:0.5" />
<path d="M48.215,235.82L52.215,235.82" style="fill:none;stroke:#000000;stroke-width:0.5" />
<path d="M48.215,259.72L52.215,259.72" style="fill:none;stroke:#000000;stroke-width:0.5" />
<path d="M48.215,271.67L52.215,271.67" style="fill:none;stroke:#000000;stroke-width:0.5" />
<path d="M52.215,40.113L52.215,272.21" style="fill:none;stroke:#000000;stroke-width:0.5" />
<path d="M62.965,241.7A2.5,2.5 0 1 1 57.965,241.7A2.5,2.5 0 1 1 62.965,241.7Z" style="fill:none;stroke:#000000;stroke-width:0.5" />
<path d="M63.849,241.5A2.5,2.5 0 1 1 58.849,241.5A2.5,2.5 0 1 1 63.849,241.5Z" style="fill:none;stroke:#000000;stroke-width:0.5" />
<path d="M64.733,241.3A2.5,2.5 0 1 1 59.733,241.3A2.5,2.5 0 1 1 64.733,241.3Z" style="fill:none;stroke:#000000;stroke-width:0.5" />
<path d="M65.616,241.06A2.5,2.5 0 1 1 60.616,241.06A2.5,2.5 0 1 1 65.616,241.06Z" style="fill:none;stroke:#000000;stroke-width:0.5" />
<path d="M66.5,240.79A2.5,2.5 0 1 1 61.5,240.79A2.5,2.5 0 1 1 66.5,240.79Z" style="fill:none;stroke:#000000;stroke-width:0.5" />
<path d="M67.384,240.41A2.5,2.5 0 1 1 62.384,240.41A2.5,2.5 0 1 1 67.384,240.41Z" style="fill:none;stroke:#000000;stroke-width:0.5" />
<path d="M68.268,239.92A2.5,2.5 0 1 1 63.268,239.92A2.5,2.5 0 1 1 68.268,239.92Z" style="fill:none;stroke:#000000;stroke-width:0.5" />
<path d="M69.152,239.32A2.5,2.5 0 1 1 64.152,239.32A2.5,2.5 0 1 1 69.152,239.32Z" style="fill:none;stroke:#000000;stroke-width:0.5" />
<path d="M70.036,238.68A2.5,2.5 0 1 1 65.036,238.68A2.5,2.5 0 1 1 70.036,238.68Z" style="fill:none;stroke:#000000;stroke-width:0.5" />
<path d="M70.919,237.98A2.5,2.5 0 1 1 65.919,237.98A2.5,2.5 0 1 1 70.919,237.98Z" style="fill:none;stroke:#000000;stroke-width:0.5" />
<path d="M71.803,237.3A2.5,2.5 0 1 1 66.803,237.3A2.5,2.5 0 1 1 71.803,237.3Z" style="fill:none;stroke:#000000;stroke-width:0.5" />
<path d="M72.687,236.63A2.5,2.5 0 1 1 67.687,236.63A2.5,2.5 0 1 1 72.687,236.63Z" style="fill:none;stroke:#000000;stroke-width:0.5" />
<path d="M73.571,235.7A2.5,2.5 0 1 1 68.571,235.7A2.5,2.5 0 1 1 73.571,235.7Z" style="fill:none;stroke:#000000;stroke-width:0.5" />
<path d="M74.455,234.56A2.5,2.5 0 1 1 69.455,234.56A2.5,2.5 0 1 1 74.455,234.56Z" style="fill:none;stroke:#000000;stroke-width:0.5" />
<path d="M75.339,233.09A2.5,2.5 0 1 1 70.339,233.09A2.5,2.5 0 1 1 75.339,233.09Z" style="fill:none;stroke:#000000;stroke-width:0.5" />
<path d="M76.222,231.67A2.5,2.5 0 1 1 71.222,231.67A2.5,2.5 0 1 1 76.222,231.67Z" style="fill:none;stroke:#000000;stroke-width:0.5" />
<path d="M77.106,230.72A2.5,2.5 0 1 1 72.106,230.72A2.5,2.5 0 1 1 77.106,230.72Z" style="fill:none;stroke:#000000;stroke-width:0.5" />
<path d="M77.99,229.98A2.5,2.5 0 1 1 72.99,229.98A2.5,2.5 0 1 1 77.99,229.98Z" style="fill:none;stroke:#000000;stroke-width:0.5" />
<path d="M78.874,229.39A2.5,2.5 0 1 1 73.874,229.39A2.5,2.5 0 1 1 78.874,229.39Z" style="fill:none;stroke:#000000;stroke-width:0.5" />
<path d="M79.758,229.08A2.5,2.5 0 1 1 74.758,229.08A2.5,2.5 0 1 1 79.758,229.08Z" style="fill:none;stroke:#000000;stroke-width:0.5" />
<path d="M80.642,228.94A2.5,2.5 0 1 1 75.642,228.94A2.5,2.5 0 1 1 80.642,228.94Z" style="fill:none;stroke:#000000;stroke-width:0.5" />
<path d="M81.525,228.87A2.5,2.5 0 1 1 76.525,228.87A2.5,2.5 0 1 1 81.525,228.87Z" style="fill:none;stroke:#000000;stroke-width:0.5" />
<path d="M82.409,228.98A2.5,2.5 0 1 1 77.409,228.98A2.5,2.5 0 1 1 82.409,228.98Z" style="fill:none;stroke:#000000;stroke-width:0.5" />
<path d="M83.293,229.12A2.5,2.5 0 1 1 78.293,229.12A2.5,2.5 0 1 1 83.293,229.12Z" style="fill:none;stroke:#000000;stroke-width:0.5" />
<path d="M84.177,229.33A2.5,2.5 0 1 1 79.177,229.33A2.5,2.5 0 1 1 84.177,229.33Z" style="fill:none;stroke:#000000;stroke-width:0.5" />
<path d="M85.061,229.36A2.5,2.5 0 1 1 80.061,229.36A2.5,2.5 0 1 1 85.061,229.36Z" style="fill:none;stroke:#000000;stroke-width:0.5" />
<path d="M85.945,229.44A2.5,2.5 0 1 1 80.945,229.44A2.5,2.5 0 1 1 85.945,229.44Z" style="fill:none;stroke:#000000;stroke-width:0.5" />
<path d="M86.828,229.64A2.5,2.5 0 1 1 81.828,229.64A2.5,2.5 0 1 1 86.828,229.64Z" style="fill:none;stroke:#000000;stroke-width:0.5" />
<path d="M87.712,229.81A2.5,2.5 0 1 1 82.712,229.81A2.5,2.5 0 1 1 87.712,229.81Z" style="fill:none;stroke:#000000;stroke-width:0.5" />
<path d="M88.596,229.88A2.5,2.5 0 1 1 83.596,229.88A2.5,2.5 0 1 1 88.596,229.88Z" style="fill:none;stroke:#000000;stroke-width:0.5" />
<path d="M89.48,229.95A2.5,2.5 0 1 1 84.48,229.95A2.5,2.5 0 1 1 89.48,229.95Z" style="fill:none;stroke:#000000;stroke-width:0.5" />
<path d="M90.364,229.91A2.5,2.5 0 1 1 85.364,229.91A2.5,2.5 0 1 1 90.364,229.91Z" style="fill:none;stroke:#000000;stroke-width:0.5" />
<path d="M91.248,229.74A2.5,2.5 0 1 1 86.248,229.74A2.5,2.5 0 1 1 91.248,229.74Z" style="fill:none;stroke:#000000;stroke-width:0.5" />
<path d="M92.131,229.55A2.5,2.5 0 1 1 87.131,229.55A2.5,2.5 0 1 1 92.131,229.55Z" style="fill:none;stroke:#000000;stroke-width:0.5" />
<path d="M93.015,229.24A2.5,2.5 0 1 1 88.015,229.24A2.5,2.5 0 1 1 93.015,229.24Z" style="fill:none;stroke:#000000;stroke-width:0.5" />
<path d="M93.899,228.52A2.5,2.5 0 1 1 88.899,228.52A2.5,2.5 0 1 1 93.899,228.52Z" style="fill:none;stroke:#000000;stroke-width:0.5" />
<path d="M94.783,227.56A2.5,2.5 0 1 1 89.783,227.56A2.5,2.5 0 1 1 94.783,227.56Z" style="fill:none;stroke:#000000;stroke-width:0.5" />
<path d="M95.667,226.3A2.5,2.5 0 1 1 90.667,226.3A2.5,2.5 0 1 1 95.667,226.3Z" style="fill:none;stroke:#000000;stroke-width:0.5" />
<path d="M96.551,224.65A2.5,2.5 0 1 1 91.551,224.65A2.5,2.5 0 1 1 96.551,224.65Z" style="fill:none;stroke:#000000;stroke-width:0.5" />
<path d="M97.435,222.92A2.5,2.5 0 1 1 92.435,222.92A2.5,2.5 0 1 1 97.435,222.92Z" style="fill:none;stroke:#000000;stroke-width:0.5" />
<path d="M98.318,220.95A2.5,2.5 0 1 1 93.318,220.95A2.5,2.5 0 1 1 98.318,220.95Z" style="fill:none;stroke:#000000;stroke-width:0.5" />
<path d="M99.202,218.57A2.5,2.5 0 1 1 94.202,218.57A2.5,2.5 0 1 1 99.202,218.57Z" style="fill:none;stroke:#000000;stroke-width:0.5" />
<path d="M100.09,216.2A2.5,2.5 0 1 1 95.086,216.2A2.5,2.5 0 1 1 100.09,216.2Z" style="fill:none;stroke:#000000;stroke-width:0.5" />
<path d="M100.97,213.68A2.5,2.5 0 1 1 95.97,213.68A2.5,2.5 0 1 1 100.97,213.68Z" style="fill:none;stroke:#000000;stroke-width:0.5" />
<path d="M101.85,210.79A2.5,2.5 0 1 1 96.854,210.79A2.5,2.5 0 1 1 101.85,210.79Z" style="fill:none;stroke:#000000;stroke-width:0.5" />
<path d="M102.74,207.46A2.5,2.5 0 1 1 97.738,207.46A2.5,2.5 0 1 1 102.74,207.46Z" style="fill:none;stroke:#000000;stroke-width:0.5" />
<path d="M103.62,202.42A2.5,2.5 0 1 1 98.621,202.42A2.5,2.5 0 1 1 103.62,202.42Z" style="fill:none;stroke:#000000;stroke-width:0.5" />
<path d="M104.51,195.56A2.5,2.5 0 1 1 99.505,195.56A2.5,2.5 0 1 1 104.51,195.56Z" style="fill:none;stroke:#000000;stroke-width:0.5" />
<path d="M105.39,188.25A2.5,2.5 0 1 1 100.39,188.25A2.5,2.5 0 1 1 105.39,188.25Z" style="fill:none;stroke:#000000;stroke-width:0.5" />
<path d="M106.27,181.66A2.5,2.5 0 1 1 101.27,181.66A2.5,2.5 0 1 1 106.27,181.66Z" style="fill:none;stroke:#000000;stroke-width:0.5" />
<path d="M107.16,176.01A2.5,2.5 0 1 1 102.16,176.01A2.5,2.5 0 1 1 107.16,176.01Z" style="fill:none;stroke:#000000;stroke-width:0.5" />
<path d="M108.04,171.01A2.5,2.5 0 1 1 103.04,171.01A2.5,2.5 0 1 1 108.04,171.01Z" style="fill:none;stroke:#000000;stroke-width:0.5" />
<path d="M108.92,166.35A2.5,2.5 0 1 1 103.92,166.35A2.5,2.5 0 1 1 108.92,166.35Z" style="fill:none;stroke:#000000;stroke-width:0.5" />
<path d="M109.81,162A2.5,2.5 0 1 1 104.81,162A2.5,2.5 0 1 1 109.81,162Z" style="fill:none;stroke:#000000;stroke-width:0.5" />
<path d="M110.69,158.05A2.5,2.5 0 1 1 105.69,158.05A2.5,2.5 0 1 1 110.69,158.05Z" style="fill:none;stroke:#000000;stroke-width:0.5" />
<path d="M111.58,154.53A2.5,2.5 0 1 1 106.58,154.53A2.5,2.5 0 1 1 111.58,154.53Z" style="fill:none;stroke:#000000;stroke-width:0.5" />
<path d="M112.46,151.55A2.5,2.5 0 1 1 107.46,151.55A2.5,2.5 0 1 1 112.46,151.55Z" style="fill:none;stroke:#000000;stroke-width:0.5" />
<path d="M113.34,148.76A2.5,2.5 0 1 1 108.34,148.76A2.5,2.5 0 1 1 113.34,148.76Z" style="fill:none;stroke:#000000;stroke-width:0.5" />
<path d="M114.23,146.52A2.5,2.5 0 1 1 109.23,146.52A2.5,2.5 0 1 1 114.23,146.52Z" style="fill:none;stroke:#000000;stroke-width:0.5" />
<path d="M115.11,144.95A2.5,2.5 0 1 1 110.11,144.95A2.5,2.5 0 1 1 115.11,144.95Z" style="fill:none;stroke:#000000;stroke-width:0.5" />
<path d="M116,143.62A2.5,2.5 0 1 1 111,143.62A2.5,2.5 0 1 1 116,143.62Z" style="fill:none;stroke:#000000;stroke-width:0.5" />
<path d="M116.88,142.54A2.5,2.5 0 1 1 111.88,142.54A2.5,2.5 0 1 1 116.88,142.54Z" style="fill:none;stroke:#000000;stroke-width:0.5" />
<path d="M117.76,141.8A2.5,2.5 0 1 1 112.76,141.8A2.5,2.5 0 1 1 117.76,141.8Z" style="fill:none;stroke:#000000;stroke-width:0.5" />
<path d="M118.65,141.29A2.5,2.5 0 1 1 113.65,141.29A2.5,2.5 0 1 1 118.65,141.29Z" style="fill:none;stroke:#000000;stroke-width:0.5" />
<path d="M119.53,140.88A2.5,2.5 0 1 1 114.53,140.88A2.5,2.5 0 1 1 119.53,140.88Z" style="fill:none;stroke:#000000;stroke-width:0.5" />
<path d="M120.41,140.43A2.5,2.5 0 1 1 115.41,140.43A2.5,2.5 0 1 1 120.41,140.43Z" style="fill:none;stroke:#000000;stroke-width:0.5" />
<path d="M121.3,139.77A2.5,2.5 0 1 1 116.3,139.77A2.5,2.5 0 1 1 121.3,139.77Z" style="fill:none;stroke:#000000;stroke-width:0.5" />
<path d="M122.18,138.85A2.5,2.5 0 1 1 117.18,138.85A2.5,2.5 0 1 1 122.18,138.85Z" style="fill:none;stroke:#000000;stroke-width:0.5" />
<path d="M123.07,137.73A2.5,2.5 0 1 1 118.07,137.73A2.5,2.5 0 1 1 123.07,137.73Z" style="fill:none;stroke:#000000;stroke-width:0.5" />
<path d="M123.95,136.46A2.5,2.5 0 1 1 118.95,136.46A2.5,2.5 0 1 1 123.95,136.46Z" style="fill:none;stroke:#000000;stroke-width:0.5" />
<path d="M124.83,135.31A2.5,2.5 0 1 1 119.83,135.31A2.5,2.5 0 1 1 124.83,135.31Z" style="fill:none;stroke:#000000;stroke-width:0.5" />
<path d="M125.72,133.97A2.5,2.5 0 1 1 120.72,133.97A2.5,2.5 0 1 1 125.72,133.97Z" style="fill:none;stroke:#000000;stroke-width:0.5" />
<path d="M126.6,132.53A2.5,2.5 0 1 1 121.6,132.53A2.5,2.5 0 1 1 126.6,132.53Z" style="fill:none;stroke:#000000;stroke-width:0.5" />
<path d="M127.49,131.59A2.5,2.5 0 1 1 122.49,131.59A2.5,2.5 0 1 1 127.49,131.59Z" style="fill:none;stroke:#000000;stroke-width:0.5" />
<path d="M128.37,130.67A2.5,2.5 0 1 1 123.37,130.67A2.5,2.5 0 1 1 128.37,130.67Z" style="fill:none;stroke:#000000;stroke-width:0.5" />
<path d="M129.25,128.89A2.5,2.5 0 1 1 124.25,128.89A2.5,2.5 0 1 1 129.25,128.89Z" style="fill:none;stroke:#000000;stroke-width:0.5" />
<path d="M130.14,127.37A2.5,2.5 0 1 1 125.14,127.37A2.5,2.5 0 1 1 130.14,127.37Z" style="fill:none;stroke:#000000;stroke-width:0.5" />
<path d="M131.02,126.51A2.5,2.5 0 1 1 126.02,126.51A2.5,2.5 0 1 1 131.02,126.51Z" style="fill:none;stroke:#000000;stroke-width:0.5" />
<path d="M131.9,126.24A2.5,2.5 0 1 1 126.9,126.24A2.5,2.5 0 1 1 131.9,126.24Z" style="fill:none;stroke:#000000;stroke-width:0.5" />
<path d="M132.79,126.04A2.5,2.5 0 1 1 127.79,126.04A2.5,2.5 0 1 1 132.79,126.04Z" style="fill:none;stroke:#000000;stroke-width:0.5" />
<path d="M133.67,125.68A2.5,2.5 0 1 1 128.67,125.68A2.5,2.5 0 1 1 133.67,125.68Z" style="fill:none;stroke:#000000;stroke-width:0.5" />
<path d="M134.56,125.55A2.5,2.5 0 1 1 129.56,125.55A2.5,2.5 0 1 1 134.56,125.55Z" style="fill:none;stroke:#000000;stroke-width:0.5" />
<path d="M135.44,125.81A2.5,2.5 0 1 1 130.44,125.81A2.5,2.5 0 1 1 135.44,125.81Z" style="fill:none;stroke:#000000;stroke-width:0.5" />
<path d="M136.32,125.89A2.5,2.5 0 1 1 131.32,125.89A2.5,2.5 0 1 1 136.32,125.89Z" style="fill:none;stroke:#000000;stroke-width:0.5" />
<path d="M137.21,126A2.5,2.5 0 1 1 132.21,126A2.5,2.5 0 1 1 137.21,126Z" style="fill:none;stroke:#000000;stroke-width:0.5" />
<path d="M138.09,126.22A2.5,2.5 0 1 1 133.09,126.22A2.5,2.5 0 1 1 138.09,126.22Z" style="fill:none;stroke:#000000;stroke-width:0.5" />
<path d="M138.97,126.5A2.5,2.5 0 1 1 133.97,126.5A2.5,2.5 0 1 1 138.97,126.5Z" style="fill:none;stroke:#000000;stroke-width:0.5" />
<path d="M139.86,126.84A2.5,2.5 0 1 1 134.86,126.84A2.5,2.5 0 1 1 139.86,126.84Z" style="fill:none;stroke:#000000;stroke-width:0.5" />
<path d="M140.74,127.19A2.5,2.5 0 1 1 135.74,127.19A2.5,2.5 0 1 1 140.74,127.19Z" style="fill:none;stroke:#000000;stroke-width:0.5" />
<path d="M141.63,127.54A2.5,2.5 0 1 1 136.63,127.54A2.5,2.5 0 1 1 141.63,127.54Z" style="fill:none;stroke:#000000;stroke-width:0.5" />
<path d="M142.51,127.83A2.5,2.5 0 1 1 137.51,127.83A2.5,2.5 0 1 1 142.51,127.83Z" style="fill:none;stroke:#000000;stroke-width:0.5" />
<path d="M143.39,128.04A2.5,2.5 0 1 1 138.39,128.04A2.5,2.5 0 1 1 143.39,128.04Z" style="fill:none;stroke:#000000;stroke-width:0.5" />
<path d="M144.28,128.2A2.5,2.5 0 1 1 139.28,128.2A2.5,2.5 0 1 1 144.28,128.2Z" style="fill:none;stroke:#000000;stroke-width:0.5" />
<path d="M145.16,128.33A2.5,2.5 0 1 1 140.16,128.33A2.5,2.5 0 1 1 145.16,128.33Z" style="fill:none;stroke:#000000;stroke-width:0.5" />
<path d="M146.05,128.49A2.5,2.5 0 1 1 141.05,128.49A2.5,2.5 0 1 1 146.05,128.49Z" style="fill:none;stroke:#000000;stroke-width:0.5" />
<path d="M146.93,128.65A2.5,2.5 0 1 1 141.93,128.65A2.5,2.5 0 1 1 146.93,128.65Z" style="fill:none;stroke:#000000;stroke-width:0.5" />
<path d="M147.81,128.86A2.5,2.5 0 1 1 142.81,128.86A2.5,2.5 0 1 1 147.81,128.86Z" style="fill:none;stroke:#000000;stroke-width:0.5" />
<path d="M148.7,129.07A2.5,2.5 0 1 1 143.7,129.07A2.5,2.5 0 1 1 148.7,129.07Z" style="fill:none;stroke:#000000;stroke-width:0.5" />
<path d="M149.58,129.25A2.5,2.5 0 1 1 144.58,129.25A2.5,2.5 0 1 1 149.58,129.25Z" style="fill:none;stroke:#000000;stroke-width:0.5" />
<path d="M150.46,129.44A2.5,2.5 0 1 1 145.46,129.44A2.5,2.5 0 1 1 150.46,129.44Z" style="fill:none;stroke:#000000;stroke-width:0.5" />
<path d="M151.35,129.61A2.5,2.5 0 1 1 146.35,129.61A2.5,2.5 0 1 1 151.35,129.61Z" style="fill:none;stroke:#000000;stroke-width:0.5" />
<path d="M152.23,129.83A2.5,2.5 0 1 1 147.23,129.83A2.5,2.5 0 1 1 152.23,129.83Z" style="fill:none;stroke:#000000;stroke-width:0.5" />
<path d="M153.12,130.13A2.5,2.5 0 1 1 148.12,130.13A2.5,2.5 0 1 1 153.12,130.13Z" style="fill:none;stroke:#000000;stroke-width:0.5" />
<path d="M154,130.51A2.5,2.5 0 1 1 149,130.51A2.5,2.5 0 1 1 154,130.51Z" style="fill:none;stroke:#000000;stroke-width:0.5" />
<path d="M154.88,130.99A2.5,2.5 0 1 1 149.88,130.99A2.5,2.5 0 1 1 154.88,130.99Z" style="fill:none;stroke:#000000;stroke-width:0.5" />
<path d="M155.77,131.52A2.5,2.5 0 1 1 150.77,131.52A2.5,2.5 0 1 1 155.77,131.52Z" style="fill:none;stroke:#000000;stroke-width:0.5" />
<path d="M156.65,132.07A2.5,2.5 0 1 1 151.65,132.07A2.5,2.5 0 1 1 156.65,132.07Z" style="fill:none;stroke:#000000;stroke-width:0.5" />
<path d="M157.54,132.61A2.5,2.5 0 1 1 152.54,132.61A2.5,2.5 0 1 1 157.54,132.61Z" style="fill:none;stroke:#000000;stroke-width:0.5" />
<path d="M158.42,133.14A2.5,2.5 0 1 1 153.42,133.14A2.5,2.5 0 1 1 158.42,133.14Z" style="fill:none;stroke:#000000;stroke-width:0.5" />
<path d="M159.3,133.65A2.5,2.5 0 1 1 154.3,133.65A2.5,2.5 0 1 1 159.3,133.65Z" style="fill:none;stroke:#000000;stroke-width:0.5" />
<path d="M160.19,134.13A2.5,2.5 0 1 1 155.19,134.13A2.5,2.5 0 1 1 160.19,134.13Z" style="fill:none;stroke:#000000;stroke-width:0.5" />
<path d="M161.07,134.56A2.5,2.5 0 1 1 156.07,134.56A2.5,2.5 0 1 1 161.07,134.56Z" style="fill:none;stroke:#000000;stroke-width:0.5" />
<path d="M161.95,134.91A2.5,2.5 0 1 1 156.95,134.91A2.5,2.5 0 1 1 161.95,134.91Z" style="fill:none;stroke:#000000;stroke-width:0.5" />
<path d="M162.84,135.17A2.5,2.5 0 1 1 157.84,135.17A2.5,2.5 0 1 1 162.84,135.17Z" style="fill:none;stroke:#000000;stroke-width:0.5" />
<path d="M163.72,135.34A2.5,2.5 0 1 1 158.72,135.34A2.5,2.5 0 1 1 163.72,135.34Z" style="fill:none;stroke:#000000;stroke-width:0.5" />
<path d="M164.61,135.32A2.5,2.5 0 1 1 159.61,135.32A2.5,2.5 0 1 1 164.61,135.32Z" style="fill:none;stroke:#000000;stroke-width:0.5" />
<path d="M165.49,135.03A2.5,2.5 0 1 1 160.49,135.03A2.5,2.5 0 1 1 165.49,135.03Z" style="fill:none;stroke:#000000;stroke-width:0.5" />
<path d="M166.37,134.46A2.5,2.5 0 1 1 161.37,134.46A2.5,2.5 0 1 1 166.37,134.46Z" style="fill:none;stroke:#000000;stroke-width:0.5" />
<path d="M167.26,133.69A2.5,2.5 0 1 1 162.26,133.69A2.5,2.5 0 1 1 167.26,133.69Z" style="fill:none;stroke:#000000;stroke-width:0.5" />
<path d="M168.14,132.8A2.5,2.5 0 1 1 163.14,132.8A2.5,2.5 0 1 1 168.14,132.8Z" style="fill:none;stroke:#000000;stroke-width:0.5" />
<path d="M169.03,131.85A2.5,2.5 0 1 1 164.03,131.85A2.5,2.5 0 1 1 169.03,131.85Z" style="fill:none;stroke:#000000;stroke-width:0.5" />
<path d="M169.91,130.79A2.5,2.5 0 1 1 164.91,130.79A2.5,2.5 0 1 1 169.91,130.79Z" style="fill:none;stroke:#000000;stroke-width:0.5" />
<path d="M170.79,129.61A2.5,2.5 0 1 1 165.79,129.61A2.5,2.5 0 1 1 170.79,129.61Z" style="fill:none;stroke:#000000;stroke-width:0.5" />
<path d="M171.68,128.32A2.5,2.5 0 1 1 166.68,128.32A2.5,2.5 0 1 1 171.68,128.32Z" style="fill:none;stroke:#000000;stroke-width:0.5" />
<path d="M172.56,126.98A2.5,2.5 0 1 1 167.56,126.98A2.5,2.5 0 1 1 172.56,126.98Z" style="fill:none;stroke:#000000;stroke-width:0.5" />
<path d="M173.44,125.96A2.5,2.5 0 1 1 168.44,125.96A2.5,2.5 0 1 1 173.44,125.96Z" style="fill:none;stroke:#000000;stroke-width:0.5" />
<path d="M174.33,124.27A2.5,2.5 0 1 1 169.33,124.27A2.5,2.5 0 1 1 174.33,124.27Z" style="fill:none;stroke:#000000;stroke-width:0.5" />
<path d="M175.21,119.12A2.5,2.5 0 1 1 170.21,119.12A2.5,2.5 0 1 1 175.21,119.12Z" style="fill:none;stroke:#000000;stroke-width:0.5" />
<path d="M176.1,113.53A2.5,2.5 0 1 1 171.1,113.53A2.5,2.5 0 1 1 176.1,113.53Z" style="fill:none;stroke:#000000;stroke-width:0.5" />
<path d="M176.98,110.6A2.5,2.5 0 1 1 171.98,110.6A2.5,2.5 0 1 1 176.98,110.6Z" style="fill:none;stroke:#000000;stroke-width:0.5" />
<path d="M177.86,107.66A2.5,2.5 0 1 1 172.86,107.66A2.5,2.5 0 1 1 177.86,107.66Z" style="fill:none;stroke:#000000;stroke-width:0.5" />
<path d="M178.75,105.58A2.5,2.5 0 1 1 173.75,105.58A2.5,2.5 0 1 1 178.75,105.58Z" style="fill:none;stroke:#000000;stroke-width:0.5" />
<path d="M179.63,105.28A2.5,2.5 0 1 1 174.63,105.28A2.5,2.5 0 1 1 179.63,105.28Z" style="fill:none;stroke:#000000;stroke-width:0.5" />
<path d="M180.52,102.94A2.5,2.5 0 1 1 175.52,102.94A2.5,2.5 0 1 1 180.52,102.94Z" style="fill:none;stroke:#000000;stroke-width:0.5" />
<path d="M181.4,102.36A2.5,2.5 0 1 1 176.4,102.36A2.5,2.5 0 1 1 181.4,102.36Z" style="fill:none;stroke:#000000;stroke-width:0.5" />
<path d="M182.28,102.23A2.5,2.5 0 1 1 177.28,102.23A2.5,2.5 0 1 1 182.28,102.23Z" style="fill:none;stroke:#000000;stroke-width:0.5" />
<path d="M183.17,101.71A2.5,2.5 0 1 1 178.17,101.71A2.5,2.5 0 1 1 183.17,101.71Z" style="fill:none;stroke:#000000;stroke-width:0.5" />
<path d="M184.05,100.88A2.5,2.5 0 1 1 179.05,100.88A2.5,2.5 0 1 1 184.05,100.88Z" style="fill:none;stroke:#000000;stroke-width:0.5" />
<path d="M184.93,100.25A2.5,2.5 0 1 1 179.93,100.25A2.5,2.5 0 1 1 184.93,100.25Z" style="fill:none;stroke:#000000;stroke-width:0.5" />
<path d="M185.82,100.12A2.5,2.5 0 1 1 180.82,100.12A2.5,2.5 0 1 1 185.82,100.12Z" style="fill:none;stroke:#000000;stroke-width:0.5" />
<path d="M186.7,100.42A2.5,2.5 0 1 1 181.7,100.42A2.5,2.5 0 1 1 186.7,100.42Z" style="fill:none;stroke:#000000;stroke-width:0.5" />
<path d="M187.59,100.6A2.5,2.5 0 1 1 182.59,100.6A2.5,2.5 0 1 1 187.59,100.6Z" style="fill:none;stroke:#000000;stroke-width:0.5" />
<path d="M188.47,100.94A2.5,2.5 0 1 1 183.47,100.94A2.5,2.5 0 1 1 188.47,100.94Z" style="fill:none;stroke:#000000;stroke-width:0.5" />
<path d="M189.35,101.36A2.5,2.5 0 1 1 184.35,101.36A2.5,2.5 0 1 1 189.35,101.36Z" style="fill:none;stroke:#000000;stroke-width:0.5" />
<path d="M190.24,101.75A2.5,2.5 0 1 1 185.24,101.75A2.5,2.5 0 1 1 190.24,101.75Z" style="fill:none;stroke:#000000;stroke-width:0.5" />
<path d="M191.12,102.11A2.5,2.5 0 1 1 186.12,102.11A2.5,2.5 0 1 1 191.12,102.11Z" style="fill:none;stroke:#000000;stroke-width:0.5" />
<path d="M192.01,102.43A2.5,2.5 0 1 1 187.01,102.43A2.5,2.5 0 1 1 192.01,102.43Z" style="fill:none;stroke:#000000;stroke-width:0.5" />
<path d="M192.89,102.66A2.5,2.5 0 1 1 187.89,102.66A2.5,2.5 0 1 1 192.89,102.66Z" style="fill:none;stroke:#000000;stroke-width:0.5" />
<path d="M193.77,102.88A2.5,2.5 0 1 1 188.77,102.88A2.5,2.5 0 1 1 193.77,102.88Z" style="fill:none;stroke:#000000;stroke-width:0.5" />
<path d="M194.66,103.08A2.5,2.5 0 1 1 189.66,103.08A2.5,2.5 0 1 1 194.66,103.08Z" style="fill:none;stroke:#000000;stroke-width:0.5" />
<path d="M195.54,103.24A2.5,2.5 0 1 1 190.54,103.24A2.5,2.5 0 1 1 195.54,103.24Z" style="fill:none;stroke:#000000;stroke-width:0.5" />
<path d="M196.42,103.37A2.5,2.5 0 1 1 191.42,103.37A2.5,2.5 0 1 1 196.42,103.37Z" style="fill:none;stroke:#000000;stroke-width:0.5" />
<path d="M197.31,103.47A2.5,2.5 0 1 1 192.31,103.47A2.5,2.5 0 1 1 197.31,103.47Z" style="fill:none;stroke:#000000;stroke-width:0.5" />
<path d="M198.19,103.51A2.5,2.5 0 1 1 193.19,103.51A2.5,2.5 0 1 1 198.19,103.51Z" style="fill:none;stroke:#000000;stroke-width:0.5" />
<path d="M199.08,103.51A2.5,2.5 0 1 1 194.08,103.51A2.5,2.5 0 1 1 199.08,103.51Z" style="fill:none;stroke:#000000;stroke-width:0.5" />
<path d="M199.96,103.47A2.5,2.5 0 1 1 194.96,103.47A2.5,2.5 0 1 1 199.96,103.47Z" style="fill:none;stroke:#000000;stroke-width:0.5" />
<path d="M200.84,103.42A2.5,2.5 0 1 1 195.84,103.42A2.5,2.5 0 1 1 200.84,103.42Z" style="fill:none;stroke:#000000;stroke-width:0.5" />
<path d="M201.73,103.42A2.5,2.5 0 1 1 196.73,103.42A2.5,2.5 0 1 1 201.73,103.42Z" style="fill:none;stroke:#000000;stroke-width:0.5" />
<path d="M202.61,103.46A2.5,2.5 0 1 1 197.61,103.46A2.5,2.5 0 1 1 202.61,103.46Z" style="fill:none;stroke:#000000;stroke-width:0.5" />
<path d="M203.5,103.58A2.5,2.5 0 1 1 198.5,103.58A2.5,2.5 0 1 1 203.5,103.58Z" style="fill:none;stroke:#000000;stroke-width:0.5" />
<path d="M204.38,103.78A2.5,2.5 0 1 1 199.38,103.78A2.5,2.5 0 1 1 204.38,103.78Z" style="fill:none;stroke:#000000;stroke-width:0.5" />
<path d="M205.26,104.06A2.5,2.5 0 1 1 200.26,104.06A2.5,2.5 0 1 1 205.26,104.06Z" style="fill:none;stroke:#000000;stroke-width:0.5" />
<path d="M206.15,104.42A2.5,2.5 0 1 1 201.15,104.42A2.5,2.5 0 1 1 206.15,104.42Z" style="fill:none;stroke:#000000;stroke-width:0.5" />
<path d="M207.03,104.84A2.5,2.5 0 1 1 202.03,104.84A2.5,2.5 0 1 1 207.03,104.84Z" style="fill:none;stroke:#000000;stroke-width:0.5" />
<path d="M207.91,105.36A2.5,2.5 0 1 1 202.91,105.36A2.5,2.5 0 1 1 207.91,105.36Z" style="fill:none;stroke:#000000;stroke-width:0.5" />
<path d="M208.8,106A2.5,2.5 0 1 1 203.8,106A2.5,2.5 0 1 1 208.8,106Z" style="fill:none;stroke:#000000;stroke-width:0.5" />
<path d="M209.68,106.8A2.5,2.5 0 1 1 204.68,106.8A2.5,2.5 0 1 1 209.68,106.8Z" style="fill:none;stroke:#000000;stroke-width:0.5" />
<path d="M210.57,107.77A2.5,2.5 0 1 1 205.57,107.77A2.5,2.5 0 1 1 210.57,107.77Z" style="fill:none;stroke:#000000;stroke-width:0.5" />
<path d="M211.45,108.87A2.5,2.5 0 1 1 206.45,108.87A2.5,2.5 0 1 1 211.45,108.87Z" style="fill:none;stroke:#000000;stroke-width:0.5" />
<path d="M212.33,110.07A2.5,2.5 0 1 1 207.33,110.07A2.5,2.5 0 1 1 212.33,110.07Z" style="fill:none;stroke:#000000;stroke-width:0.5" />
<path d="M213.22,111.32A2.5,2.5 0 1 1 208.22,111.32A2.5,2.5 0 1 1 213.22,111.32Z" style="fill:none;stroke:#000000;stroke-width:0.5" />
<path d="M214.1,112.6A2.5,2.5 0 1 1 209.1,112.6A2.5,2.5 0 1 1 214.1,112.6Z" style="fill:none;stroke:#000000;stroke-width:0.5" />
<path d="M214.98,113.91A2.5,2.5 0 1 1 209.98,113.91A2.5,2.5 0 1 1 214.98,113.91Z" style="fill:none;stroke:#000000;stroke-width:0.5" />
<path d="M215.87,115.25A2.5,2.5 0 1 1 210.87,115.25A2.5,2.5 0 1 1 215.87,115.25Z" style="fill:none;stroke:#000000;stroke-width:0.5" />
<path d="M216.75,116.66A2.5,2.5 0 1 1 211.75,116.66A2.5,2.5 0 1 1 216.75,116.66Z" style="fill:none;stroke:#000000;stroke-width:0.5" />
<path d="M217.64,118.09A2.5,2.5 0 1 1 212.64,118.09A2.5,2.5 0 1 1 217.64,118.09Z" style="fill:none;stroke:#000000;stroke-width:0.5" />
<path d="M218.52,119.54A2.5,2.5 0 1 1 213.52,119.54A2.5,2.5 0 1 1 218.52,119.54Z" style="fill:none;stroke:#000000;stroke-width:0.5" />
<path d="M219.4,120.96A2.5,2.5 0 1 1 214.4,120.96A2.5,2.5 0 1 1 219.4,120.96Z" style="fill:none;stroke:#000000;stroke-width:0.5" />
<path d="M220.29,122.32A2.5,2.5 0 1 1 215.29,122.32A2.5,2.5 0 1 1 220.29,122.32Z" style="fill:none;stroke:#000000;stroke-width:0.5" />
<path d="M221.17,123.59A2.5,2.5 0 1 1 216.17,123.59A2.5,2.5 0 1 1 221.17,123.59Z" style="fill:none;stroke:#000000;stroke-width:0.5" />
<path d="M222.06,124.78A2.5,2.5 0 1 1 217.06,124.78A2.5,2.5 0 1 1 222.06,124.78Z" style="fill:none;stroke:#000000;stroke-width:0.5" />
<path d="M222.94,125.9A2.5,2.5 0 1 1 217.94,125.9A2.5,2.5 0 1 1 222.94,125.9Z" style="fill:none;stroke:#000000;stroke-width:0.5" />
<path d="M223.82,126.92A2.5,2.5 0 1 1 218.82,126.92A2.5,2.5 0 1 1 223.82,126.92Z" style="fill:none;stroke:#000000;stroke-width:0.5" />
<path d="M224.71,127.79A2.5,2.5 0 1 1 219.71,127.79A2.5,2.5 0 1 1 224.71,127.79Z" style="fill:none;stroke:#000000;stroke-width:0.5" />
<path d="M225.59,128.99A2.5,2.5 0 1 1 220.59,128.99A2.5,2.5 0 1 1 225.59,128.99Z" style="fill:none;stroke:#000000;stroke-width:0.5" />
<path d="M226.47,130.39A2.5,2.5 0 1 1 221.47,130.39A2.5,2.5 0 1 1 226.47,130.39Z" style="fill:none;stroke:#000000;stroke-width:0.5" />
<path d="M227.36,131.09A2.5,2.5 0 1 1 222.36,131.09A2.5,2.5 0 1 1 227.36,131.09Z" style="fill:none;stroke:#000000;stroke-width:0.5" />
<path d="M228.24,132.03A2.5,2.5 0 1 1 223.24,132.03A2.5,2.5 0 1 1 228.24,132.03Z" style="fill:none;stroke:#000000;stroke-width:0.5" />
<path d="M229.13,133.57A2.5,2.5 0 1 1 224.13,133.57A2.5,2.5 0 1 1 229.13,133.57Z" style="fill:none;stroke:#000000;stroke-width:0.5" />
<path d="M230.01,134.65A2.5,2.5 0 1 1 225.01,134.65A2.5,2.5 0 1 1 230.01,134.65Z" style="fill:none;stroke:#000000;stroke-width:0.5" />
<path d="M230.89,135.29A2.5,2.5 0 1 1 225.89,135.29A2.5,2.5 0 1 1 230.89,135.29Z" style="fill:none;stroke:#000000;stroke-width:0.5" />
<path d="M231.78,135.81A2.5,2.5 0 1 1 226.78,135.81A2.5,2.5 0 1 1 231.78,135.81Z" style="fill:none;stroke:#000000;stroke-width:0.5" />
<path d="M232.66,136.1A2.5,2.5 0 1 1 227.66,136.1A2.5,2.5 0 1 1 232.66,136.1Z" style="fill:none;stroke:#000000;stroke-width:0.5" />
<path d="M233.55,136.24A2.5,2.5 0 1 1 228.55,136.24A2.5,2.5 0 1 1 233.55,136.24Z" style="fill:none;stroke:#000000;stroke-width:0.5" />
<path d="M234.43,136.19A2.5,2.5 0 1 1 229.43,136.19A2.5,2.5 0 1 1 234.43,136.19Z" style="fill:none;stroke:#000000;stroke-width:0.5" />
<path d="M235.31,135.97A2.5,2.5 0 1 1 230.31,135.97A2.5,2.5 0 1 1 235.31,135.97Z" style="fill:none;stroke:#000000;stroke-width:0.5" />
<path d="M236.2,135.66A2.5,2.5 0 1 1 231.2,135.66A2.5,2.5 0 1 1 236.2,135.66Z" style="fill:none;stroke:#000000;stroke-width:0.5" />
<path d="M237.08,135.29A2.5,2.5 0 1 1 232.08,135.29A2.5,2.5 0 1 1 237.08,135.29Z" style="fill:none;stroke:#000000;stroke-width:0.5" />
<path d="M237.96,134.83A2.5,2.5 0 1 1 232.96,134.83A2.5,2.5 0 1 1 237.96,134.83Z" style="fill:none;stroke:#000000;stroke-width:0.5" />
<path d="M238.85,134.3A2.5,2.5 0 1 1 233.85,134.3A2.5,2.5 0 1 1 238.85,134.3Z" style="fill:none;stroke:#000000;stroke-width:0.5" />
<path d="M239.73,133.67A2.5,2.5 0 1 1 234.73,133.67A2.5,2.5 0 1 1 239.73,133.67Z" style="fill:none;stroke:#000000;stroke-width:0.5" />
<path d="M240.62,132.97A2.5,2.5 0 1 1 235.62,132.97A2.5,2.5 0 1 1 240.62,132.97Z" style="fill:none;stroke:#000000;stroke-width:0.5" />
<path d="M241.5,132.25A2.5,2.5 0 1 1 236.5,132.25A2.5,2.5 0 1 1 241.5,132.25Z" style="fill:none;stroke:#000000;stroke-width:0.5" />
<path d="M242.38,131.5A2.5,2.5 0 1 1 237.38,131.5A2.5,2.5 0 1 1 242.38,131.5Z" style="fill:none;stroke:#000000;stroke-width:0.5" />
<path d="M243.27,130.75A2.5,2.5 0 1 1 238.27,130.75A2.5,2.5 0 1 1 243.27,130.75Z" style="fill:none;stroke:#000000;stroke-width:0.5" />
<path d="M244.15,130.01A2.5,2.5 0 1 1 239.15,130.01A2.5,2.5 0 1 1 244.15,130.01Z" style="fill:none;stroke:#000000;stroke-width:0.5" />
<path d="M245.04,129.29A2.5,2.5 0 1 1 240.04,129.29A2.5,2.5 0 1 1 245.04,129.29Z" style="fill:none;stroke:#000000;stroke-width:0.5" />
<path d="M245.92,128.6A2.5,2.5 0 1 1 240.92,128.6A2.5,2.5 0 1 1 245.92,128.6Z" style="fill:none;stroke:#000000;stroke-width:0.5" />
<path d="M246.8,127.95A2.5,2.5 0 1 1 241.8,127.95A2.5,2.5 0 1 1 246.8,127.95Z" style="fill:none;stroke:#000000;stroke-width:0.5" />
<path d="M247.69,127.32A2.5,2.5 0 1 1 242.69,127.32A2.5,2.5 0 1 1 247.69,127.32Z" style="fill:none;stroke:#000000;stroke-width:0.5" />
<path d="M248.57,126.72A2.5,2.5 0 1 1 243.57,126.72A2.5,2.5 0 1 1 248.57,126.72Z" style="fill:none;stroke:#000000;stroke-width:0.5" />
<path d="M249.45,126.13A2.5,2.5 0 1 1 244.45,126.13A2.5,2.5 0 1 1 249.45,126.13Z" style="fill:none;stroke:#000000;stroke-width:0.5" />
<path d="M250.34,125.56A2.5,2.5 0 1 1 245.34,125.56A2.5,2.5 0 1 1 250.34,125.56Z" style="fill:none;stroke:#000000;stroke-width:0.5" />
<path d="M251.22,125A2.5,2.5 0 1 1 246.22,125A2.5,2.5 0 1 1 251.22,125Z" style="fill:none;stroke:#000000;stroke-width:0.5" />
<path d="M252.11,124.47A2.5,2.5 0 1 1 247.11,124.47A2.5,2.5 0 1 1 252.11,124.47Z" style="fill:none;stroke:#000000;stroke-width:0.5" />
<path d="M252.99,123.95A2.5,2.5 0 1 1 247.99,123.95A2.5,2.5 0 1 1 252.99,123.95Z" style="fill:none;stroke:#000000;stroke-width:0.5" />
<path d="M253.87,123.47A2.5,2.5 0 1 1 248.87,123.47A2.5,2.5 0 1 1 253.87,123.47Z" style="fill:none;stroke:#000000;stroke-width:0.5" />
<path d="M254.76,122.98A2.5,2.5 0 1 1 249.76,122.98A2.5,2.5 0 1 1 254.76,122.98Z" style="fill:none;stroke:#000000;stroke-width:0.5" />
<path d="M255.64,122.49A2.5,2.5 0 1 1 250.64,122.49A2.5,2.5 0 1 1 255.64,122.49Z" style="fill:none;stroke:#000000;stroke-width:0.5" />
<path d="M256.53,121.99A2.5,2.5 0 1 1 251.53,121.99A2.5,2.5 0 1 1 256.53,121.99Z" style="fill:none;stroke:#000000;stroke-width:0.5" />
<path d="M257.41,121.48A2.5,2.5 0 1 1 252.41,121.48A2.5,2.5 0 1 1 257.41,121.48Z" style="fill:none;stroke:#000000;stroke-width:0.5" />
<path d="M258.29,120.95A2.5,2.5 0 1 1 253.29,120.95A2.5,2.5 0 1 1 258.29,120.95Z" style="fill:none;stroke:#000000;stroke-width:0.5" />
<path d="M259.18,120.45A2.5,2.5 0 1 1 254.18,120.45A2.5,2.5 0 1 1 259.18,120.45Z" style="fill:none;stroke:#000000;stroke-width:0.5" />
<path d="M260.06,120.01A2.5,2.5 0 1 1 255.06,120.01A2.5,2.5 0 1 1 260.06,120.01Z" style="fill:none;stroke:#000000;stroke-width:0.5" />
<path d="M260.94,119.64A2.5,2.5 0 1 1 255.94,119.64A2.5,2.5 0 1 1 260.94,119.64Z" style="fill:none;stroke:#000000;stroke-width:0.5" />
<path d="M261.83,119.31A2.5,2.5 0 1 1 256.83,119.31A2.5,2.5 0 1 1 261.83,119.31Z" style="fill:none;stroke:#000000;stroke-width:0.5" />
<path d="M262.71,119.02A2.5,2.5 0 1 1 257.71,119.02A2.5,2.5 0 1 1 262.71,119.02Z" style="fill:none;stroke:#000000;stroke-width:0.5" />
<path d="M263.6,118.77A2.5,2.5 0 1 1 258.6,118.77A2.5,2.5 0 1 1 263.6,118.77Z" style="fill:none;stroke:#000000;stroke-width:0.5" />
<path d="M264.48,118.55A2.5,2.5 0 1 1 259.48,118.55A2.5,2.5 0 1 1 264.48,118.55Z" style="fill:none;stroke:#000000;stroke-width:0.5" />
<path d="M265.36,118.38A2.5,2.5 0 1 1 260.36,118.38A2.5,2.5 0 1 1 265.36,118.38Z" style="fill:none;stroke:#000000;stroke-width:0.5" />
<path d="M266.25,118.27A2.5,2.5 0 1 1 261.25,118.27A2.5,2.5 0 1 1 266.25,118.27Z" style="fill:none;stroke:#000000;stroke-width:0.5" />
<path d="M267.13,118.23A2.5,2.5 0 1 1 262.13,118.23A2.5,2.5 0 1 1 267.13,118.23Z" style="fill:none;stroke:#000000;stroke-width:0.5" />
<path d="M268.02,118.29A2.5,2.5 0 1 1 263.02,118.29A2.5,2.5 0 1 1 268.02,118.29Z" style="fill:none;stroke:#000000;stroke-width:0.5" />
<path d="M268.9,118.4A2.5,2.5 0 1 1 263.9,118.4A2.5,2.5 0 1 1 268.9,118.4Z" style="fill:none;stroke:#000000;stroke-width:0.5" />
<path d="M269.78,118.52A2.5,2.5 0 1 1 264.78,118.52A2.5,2.5 0 1 1 269.78,118.52Z" style="fill:none;stroke:#000000;stroke-width:0.5" />
<path d="M270.67,118.63A2.5,2.5 0 1 1 265.67,118.63A2.5,2.5 0 1 1 270.67,118.63Z" style="fill:none;stroke:#000000;stroke-width:0.5" />
<path d="M271.55,118.68A2.5,2.5 0 1 1 266.55,118.68A2.5,2.5 0 1 1 271.55,118.68Z" style="fill:none;stroke:#000000;stroke-width:0.5" />
<path d="M272.43,118.7A2.5,2.5 0 1 1 267.43,118.7A2.5,2.5 0 1 1 272.43,118.7Z" style="fill:none;stroke:#000000;stroke-width:0.5" />
<path d="M273.32,118.69A2.5,2.5 0 1 1 268.32,118.69A2.5,2.5 0 1 1 273.32,118.69Z" style="fill:none;stroke:#000000;stroke-width:0.5" />
<path d="M274.2,118.63A2.5,2.5 0 1 1 269.2,118.63A2.5,2.5 0 1 1 274.2,118.63Z" style="fill:none;stroke:#000000;stroke-width:0.5" />
<path d="M275.09,118.56A2.5,2.5 0 1 1 270.09,118.56A2.5,2.5 0 1 1 275.09,118.56Z" style="fill:none;stroke:#000000;stroke-width:0.5" />
<path d="M275.97,118.41A2.5,2.5 0 1 1 270.97,118.41A2.5,2.5 0 1 1 275.97,118.41Z" style="fill:none;stroke:#000000;stroke-width:0.5" />
<path d="M276.85,118.14A2.5,2.5 0 1 1 271.85,118.14A2.5,2.5 0 1 1 276.85,118.14Z" style="fill:none;stroke:#000000;stroke-width:0.5" />
<path d="M277.74,117.72A2.5,2.5 0 1 1 272.74,117.72A2.5,2.5 0 1 1 277.74,117.72Z" style="fill:none;stroke:#000000;stroke-width:0.5" />
<path d="M278.62,117.17A2.5,2.5 0 1 1 273.62,117.17A2.5,2.5 0 1 1 278.62,117.17Z" style="fill:none;stroke:#000000;stroke-width:0.5" />
<path d="M279.51,116.57A2.5,2.5 0 1 1 274.51,116.57A2.5,2.5 0 1 1 279.51,116.57Z" style="fill:none;stroke:#000000;stroke-width:0.5" />
<path d="M280.39,115.95A2.5,2.5 0 1 1 275.39,115.95A2.5,2.5 0 1 1 280.39,115.95Z" style="fill:none;stroke:#000000;stroke-width:0.5" />
<path d="M281.27,115.38A2.5,2.5 0 1 1 276.27,115.38A2.5,2.5 0 1 1 281.27,115.38Z" style="fill:none;stroke:#000000;stroke-width:0.5" />
<path d="M282.16,114.82A2.5,2.5 0 1 1 277.16,114.82A2.5,2.5 0 1 1 282.16,114.82Z" style="fill:none;stroke:#000000;stroke-width:0.5" />
<path d="M283.04,114.27A2.5,2.5 0 1 1 278.04,114.27A2.5,2.5 0 1 1 283.04,114.27Z" style="fill:none;stroke:#000000;stroke-width:0.5" />
<path d="M283.92,113.71A2.5,2.5 0 1 1 278.92,113.71A2.5,2.5 0 1 1 283.92,113.71Z" style="fill:none;stroke:#000000;stroke-width:0.5" />
<path d="M284.81,113.18A2.5,2.5 0 1 1 279.81,113.18A2.5,2.5 0 1 1 284.81,113.18Z" style="fill:none;stroke:#000000;stroke-width:0.5" />
<path d="M285.69,112.68A2.5,2.5 0 1 1 280.69,112.68A2.5,2.5 0 1 1 285.69,112.68Z" style="fill:none;stroke:#000000;stroke-width:0.5" />
<path d="M286.58,112.26A2.5,2.5 0 1 1 281.58,112.26A2.5,2.5 0 1 1 286.58,112.26Z" style="fill:none;stroke:#000000;stroke-width:0.5" />
<path d="M287.46,111.96A2.5,2.5 0 1 1 282.46,111.96A2.5,2.5 0 1 1 287.46,111.96Z" style="fill:none;stroke:#000000;stroke-width:0.5" />
<path d="M288.34,111.75A2.5,2.5 0 1 1 283.34,111.75A2.5,2.5 0 1 1 288.34,111.75Z" style="fill:none;stroke:#000000;stroke-width:0.5" />
<path d="M289.23,111.6A2.5,2.5 0 1 1 284.23,111.6A2.5,2.5 0 1 1 289.23,111.6Z" style="fill:none;stroke:#000000;stroke-width:0.5" />
<path d="M290.11,111.42A2.5,2.5 0 1 1 285.11,111.42A2.5,2.5 0 1 1 290.11,111.42Z" style="fill:none;stroke:#000000;stroke-width:0.5" />
<path d="M291,111.22A2.5,2.5 0 1 1 286,111.22A2.5,2.5 0 1 1 291,111.22Z" style="fill:none;stroke:#000000;stroke-width:0.5" />
<path d="M291.88,110.98A2.5,2.5 0 1 1 286.88,110.98A2.5,2.5 0 1 1 291.88,110.98Z" style="fill:none;stroke:#000000;stroke-width:0.5" />
<path d="M292.76,110.76A2.5,2.5 0 1 1 287.76,110.76A2.5,2.5 0 1 1 292.76,110.76Z" style="fill:none;stroke:#000000;stroke-width:0.5" />
<path d="M293.65,110.59A2.5,2.5 0 1 1 288.65,110.59A2.5,2.5 0 1 1 293.65,110.59Z" style="fill:none;stroke:#000000;stroke-width:0.5" />
<path d="M294.53,110.53A2.5,2.5 0 1 1 289.53,110.53A2.5,2.5 0 1 1 294.53,110.53Z" style="fill:none;stroke:#000000;stroke-width:0.5" />
<path d="M295.41,110.59A2.5,2.5 0 1 1 290.41,110.59A2.5,2.5 0 1 1 295.41,110.59Z" style="fill:none;stroke:#000000;stroke-width:0.5" />
<path d="M296.3,110.73A2.5,2.5 0 1 1 291.3,110.73A2.5,2.5 0 1 1 296.3,110.73Z" style="fill:none;stroke:#000000;stroke-width:0.5" />
<path d="M297.18,110.9A2.5,2.5 0 1 1 292.18,110.9A2.5,2.5 0 1 1 297.18,110.9Z" style="fill:none;stroke:#000000;stroke-width:0.5" />
<path d="M298.07,111.06A2.5,2.5 0 1 1 293.07,111.06A2.5,2.5 0 1 1 298.07,111.06Z" style="fill:none;stroke:#000000;stroke-width:0.5" />
<path d="M298.95,111.26A2.5,2.5 0 1 1 293.95,111.26A2.5,2.5 0 1 1 298.95,111.26Z" style="fill:none;stroke:#000000;stroke-width:0.5" />
<path d="M299.83,111.63A2.5,2.5 0 1 1 294.83,111.63A2.5,2.5 0 1 1 299.83,111.63Z" style="fill:none;stroke:#000000;stroke-width:0.5" />
<path d="M300.72,112.08A2.5,2.5 0 1 1 295.72,112.08A2.5,2.5 0 1 1 300.72,112.08Z" style="fill:none;stroke:#000000;stroke-width:0.5" />
<path d="M301.6,112.49A2.5,2.5 0 1 1 296.6,112.49A2.5,2.5 0 1 1 301.6,112.49Z" style="fill:none;stroke:#000000;stroke-width:0.5" />
<path d="M302.48,112.88A2.5,2.5 0 1 1 297.48,112.88A2.5,2.5 0 1 1 302.48,112.88Z" style="fill:none;stroke:#000000;stroke-width:0.5" />
<path d="M303.37,113.26A2.5,2.5 0 1 1 298.37,113.26A2.5,2.5 0 1 1 303.37,113.26Z" style="fill:none;stroke:#000000;stroke-width:0.5" />
<path d="M304.25,113.42A2.5,2.5 0 1 1 299.25,113.42A2.5,2.5 0 1 1 304.25,113.42Z" style="fill:none;stroke:#000000;stroke-width:0.5" />
<path d="M305.14,113.2A2.5,2.5 0 1 1 300.14,113.2A2.5,2.5 0 1 1 305.14,113.2Z" style="fill:none;stroke:#000000;stroke-width:0.5" />
<path d="M306.02,112.56A2.5,2.5 0 1 1 301.02,112.56A2.5,2.5 0 1 1 306.02,112.56Z" style="fill:none;stroke:#000000;stroke-width:0.5" />
<path d="M306.9,111.56A2.5,2.5 0 1 1 301.9,111.56A2.5,2.5 0 1 1 306.9,111.56Z" style="fill:none;stroke:#000000;stroke-width:0.5" />
<path d="M307.79,110.41A2.5,2.5 0 1 1 302.79,110.41A2.5,2.5 0 1 1 307.79,110.41Z" style="fill:none;stroke:#000000;stroke-width:0.5" />
<path d="M308.67,109.15A2.5,2.5 0 1 1 303.67,109.15A2.5,2.5 0 1 1 308.67,109.15Z" style="fill:none;stroke:#000000;stroke-width:0.5" />
<path d="M309.56,107.85A2.5,2.5 0 1 1 304.56,107.85A2.5,2.5 0 1 1 309.56,107.85Z" style="fill:none;stroke:#000000;stroke-width:0.5" />
<path d="M310.44,105.63A2.5,2.5 0 1 1 305.44,105.63A2.5,2.5 0 1 1 310.44,105.63Z" style="fill:none;stroke:#000000;stroke-width:0.5" />
<path d="M311.32,101.81A2.5,2.5 0 1 1 306.32,101.81A2.5,2.5 0 1 1 311.32,101.81Z" style="fill:none;stroke:#000000;stroke-width:0.5" />
<path d="M312.21,94.82A2.5,2.5 0 1 1 307.21,94.82A2.5,2.5 0 1 1 312.21,94.82Z" style="fill:none;stroke:#000000;stroke-width:0.5" />
<path d="M313.09,84.709A2.5,2.5 0 1 1 308.09,84.709A2.5,2.5 0 1 1 313.09,84.709Z" style="fill:none;stroke:#000000;stroke-width:0.5" />
<path d="M313.97,77.739A2.5,2.5 0 1 1 308.97,77.739A2.5,2.5 0 1 1 313.97,77.739Z" style="fill:none;stroke:#000000;stroke-width:0.5" />
<path d="M314.86,73.427A2.5,2.5 0 1 1 309.86,73.427A2.5,2.5 0 1 1 314.86,73.427Z" style="fill:none;stroke:#000000;stroke-width:0.5" />
<path d="M315.74,67.669A2.5,2.5 0 1 1 310.74,67.669A2.5,2.5 0 1 1 315.74,67.669Z" style="fill:none;stroke:#000000;stroke-width:0.5" />
<path d="M316.63,63.639A2.5,2.5 0 1 1 311.63,63.639A2.5,2.5 0 1 1 316.63,63.639Z" style="fill:none;stroke:#000000;stroke-width:0.5" />
<path d="M317.51,59.916A2.5,2.5 0 1 1 312.51,59.916A2.5,2.5 0 1 1 317.51,59.916Z" style="fill:none;stroke:#000000;stroke-width:0.5" />
<path d="M318.39,53.817A2.5,2.5 0 1 1 313.39,53.817A2.5,2.5 0 1 1 318.39,53.817Z" style="fill:none;stroke:#000000;stroke-width:0.5" />
<path d="M319.28,50.029A2.5,2.5 0 1 1 314.28,50.029A2.5,2.5 0 1 1 319.28,50.029Z" style="fill:none;stroke:#000000;stroke-width:0.5" />
<path d="M320.16,48.231A2.5,2.5 0 1 1 315.16,48.231A2.5,2.5 0 1 1 320.16,48.231Z" style="fill:none;stroke:#000000;stroke-width:0.5" />
<path d="M321.05,45.986A2.5,2.5 0 1 1 316.05,45.986A2.5,2.5 0 1 1 321.05,45.986Z" style="fill:none;stroke:#000000;stroke-width:0.5" />
<path d="M321.93,44.388A2.5,2.5 0 1 1 316.93,44.388A2.5,2.5 0 1 1 321.93,44.388Z" style="fill:none;stroke:#000000;stroke-width:0.5" />
<path d="M322.81,43.8A2.5,2.5 0 1 1 317.81,43.8A2.5,2.5 0 1 1 322.81,43.8Z" style="fill:none;stroke:#000000;stroke-width:0.5" />
<path d="M323.7,43.435A2.5,2.5 0 1 1 318.7,43.435A2.5,2.5 0 1 1 323.7,43.435Z" style="fill:none;stroke:#000000;stroke-width:0.5" />
<path d="M324.58,43.607A2.5,2.5 0 1 1 319.58,43.607A2.5,2.5 0 1 1 324.58,43.607Z" style="fill:none;stroke:#000000;stroke-width:0.5" />
<path d="M325.46,43.759A2.5,2.5 0 1 1 320.46,43.759A2.5,2.5 0 1 1 325.46,43.759Z" style="fill:none;stroke:#000000;stroke-width:0.5" />
<path d="M326.35,43.877A2.5,2.5 0 1 1 321.35,43.877A2.5,2.5 0 1 1 326.35,43.877Z" style="fill:none;stroke:#000000;stroke-width:0.5" />
<path d="M327.23,44.008A2.5,2.5 0 1 1 322.23,44.008A2.5,2.5 0 1 1 327.23,44.008Z" style="fill:none;stroke:#000000;stroke-width:0.5" />
<path d="M328.12,44.236A2.5,2.5 0 1 1 323.12,44.236A2.5,2.5 0 1 1 328.12,44.236Z" style="fill:none;stroke:#000000;stroke-width:0.5" />
<path d="M329,44.584A2.5,2.5 0 1 1 324,44.584A2.5,2.5 0 1 1 329,44.584Z" style="fill:none;stroke:#000000;stroke-width:0.5" />
<path d="M329.88,45.049A2.5,2.5 0 1 1 324.88,45.049A2.5,2.5 0 1 1 329.88,45.049Z" style="fill:none;stroke:#000000;stroke-width:0.5" />
<path d="M330.77,45.807A2.5,2.5 0 1 1 325.77,45.807A2.5,2.5 0 1 1 330.77,45.807Z" style="fill:none;stroke:#000000;stroke-width:0.5" />
<path d="M331.65,46.593A2.5,2.5 0 1 1 326.65,46.593A2.5,2.5 0 1 1 331.65,46.593Z" style="fill:none;stroke:#000000;stroke-width:0.5" />
<path d="M332.54,47.248A2.5,2.5 0 1 1 327.54,47.248A2.5,2.5 0 1 1 332.54,47.248Z" style="fill:none;stroke:#000000;stroke-width:0.5" />
<path d="M333.42,47.765A2.5,2.5 0 1 1 328.42,47.765A2.5,2.5 0 1 1 333.42,47.765Z" style="fill:none;stroke:#000000;stroke-width:0.5" />
<path d="M334.3,48.133A2.5,2.5 0 1 1 329.3,48.133A2.5,2.5 0 1 1 334.3,48.133Z" style="fill:none;stroke:#000000;stroke-width:0.5" />
<path d="M335.19,48.347A2.5,2.5 0 1 1 330.19,48.347A2.5,2.5 0 1 1 335.19,48.347Z" style="fill:none;stroke:#000000;stroke-width:0.5" />
<path d="M336.07,48.461A2.5,2.5 0 1 1 331.07,48.461A2.5,2.5 0 1 1 336.07,48.461Z" style="fill:none;stroke:#000000;stroke-width:0.5" />
<path d="M336.95,48.53A2.5,2.5 0 1 1 331.95,48.53A2.5,2.5 0 1 1 336.95,48.53Z" style="fill:none;stroke:#000000;stroke-width:0.5" />
<path d="M337.84,48.519A2.5,2.5 0 1 1 332.84,48.519A2.5,2.5 0 1 1 337.84,48.519Z" style="fill:none;stroke:#000000;stroke-width:0.5" />
<path d="M338.72,48.371A2.5,2.5 0 1 1 333.72,48.371A2.5,2.5 0 1 1 338.72,48.371Z" style="fill:none;stroke:#000000;stroke-width:0.5" />
<path d="M339.61,48.133A2.5,2.5 0 1 1 334.61,48.133A2.5,2.5 0 1 1 339.61,48.133Z" style="fill:none;stroke:#000000;stroke-width:0.5" />
<path d="M340.49,47.861A2.5,2.5 0 1 1 335.49,47.861A2.5,2.5 0 1 1 340.49,47.861Z" style="fill:none;stroke:#000000;stroke-width:0.5" />
<path d="M341.37,47.478A2.5,2.5 0 1 1 336.37,47.478A2.5,2.5 0 1 1 341.37,47.478Z" style="fill:none;stroke:#000000;stroke-width:0.5" />
<path d="M342.26,47.175A2.5,2.5 0 1 1 337.26,47.175A2.5,2.5 0 1 1 342.26,47.175Z" style="fill:none;stroke:#000000;stroke-width:0.5" />
<path d="M343.14,46.93A2.5,2.5 0 1 1 338.14,46.93A2.5,2.5 0 1 1 343.14,46.93Z" style="fill:none;stroke:#000000;stroke-width:0.5" />
<path d="M344.03,46.723A2.5,2.5 0 1 1 339.03,46.723A2.5,2.5 0 1 1 344.03,46.723Z" style="fill:none;stroke:#000000;stroke-width:0.5" />
<path d="M344.91,46.684A2.5,2.5 0 1 1 339.91,46.684A2.5,2.5 0 1 1 344.91,46.684Z" style="fill:none;stroke:#000000;stroke-width:0.5" />
<path d="M345.79,46.798A2.5,2.5 0 1 1 340.79,46.798A2.5,2.5 0 1 1 345.79,46.798Z" style="fill:none;stroke:#000000;stroke-width:0.5" />
<path d="M346.68,47.035A2.5,2.5 0 1 1 341.68,47.035A2.5,2.5 0 1 1 346.68,47.035Z" style="fill:none;stroke:#000000;stroke-width:0.5" />
<path d="M347.56,47.321A2.5,2.5 0 1 1 342.56,47.321A2.5,2.5 0 1 1 347.56,47.321Z" style="fill:none;stroke:#000000;stroke-width:0.5" />
<path d="M348.44,47.638A2.5,2.5 0 1 1 343.44,47.638A2.5,2.5 0 1 1 348.44,47.638Z" style="fill:none;stroke:#000000;stroke-width:0.5" />
<path d="M349.33,47.934A2.5,2.5 0 1 1 344.33,47.934A2.5,2.5 0 1 1 349.33,47.934Z" style="fill:none;stroke:#000000;stroke-width:0.5" />
<path d="M350.21,48.22A2.5,2.5 0 1 1 345.21,48.22A2.5,2.5 0 1 1 350.21,48.22Z" style="fill:none;stroke:#000000;stroke-width:0.5" />
<path d="M351.1,48.51A2.5,2.5 0 1 1 346.1,48.51A2.5,2.5 0 1 1 351.1,48.51Z" style="fill:none;stroke:#000000;stroke-width:0.5" />
<path d="M351.98,48.789A2.5,2.5 0 1 1 346.98,48.789A2.5,2.5 0 1 1 351.98,48.789Z" style="fill:none;stroke:#000000;stroke-width:0.5" />
<path d="M352.86,49.051A2.5,2.5 0 1 1 347.86,49.051A2.5,2.5 0 1 1 352.86,49.051Z" style="fill:none;stroke:#000000;stroke-width:0.5" />
<path d="M353.75,49.262A2.5,2.5 0 1 1 348.75,49.262A2.5,2.5 0 1 1 353.75,49.262Z" style="fill:none;stroke:#000000;stroke-width:0.5" />
<path d="M354.63,49.386A2.5,2.5 0 1 1 349.63,49.386A2.5,2.5 0 1 1 354.63,49.386Z" style="fill:none;stroke:#000000;stroke-width:0.5" />
<path d="M355.52,49.421A2.5,2.5 0 1 1 350.52,49.421A2.5,2.5 0 1 1 355.52,49.421Z" style="fill:none;stroke:#000000;stroke-width:0.5" />
<path d="M356.4,49.373A2.5,2.5 0 1 1 351.4,49.373A2.5,2.5 0 1 1 356.4,49.373Z" style="fill:none;stroke:#000000;stroke-width:0.5" />
<path d="M357.28,49.294A2.5,2.5 0 1 1 352.28,49.294A2.5,2.5 0 1 1 357.28,49.294Z" style="fill:none;stroke:#000000;stroke-width:0.5" />
<path d="M358.17,49.212A2.5,2.5 0 1 1 353.17,49.212A2.5,2.5 0 1 1 358.17,49.212Z" style="fill:none;stroke:#000000;stroke-width:0.5" />
<path d="M359.05,49.129A2.5,2.5 0 1 1 354.05,49.129A2.5,2.5 0 1 1 359.05,49.129Z" style="fill:none;stroke:#000000;stroke-width:0.5" />
<path d="M359.93,49.036A2.5,2.5 0 1 1 354.93,49.036A2.5,2.5 0 1 1 359.93,49.036Z" style="fill:none;stroke:#000000;stroke-width:0.5" />
<path d="M360.82,48.913A2.5,2.5 0 1 1 355.82,48.913A2.5,2.5 0 1 1 360.82,48.913Z" style="fill:none;stroke:#000000;stroke-width:0.5" />
<path d="M361.7,48.778A2.5,2.5 0 1 1 356.7,48.778A2.5,2.5 0 1 1 361.7,48.778Z" style="fill:none;stroke:#000000;stroke-width:0.5" />
<path d="M362.59,48.641A2.5,2.5 0 1 1 357.59,48.641A2.5,2.5 0 1 1 362.59,48.641Z" style="fill:none;stroke:#000000;stroke-width:0.5" />
<path d="M363.47,48.479A2.5,2.5 0 1 1 358.47,48.479A2.5,2.5 0 1 1 363.47,48.479Z" style="fill:none;stroke:#000000;stroke-width:0.5" />
<path d="M364.35,48.303A2.5,2.5 0 1 1 359.35,48.303A2.5,2.5 0 1 1 364.35,48.303Z" style="fill:none;stroke:#000000;stroke-width:0.5" />
<path d="M365.24,48.093A2.5,2.5 0 1 1 360.24,48.093A2.5,2.5 0 1 1 365.24,48.093Z" style="fill:none;stroke:#000000;stroke-width:0.5" />
<path d="M366.12,47.962A2.5,2.5 0 1 1 361.12,47.962A2.5,2.5 0 1 1 366.12,47.962Z" style="fill:none;stroke:#000000;stroke-width:0.5" />
<path d="M367.01,48.014A2.5,2.5 0 1 1 362.01,48.014A2.5,2.5 0 1 1 367.01,48.014Z" style="fill:none;stroke:#000000;stroke-width:0.5" />
<path d="M367.89,48.134A2.5,2.5 0 1 1 362.89,48.134A2.5,2.5 0 1 1 367.89,48.134Z" style="fill:none;stroke:#000000;stroke-width:0.5" />
<path d="M368.77,48.223A2.5,2.5 0 1 1 363.77,48.223A2.5,2.5 0 1 1 368.77,48.223Z" style="fill:none;stroke:#000000;stroke-width:0.5" />
<path d="M369.66,48.25A2.5,2.5 0 1 1 364.66,48.25A2.5,2.5 0 1 1 369.66,48.25Z" style="fill:none;stroke:#000000;stroke-width:0.5" />
<path d="M370.54,48.229A2.5,2.5 0 1 1 365.54,48.229A2.5,2.5 0 1 1 370.54,48.229Z" style="fill:none;stroke:#000000;stroke-width:0.5" />
<path d="M371.42,48.146A2.5,2.5 0 1 1 366.42,48.146A2.5,2.5 0 1 1 371.42,48.146Z" style="fill:none;stroke:#000000;stroke-width:0.5" />
<path d="M372.31,47.959A2.5,2.5 0 1 1 367.31,47.959A2.5,2.5 0 1 1 372.31,47.959Z" style="fill:none;stroke:#000000;stroke-width:0.5" />
<path d="M373.19,47.659A2.5,2.5 0 1 1 368.19,47.659A2.5,2.5 0 1 1 373.19,47.659Z" style="fill:none;stroke:#000000;stroke-width:0.5" />
<path d="M374.08,47.249A2.5,2.5 0 1 1 369.08,47.249A2.5,2.5 0 1 1 374.08,47.249Z" style="fill:none;stroke:#000000;stroke-width:0.5" />
<path d="M374.96,46.721A2.5,2.5 0 1 1 369.96,46.721A2.5,2.5 0 1 1 374.96,46.721Z" style="fill:none;stroke:#000000;stroke-width:0.5" />
<path d="M375.84,46.18A2.5,2.5 0 1 1 370.84,46.18A2.5,2.5 0 1 1 375.84,46.18Z" style="fill:none;stroke:#000000;stroke-width:0.5" />
<path d="M376.73,45.542A2.5,2.5 0 1 1 371.73,45.542A2.5,2.5 0 1 1 376.73,45.542Z" style="fill:none;stroke:#000000;stroke-width:0.5" />
<path d="M377.61,45.025A2.5,2.5 0 1 1 372.61,45.025A2.5,2.5 0 1 1 377.61,45.025Z" style="fill:none;stroke:#000000;stroke-width:0.5" />
<path d="M378.5,44.518A2.5,2.5 0 1 1 373.5,44.518A2.5,2.5 0 1 1 378.5,44.518Z" style="fill:none;stroke:#000000;stroke-width:0.5" />
<path d="M379.38,43.002A2.5,2.5 0 1 1 374.38,43.002A2.5,2.5 0 1 1 379.38,43.002Z" style="fill:none;stroke:#000000;stroke-width:0.5" />
<path d="M380.26,41.404A2.5,2.5 0 1 1 375.26,41.404A2.5,2.5 0 1 1 380.26,41.404Z" style="fill:none;stroke:#000000;stroke-width:0.5" />
<path d="M381.15,40.76A2.5,2.5 0 1 1 376.15,40.76A2.5,2.5 0 1 1 381.15,40.76Z" style="fill:none;stroke:#000000;stroke-width:0.5" />
<path d="M382.03,40.33A2.5,2.5 0 1 1 377.03,40.33A2.5,2.5 0 1 1 382.03,40.33Z" style="fill:none;stroke:#000000;stroke-width:0.5" />
<path d="M382.91,40.113A2.5,2.5 0 1 1 377.91,40.113A2.5,2.5 0 1 1 382.91,40.113Z" style="fill:none;stroke:#000000;stroke-width:0.5" />
<path d="M383.8,40.227A2.5,2.5 0 1 1 378.8,40.227A2.5,2.5 0 1 1 383.8,40.227Z" style="fill:none;stroke:#000000;stroke-width:0.5" />
<path d="M384.68,40.475A2.5,2.5 0 1 1 379.68,40.475A2.5,2.5 0 1 1 384.68,40.475Z" style="fill:none;stroke:#000000;stroke-width:0.5" />
<path d="M385.57,40.751A2.5,2.5 0 1 1 380.57,40.751A2.5,2.5 0 1 1 385.57,40.751Z" style="fill:none;stroke:#000000;stroke-width:0.5" />
<path d="M386.45,41.123A2.5,2.5 0 1 1 381.45,41.123A2.5,2.5 0 1 1 386.45,41.123Z" style="fill:none;stroke:#000000;stroke-width:0.5" />
<path d="M387.33,41.62A2.5,2.5 0 1 1 382.33,41.62A2.5,2.5 0 1 1 387.33,41.62Z" style="fill:none;stroke:#000000;stroke-width:0.5" />
<path d="M388.22,42.236A2.5,2.5 0 1 1 383.22,42.236A2.5,2.5 0 1 1 388.22,42.236Z" style="fill:none;stroke:#000000;stroke-width:0.5" />
<path d="M389.1,42.936A2.5,2.5 0 1 1 384.1,42.936A2.5,2.5 0 1 1 389.1,42.936Z" style="fill:none;stroke:#000000;stroke-width:0.5" />
<path d="M389.98,43.687A2.5,2.5 0 1 1 384.98,43.687A2.5,2.5 0 1 1 389.98,43.687Z" style="fill:none;stroke:#000000;stroke-width:0.5" />
<path d="M390.87,44.431A2.5,2.5 0 1 1 385.87,44.431A2.5,2.5 0 1 1 390.87,44.431Z" style="fill:none;stroke:#000000;stroke-width:0.5" />
<path d="M391.75,45.151A2.5,2.5 0 1 1 386.75,45.151A2.5,2.5 0 1 1 391.75,45.151Z" style="fill:none;stroke:#000000;stroke-width:0.5" />
<path d="M392.64,45.812A2.5,2.5 0 1 1 387.64,45.812A2.5,2.5 0 1 1 392.64,45.812Z" style="fill:none;stroke:#000000;stroke-width:0.5" />
<path d="M393.52,46.464A2.5,2.5 0 1 1 388.52,46.464A2.5,2.5 0 1 1 393.52,46.464Z" style="fill:none;stroke:#000000;stroke-width:0.5" />
<path d="M394.4,47.132A2.5,2.5 0 1 1 389.4,47.132A2.5,2.5 0 1 1 394.4,47.132Z" style="fill:none;stroke:#000000;stroke-width:0.5" />
<path d="M395.29,47.852A2.5,2.5 0 1 1 390.29,47.852A2.5,2.5 0 1 1 395.29,47.852Z" style="fill:none;stroke:#000000;stroke-width:0.5" />
<path d="M396.17,48.614A2.5,2.5 0 1 1 391.17,48.614A2.5,2.5 0 1 1 396.17,48.614Z" style="fill:none;stroke:#000000;stroke-width:0.5" />
<path d="M397.06,49.416A2.5,2.5 0 1 1 392.06,49.416A2.5,2.5 0 1 1 397.06,49.416Z" style="fill:none;stroke:#000000;stroke-width:0.5" />
<path d="M397.94,50.242A2.5,2.5 0 1 1 392.94,50.242A2.5,2.5 0 1 1 397.94,50.242Z" style="fill:none;stroke:#000000;stroke-width:0.5" />
<path d="M398.82,51.114A2.5,2.5 0 1 1 393.82,51.114A2.5,2.5 0 1 1 398.82,51.114Z" style="fill:none;stroke:#000000;stroke-width:0.5" />
<path d="M399.71,51.995A2.5,2.5 0 1 1 394.71,51.995A2.5,2.5 0 1 1 399.71,51.995Z" style="fill:none;stroke:#000000;stroke-width:0.5" />
<path d="M400.59,52.849A2.5,2.5 0 1 1 395.59,52.849A2.5,2.5 0 1 1 400.59,52.849Z" style="fill:none;stroke:#000000;stroke-width:0.5" />
<path d="M401.47,53.679A2.5,2.5 0 1 1 396.47,53.679A2.5,2.5 0 1 1 401.47,53.679Z" style="fill:none;stroke:#000000;stroke-width:0.5" />
<path d="M402.36,54.519A2.5,2.5 0 1 1 397.36,54.519A2.5,2.5 0 1 1 402.36,54.519Z" style="fill:none;stroke:#000000;stroke-width:0.5" />
<path d="M403.24,55.383A2.5,2.5 0 1 1 398.24,55.383A2.5,2.5 0 1 1 403.24,55.383Z" style="fill:none;stroke:#000000;stroke-width:0.5" />
<path d="M404.13,56.257A2.5,2.5 0 1 1 399.13,56.257A2.5,2.5 0 1 1 404.13,56.257Z" style="fill:none;stroke:#000000;stroke-width:0.5" />
<path d="M405.01,57.111A2.5,2.5 0 1 1 400.01,57.111A2.5,2.5 0 1 1 405.01,57.111Z" style="fill:none;stroke:#000000;stroke-width:0.5" />
<path d="M405.89,57.921A2.5,2.5 0 1 1 400.89,57.921A2.5,2.5 0 1 1 405.89,57.921Z" style="fill:none;stroke:#000000;stroke-width:0.5" />
<path d="M406.78,58.682A2.5,2.5 0 1 1 401.78,58.682A2.5,2.5 0 1 1 406.78,58.682Z" style="fill:none;stroke:#000000;stroke-width:0.5" />
<path d="M407.66,59.399A2.5,2.5 0 1 1 402.66,59.399A2.5,2.5 0 1 1 407.66,59.399Z" style="fill:none;stroke:#000000;stroke-width:0.5" />
<path d="M408.55,60.119A2.5,2.5 0 1 1 403.55,60.119A2.5,2.5 0 1 1 408.55,60.119Z" style="fill:none;stroke:#000000;stroke-width:0.5" />
<path d="M409.43,60.904A2.5,2.5 0 1 1 404.43,60.904A2.5,2.5 0 1 1 409.43,60.904Z" style="fill:none;stroke:#000000;stroke-width:0.5" />
<path d="M410.31,61.803A2.5,2.5 0 1 1 405.31,61.803A2.5,2.5 0 1 1 410.31,61.803Z" style="fill:none;stroke:#000000;stroke-width:0.5" />
<path d="M411.2,62.844A2.5,2.5 0 1 1 406.2,62.844A2.5,2.5 0 1 1 411.2,62.844Z" style="fill:none;stroke:#000000;stroke-width:0.5" />
<path d="M412.08,63.984A2.5,2.5 0 1 1 407.08,63.984A2.5,2.5 0 1 1 412.08,63.984Z" style="fill:none;stroke:#000000;stroke-width:0.5" />
<path d="M412.96,65.158A2.5,2.5 0 1 1 407.96,65.158A2.5,2.5 0 1 1 412.96,65.158Z" style="fill:none;stroke:#000000;stroke-width:0.5" />
<path d="M413.85,66.354A2.5,2.5 0 1 1 408.85,66.354A2.5,2.5 0 1 1 413.85,66.354Z" style="fill:none;stroke:#000000;stroke-width:0.5" />
<path d="M414.73,67.573A2.5,2.5 0 1 1 409.73,67.573A2.5,2.5 0 1 1 414.73,67.573Z" style="fill:none;stroke:#000000;stroke-width:0.5" />
<path d="M415.62,69.271A2.5,2.5 0 1 1 410.62,69.271A2.5,2.5 0 1 1 415.62,69.271Z" style="fill:none;stroke:#000000;stroke-width:0.5" />
<path d="M416.5,71.54A2.5,2.5 0 1 1 411.5,71.54A2.5,2.5 0 1 1 416.5,71.54Z" style="fill:none;stroke:#000000;stroke-width:0.5" />
<path d="M417.38,74.616A2.5,2.5 0 1 1 412.38,74.616A2.5,2.5 0 1 1 417.38,74.616Z" style="fill:none;stroke:#000000;stroke-width:0.5" />
<path d="M418.27,77.932A2.5,2.5 0 1 1 413.27,77.932A2.5,2.5 0 1 1 418.27,77.932Z" style="fill:none;stroke:#000000;stroke-width:0.5" />
<path d="M419.15,80.932A2.5,2.5 0 1 1 414.15,80.932A2.5,2.5 0 1 1 419.15,80.932Z" style="fill:none;stroke:#000000;stroke-width:0.5" />
<path d="M420.04,84.156A2.5,2.5 0 1 1 415.04,84.156A2.5,2.5 0 1 1 420.04,84.156Z" style="fill:none;stroke:#000000;stroke-width:0.5" />
<path d="M420.92,87.465A2.5,2.5 0 1 1 415.92,87.465A2.5,2.5 0 1 1 420.92,87.465Z" style="fill:none;stroke:#000000;stroke-width:0.5" />
<path d="M421.8,90.438A2.5,2.5 0 1 1 416.8,90.438A2.5,2.5 0 1 1 421.8,90.438Z" style="fill:none;stroke:#000000;stroke-width:0.5" />
<path d="M422.69,93.727A2.5,2.5 0 1 1 417.69,93.727A2.5,2.5 0 1 1 422.69,93.727Z" style="fill:none;stroke:#000000;stroke-width:0.5" />
<path d="M423.57,98.493A2.5,2.5 0 1 1 418.57,98.493A2.5,2.5 0 1 1 423.57,98.493Z" style="fill:none;stroke:#000000;stroke-width:0.5" />
<path d="M424.45,103.9A2.5,2.5 0 1 1 419.45,103.9A2.5,2.5 0 1 1 424.45,103.9Z" style="fill:none;stroke:#000000;stroke-width:0.5" />
<path d="M425.34,108.08A2.5,2.5 0 1 1 420.34,108.08A2.5,2.5 0 1 1 425.34,108.08Z" style="fill:none;stroke:#000000;stroke-width:0.5" />
<path d="M426.22,112.31A2.5,2.5 0 1 1 421.22,112.31A2.5,2.5 0 1 1 426.22,112.31Z" style="fill:none;stroke:#000000;stroke-width:0.5" />
<path d="M427.11,120.79A2.5,2.5 0 1 1 422.11,120.79A2.5,2.5 0 1 1 427.11,120.79Z" style="fill:none;stroke:#000000;stroke-width:0.5" />
<path d="M427.99,128.71A2.5,2.5 0 1 1 422.99,128.71A2.5,2.5 0 1 1 427.99,128.71Z" style="fill:none;stroke:#000000;stroke-width:0.5" />
<path d="M428.87,132.58A2.5,2.5 0 1 1 423.87,132.58A2.5,2.5 0 1 1 428.87,132.58Z" style="fill:none;stroke:#000000;stroke-width:0.5" />
<path d="M429.76,138.74A2.5,2.5 0 1 1 424.76,138.74A2.5,2.5 0 1 1 429.76,138.74Z" style="fill:none;stroke:#000000;stroke-width:0.5" />
<path d="M430.64,144.75A2.5,2.5 0 1 1 425.64,144.75A2.5,2.5 0 1 1 430.64,144.75Z" style="fill:none;stroke:#000000;stroke-width:0.5" />
<path d="M431.53,149.39A2.5,2.5 0 1 1 426.53,149.39A2.5,2.5 0 1 1 431.53,149.39Z" style="fill:none;stroke:#000000;stroke-width:0.5" />
<path d="M432.41,155.21A2.5,2.5 0 1 1 427.41,155.21A2.5,2.5 0 1 1 432.41,155.21Z" style="fill:none;stroke:#000000;stroke-width:0.5" />
<path d="M433.29,160.16A2.5,2.5 0 1 1 428.29,160.16A2.5,2.5 0 1 1 433.29,160.16Z" style="fill:none;stroke:#000000;stroke-width:0.5" />
<path d="M434.18,163.2A2.5,2.5 0 1 1 429.18,163.2A2.5,2.5 0 1 1 434.18,163.2Z" style="fill:none;stroke:#000000;stroke-width:0.5" />
<path d="M435.06,167.22A2.5,2.5 0 1 1 430.06,167.22A2.5,2.5 0 1 1 435.06,167.22Z" style="fill:none;stroke:#000000;stroke-width:0.5" />
<path d="M435.94,171.1A2.5,2.5 0 1 1 430.94,171.1A2.5,2.5 0 1 1 435.94,171.1Z" style="fill:none;stroke:#000000;stroke-width:0.5" />
<path d="M436.83,173.47A2.5,2.5 0 1 1 431.83,173.47A2.5,2.5 0 1 1 436.83,173.47Z" style="fill:none;stroke:#000000;stroke-width:0.5" />
<path d="M437.71,176.16A2.5,2.5 0 1 1 432.71,176.16A2.5,2.5 0 1 1 437.71,176.16Z" style="fill:none;stroke:#000000;stroke-width:0.5" />
<path d="M438.6,179.4A2.5,2.5 0 1 1 433.6,179.4A2.5,2.5 0 1 1 438.6,179.4Z" style="fill:none;stroke:#000000;stroke-width:0.5" />
<path d="M439.48,181.56A2.5,2.5 0 1 1 434.48,181.56A2.5,2.5 0 1 1 439.48,181.56Z" style="fill:none;stroke:#000000;stroke-width:0.5" />
<path d="M440.36,183.01A2.5,2.5 0 1 1 435.36,183.01A2.5,2.5 0 1 1 440.36,183.01Z" style="fill:none;stroke:#000000;stroke-width:0.5" />
<path d="M441.25,184.93A2.5,2.5 0 1 1 436.25,184.93A2.5,2.5 0 1 1 441.25,184.93Z" style="fill:none;stroke:#000000;stroke-width:0.5" />
<path d="M442.13,186.96A2.5,2.5 0 1 1 437.13,186.96A2.5,2.5 0 1 1 442.13,186.96Z" style="fill:none;stroke:#000000;stroke-width:0.5" />
<path d="M443.02,188.93A2.5,2.5 0 1 1 438.02,188.93A2.5,2.5 0 1 1 443.02,188.93Z" style="fill:none;stroke:#000000;stroke-width:0.5" />
<path d="M443.9,190.16A2.5,2.5 0 1 1 438.9,190.16A2.5,2.5 0 1 1 443.9,190.16Z" style="fill:none;stroke:#000000;stroke-width:0.5" />
<path d="M444.78,192.67A2.5,2.5 0 1 1 439.78,192.67A2.5,2.5 0 1 1 444.78,192.67Z" style="fill:none;stroke:#000000;stroke-width:0.5" />
<path d="M445.67,195.29A2.5,2.5 0 1 1 440.67,195.29A2.5,2.5 0 1 1 445.67,195.29Z" style="fill:none;stroke:#000000;stroke-width:0.5" />
<path d="M446.55,196.77A2.5,2.5 0 1 1 441.55,196.77A2.5,2.5 0 1 1 446.55,196.77Z" style="fill:none;stroke:#000000;stroke-width:0.5" />
<path d="M447.43,198.64A2.5,2.5 0 1 1 442.43,198.64A2.5,2.5 0 1 1 447.43,198.64Z" style="fill:none;stroke:#000000;stroke-width:0.5" />
<path d="M448.32,201.3A2.5,2.5 0 1 1 443.32,201.3A2.5,2.5 0 1 1 448.32,201.3Z" style="fill:none;stroke:#000000;stroke-width:0.5" />
<path d="M449.2,203.25A2.5,2.5 0 1 1 444.2,203.25A2.5,2.5 0 1 1 449.2,203.25Z" style="fill:none;stroke:#000000;stroke-width:0.5" />
<path d="M450.09,205.49A2.5,2.5 0 1 1 445.09,205.49A2.5,2.5 0 1 1 450.09,205.49Z" style="fill:none;stroke:#000000;stroke-width:0.5" />
<path d="M450.97,208.34A2.5,2.5 0 1 1 445.97,208.34A2.5,2.5 0 1 1 450.97,208.34Z" style="fill:none;stroke:#000000;stroke-width:0.5" />
<path d="M451.85,210.28A2.5,2.5 0 1 1 446.85,210.28A2.5,2.5 0 1 1 451.85,210.28Z" style="fill:none;stroke:#000000;stroke-width:0.5" />
<path d="M452.74,211.71A2.5,2.5 0 1 1 447.74,211.71A2.5,2.5 0 1 1 452.74,211.71Z" style="fill:none;stroke:#000000;stroke-width:0.5" />
<path d="M453.62,214.19A2.5,2.5 0 1 1 448.62,214.19A2.5,2.5 0 1 1 453.62,214.19Z" style="fill:none;stroke:#000000;stroke-width:0.5" />
<path d="M454.51,215A2.5,2.5 0 1 1 449.51,215A2.5,2.5 0 1 1 454.51,215Z" style="fill:none;stroke:#000000;stroke-width:0.5" />
<path d="M455.39,215.06A2.5,2.5 0 1 1 450.39,215.06A2.5,2.5 0 1 1 455.39,215.06Z" style="fill:none;stroke:#000000;stroke-width:0.5" />
<path d="M456.27,215.04A2.5,2.5 0 1 1 451.27,215.04A2.5,2.5 0 1 1 456.27,215.04Z" style="fill:none;stroke:#000000;stroke-width:0.5" />
<path d="M457.16,214.8A2.5,2.5 0 1 1 452.16,214.8A2.5,2.5 0 1 1 457.16,214.8Z" style="fill:none;stroke:#000000;stroke-width:0.5" />
<path d="M458.04,214.43A2.5,2.5 0 1 1 453.04,214.43A2.5,2.5 0 1 1 458.04,214.43Z" style="fill:none;stroke:#000000;stroke-width:0.5" />
<path d="M458.92,213.93A2.5,2.5 0 1 1 453.92,213.93A2.5,2.5 0 1 1 458.92,213.93Z" style="fill:none;stroke:#000000;stroke-width:0.5" />
<path d="M459.81,213.32A2.5,2.5 0 1 1 454.81,213.32A2.5,2.5 0 1 1 459.81,213.32Z" style="fill:none;stroke:#000000;stroke-width:0.5" />
<path d="M460.69,212.5A2.5,2.5 0 1 1 455.69,212.5A2.5,2.5 0 1 1 460.69,212.5Z" style="fill:none;stroke:#000000;stroke-width:0.5" />
<path d="M461.58,211.57A2.5,2.5 0 1 1 456.58,211.57A2.5,2.5 0 1 1 461.58,211.57Z" style="fill:none;stroke:#000000;stroke-width:0.5" />
<path d="M462.46,210.68A2.5,2.5 0 1 1 457.46,210.68A2.5,2.5 0 1 1 462.46,210.68Z" style="fill:none;stroke:#000000;stroke-width:0.5" />
<path d="M463.34,209.85A2.5,2.5 0 1 1 458.34,209.85A2.5,2.5 0 1 1 463.34,209.85Z" style="fill:none;stroke:#000000;stroke-width:0.5" />
<path d="M464.23,209.06A2.5,2.5 0 1 1 459.23,209.06A2.5,2.5 0 1 1 464.23,209.06Z" style="fill:none;stroke:#000000;stroke-width:0.5" />
<path d="M465.11,208.36A2.5,2.5 0 1 1 460.11,208.36A2.5,2.5 0 1 1 465.11,208.36Z" style="fill:none;stroke:#000000;stroke-width:0.5" />
<path d="M465.99,207.72A2.5,2.5 0 1 1 460.99,207.72A2.5,2.5 0 1 1 465.99,207.72Z" style="fill:none;stroke:#000000;stroke-width:0.5" />
<path d="M466.88,207.2A2.5,2.5 0 1 1 461.88,207.2A2.5,2.5 0 1 1 466.88,207.2Z" style="fill:none;stroke:#000000;stroke-width:0.5" />
<path d="M467.76,206.83A2.5,2.5 0 1 1 462.76,206.83A2.5,2.5 0 1 1 467.76,206.83Z" style="fill:none;stroke:#000000;stroke-width:0.5" />
<path d="M468.65,206.63A2.5,2.5 0 1 1 463.65,206.63A2.5,2.5 0 1 1 468.65,206.63Z" style="fill:none;stroke:#000000;stroke-width:0.5" />
<path d="M469.53,206.61A2.5,2.5 0 1 1 464.53,206.61A2.5,2.5 0 1 1 469.53,206.61Z" style="fill:none;stroke:#000000;stroke-width:0.5" />
<path d="M470.41,206.82A2.5,2.5 0 1 1 465.41,206.82A2.5,2.5 0 1 1 470.41,206.82Z" style="fill:none;stroke:#000000;stroke-width:0.5" />
<path d="M471.3,207.23A2.5,2.5 0 1 1 466.3,207.23A2.5,2.5 0 1 1 471.3,207.23Z" style="fill:none;stroke:#000000;stroke-width:0.5" />
<path d="M472.18,207.91A2.5,2.5 0 1 1 467.18,207.91A2.5,2.5 0 1 1 472.18,207.91Z" style="fill:none;stroke:#000000;stroke-width:0.5" />
<path d="M473.07,208.87A2.5,2.5 0 1 1 468.07,208.87A2.5,2.5 0 1 1 473.07,208.87Z" style="fill:none;stroke:#000000;stroke-width:0.5" />
<path d="M473.95,210.1A2.5,2.5 0 1 1 468.95,210.1A2.5,2.5 0 1 1 473.95,210.1Z" style="fill:none;stroke:#000000;stroke-width:0.5" />
<path d="M474.83,211.48A2.5,2.5 0 1 1 469.83,211.48A2.5,2.5 0 1 1 474.83,211.48Z" style="fill:none;stroke:#000000;stroke-width:0.5" />
<path d="M475.72,212.87A2.5,2.5 0 1 1 470.72,212.87A2.5,2.5 0 1 1 475.72,212.87Z" style="fill:none;stroke:#000000;stroke-width:0.5" />
<path d="M476.6,214A2.5,2.5 0 1 1 471.6,214A2.5,2.5 0 1 1 476.6,214Z" style="fill:none;stroke:#000000;stroke-width:0.5" />
<path d="M477.48,215.21A2.5,2.5 0 1 1 472.48,215.21A2.5,2.5 0 1 1 477.48,215.21Z" style="fill:none;stroke:#000000;stroke-width:0.5" />
<path d="M478.37,220.12A2.5,2.5 0 1 1 473.37,220.12A2.5,2.5 0 1 1 478.37,220.12Z" style="fill:none;stroke:#000000;stroke-width:0.5" />
<path d="M479.25,228.71A2.5,2.5 0 1 1 474.25,228.71A2.5,2.5 0 1 1 479.25,228.71Z" style="fill:none;stroke:#000000;stroke-width:0.5" />
<path d="M480.14,234.08A2.5,2.5 0 1 1 475.14,234.08A2.5,2.5 0 1 1 480.14,234.08Z" style="fill:none;stroke:#000000;stroke-width:0.5" />
<path d="M481.02,237.57A2.5,2.5 0 1 1 476.02,237.57A2.5,2.5 0 1 1 481.02,237.57Z" style="fill:none;stroke:#000000;stroke-width:0.5" />
<path d="M481.9,242.93A2.5,2.5 0 1 1 476.9,242.93A2.5,2.5 0 1 1 481.9,242.93Z" style="fill:none;stroke:#000000;stroke-width:0.5" />
<path d="M482.79,247.01A2.5,2.5 0 1 1 477.79,247.01A2.5,2.5 0 1 1 482.79,247.01Z" style="fill:none;stroke:#000000;stroke-width:0.5" />
<path d="M483.67,250.25A2.5,2.5 0 1 1 478.67,250.25A2.5,2.5 0 1 1 483.67,250.25Z" style="fill:none;stroke:#000000;stroke-width:0.5" />
<path d="M484.56,254.71A2.5,2.5 0 1 1 479.56,254.71A2.5,2.5 0 1 1 484.56,254.71Z" style="fill:none;stroke:#000000;stroke-width:0.5" />
<path d="M485.44,257.76A2.5,2.5 0 1 1 480.44,257.76A2.5,2.5 0 1 1 485.44,257.76Z" style="fill:none;stroke:#000000;stroke-width:0.5" />
<path d="M486.32,259.5A2.5,2.5 0 1 1 481.32,259.5A2.5,2.5 0 1 1 486.32,259.5Z" style="fill:none;stroke:#000000;stroke-width:0.5" />
<path d="M487.21,261.34A2.5,2.5 0 1 1 482.21,261.34A2.5,2.5 0 1 1 487.21,261.34Z" style="fill:none;stroke:#000000;stroke-width:0.5" />
<path d="M488.09,262.31A2.5,2.5 0 1 1 483.09,262.31A2.5,2.5 0 1 1 488.09,262.31Z" style="fill:none;stroke:#000000;stroke-width:0.5" />
<path d="M488.97,262.82A2.5,2.5 0 1 1 483.97,262.82A2.5,2.5 0 1 1 488.97,262.82Z" style="fill:none;stroke:#000000;stroke-width:0.5" />
<path d="M489.86,262.9A2.5,2.5 0 1 1 484.86,262.9A2.5,2.5 0 1 1 489.86,262.9Z" style="fill:none;stroke:#000000;stroke-width:0.5" />
<path d="M490.74,262.7A2.5,2.5 0 1 1 485.74,262.7A2.5,2.5 0 1 1 490.74,262.7Z" style="fill:none;stroke:#000000;stroke-width:0.5" />
<path d="M491.63,262.57A2.5,2.5 0 1 1 486.63,262.57A2.5,2.5 0 1 1 491.63,262.57Z" style="fill:none;stroke:#000000;stroke-width:0.5" />
<path d="M492.51,262.45A2.5,2.5 0 1 1 487.51,262.45A2.5,2.5 0 1 1 492.51,262.45Z" style="fill:none;stroke:#000000;stroke-width:0.5" />
<path d="M493.39,262.32A2.5,2.5 0 1 1 488.39,262.32A2.5,2.5 0 1 1 493.39,262.32Z" style="fill:none;stroke:#000000;stroke-width:0.5" />
<path d="M494.28,262.32A2.5,2.5 0 1 1 489.28,262.32A2.5,2.5 0 1 1 494.28,262.32Z" style="fill:none;stroke:#000000;stroke-width:0.5" />
<path d="M495.16,262.37A2.5,2.5 0 1 1 490.16,262.37A2.5,2.5 0 1 1 495.16,262.37Z" style="fill:none;stroke:#000000;stroke-width:0.5" />
<path d="M496.05,262.42A2.5,2.5 0 1 1 491.05,262.42A2.5,2.5 0 1 1 496.05,262.42Z" style="fill:none;stroke:#000000;stroke-width:0.5" />
<path d="M496.93,262.57A2.5,2.5 0 1 1 491.93,262.57A2.5,2.5 0 1 1 496.93,262.57Z" style="fill:none;stroke:#000000;stroke-width:0.5" />
<path d="M497.81,262.71A2.5,2.5 0 1 1 492.81,262.71A2.5,2.5 0 1 1 497.81,262.71Z" style="fill:none;stroke:#000000;stroke-width:0.5" />
<path d="M498.7,262.95A2.5,2.5 0 1 1 493.7,262.95A2.5,2.5 0 1 1 498.7,262.95Z" style="fill:none;stroke:#000000;stroke-width:0.5" />
<path d="M499.58,264.53A2.5,2.5 0 1 1 494.58,264.53A2.5,2.5 0 1 1 499.58,264.53Z" style="fill:none;stroke:#000000;stroke-width:0.5" />
<path d="M500.46,266.7A2.5,2.5 0 1 1 495.46,266.7A2.5,2.5 0 1 1 500.46,266.7Z" style="fill:none;stroke:#000000;stroke-width:0.5" />
<path d="M501.35,268.32A2.5,2.5 0 1 1 496.35,268.32A2.5,2.5 0 1 1 501.35,268.32Z" style="fill:none;stroke:#000000;stroke-width:0.5" />
<path d="M502.23,269.5A2.5,2.5 0 1 1 497.23,269.5A2.5,2.5 0 1 1 502.23,269.5Z" style="fill:none;stroke:#000000;stroke-width:0.5" />
<path d="M503.12,270.78A2.5,2.5 0 1 1 498.12,270.78A2.5,2.5 0 1 1 503.12,270.78Z" style="fill:none;stroke:#000000;stroke-width:0.5" />
<path d="M504,272.21A2.5,2.5 0 1 1 499,272.21A2.5,2.5 0 1 1 504,272.21Z" style="fill:none;stroke:#000000;stroke-width:0.5" />
<path d="M60.465,241.7L61.349,241.5L62.233,241.3L63.116,241.06L64,240.79L64.884,240.41L65.768,239.92L66.652,239.32L67.536,238.68L68.419,237.98L69.303,237.3L70.187,236.63L71.071,235.7L71.955,234.56L72.839,233.09L73.722,231.67L74.606,230.72L75.49,229.98L76.374,229.39L77.258,229.08L78.142,228.94L79.025,228.87L79.909,228.98L80.793,229.12L81.677,229.33L82.561,229.36L83.445,229.44L84.328,229.64L85.212,229.81L86.096,229.88L86.98,229.95L87.864,229.91L88.748,229.74L89.631,229.55L90.515,229.24L91.399,228.52L92.283,227.56L93.167,226.3L94.051,224.65L94.935,222.92L95.818,220.95L96.702,218.57L97.586,216.2L98.47,213.68L99.354,210.79L100.24,207.46L101.12,202.42L102.01,195.56L102.89,188.25L103.77,181.66L104.66,176.01L105.54,171.01L106.42,166.35L107.31,162L108.19,158.05L109.08,154.53L109.96,151.55L110.84,148.76L111.73,146.52L112.61,144.95L113.5,143.62L114.38,142.54L115.26,141.8L116.15,141.29L117.03,140.88L117.91,140.43L118.8,139.77L119.68,138.85L120.57,137.73L121.45,136.46L122.33,135.31L123.22,133.97L124.1,132.53L124.99,131.59L125.87,130.67L126.75,128.89L127.64,127.37L128.52,126.51L129.4,126.24L130.29,126.04L131.17,125.68L132.06,125.55L132.94,125.81L133.82,125.89L134.71,126L135.59,126.22L136.47,126.5L137.36,126.84L138.24,127.19L139.13,127.54L140.01,127.83L140.89,128.04L141.78,128.2L142.66,128.33L143.55,128.49L144.43,128.65L145.31,128.86L146.2,129.07L147.08,129.25L147.96,129.44L148.85,129.61L149.73,129.83L150.62,130.13L151.5,130.51L152.38,130.99L153.27,131.52L154.15,132.07L155.04,132.61L155.92,133.14L156.8,133.65L157.69,134.13L158.57,134.56L159.45,134.91L160.34,135.17L161.22,135.34L162.11,135.32L162.99,135.03L163.87,134.46L164.76,133.69L165.64,132.8L166.53,131.85L167.41,130.79L168.29,129.61L169.18,128.32L170.06,126.98L170.94,125.96L171.83,124.27L172.71,119.12L173.6,113.53L174.48,110.6L175.36,107.66L176.25,105.58L177.13,105.28L178.02,102.94L178.9,102.36L179.78,102.23L180.67,101.71L181.55,100.88L182.43,100.25L183.32,100.12L184.2,100.42L185.09,100.6L185.97,100.94L186.85,101.36L187.74,101.75L188.62,102.11L189.51,102.43L190.39,102.66L191.27,102.88L192.16,103.08L193.04,103.24L193.92,103.37L194.81,103.47L195.69,103.51L196.58,103.51L197.46,103.47L198.34,103.42L199.23,103.42L200.11,103.46L201,103.58L201.88,103.78L202.76,104.06L203.65,104.42L204.53,104.84L205.41,105.36L206.3,106L207.18,106.8L208.07,107.77L208.95,108.87L209.83,110.07L210.72,111.32L211.6,112.6L212.48,113.91L213.37,115.25L214.25,116.66L215.14,118.09L216.02,119.54L216.9,120.96L217.79,122.32L218.67,123.59L219.56,124.78L220.44,125.9L221.32,126.92L222.21,127.79L223.09,128.99L223.97,130.39L224.86,131.09L225.74,132.03L226.63,133.57L227.51,134.65L228.39,135.29L229.28,135.81L230.16,136.1L231.05,136.24L231.93,136.19L232.81,135.97L233.7,135.66L234.58,135.29L235.46,134.83L236.35,134.3L237.23,133.67L238.12,132.97L239,132.25L239.88,131.5L240.77,130.75L241.65,130.01L242.54,129.29L243.42,128.6L244.3,127.95L245.19,127.32L246.07,126.72L246.95,126.13L247.84,125.56L248.72,125L249.61,124.47L250.49,123.95L251.37,123.47L252.26,122.98L253.14,122.49L254.03,121.99L254.91,121.48L255.79,120.95L256.68,120.45L257.56,120.01L258.44,119.64L259.33,119.31L260.21,119.02L261.1,118.77L261.98,118.55L262.86,118.38L263.75,118.27L264.63,118.23L265.52,118.29L266.4,118.4L267.28,118.52L268.17,118.63L269.05,118.68L269.93,118.7L270.82,118.69L271.7,118.63L272.59,118.56L273.47,118.41L274.35,118.14L275.24,117.72L276.12,117.17L277.01,116.57L277.89,115.95L278.77,115.38L279.66,114.82L280.54,114.27L281.42,113.71L282.31,113.18L283.19,112.68L284.08,112.26L284.96,111.96L285.84,111.75L286.73,111.6L287.61,111.42L288.5,111.22L289.38,110.98L290.26,110.76L291.15,110.59L292.03,110.53L292.91,110.59L293.8,110.73L294.68,110.9L295.57,111.06L296.45,111.26L297.33,111.63L298.22,112.08L299.1,112.49L299.98,112.88L300.87,113.26L301.75,113.42L302.64,113.2L303.52,112.56L304.4,111.56L305.29,110.41L306.17,109.15L307.06,107.85L307.94,105.63L308.82,101.81L309.71,94.82L310.59,84.709L311.47,77.739L312.36,73.427L313.24,67.669L314.13,63.639L315.01,59.916L315.89,53.817L316.78,50.029L317.66,48.231L318.55,45.986L319.43,44.388L320.31,43.8L321.2,43.435L322.08,43.607L322.96,43.759L323.85,43.877L324.73,44.008L325.62,44.236L326.5,44.584L327.38,45.049L328.27,45.807L329.15,46.593L330.04,47.248L330.92,47.765L331.8,48.133L332.69,48.347L333.57,48.461L334.45,48.53L335.34,48.519L336.22,48.371L337.11,48.133L337.99,47.861L338.87,47.478L339.76,47.175L340.64,46.93L341.53,46.723L342.41,46.684L343.29,46.798L344.18,47.035L345.06,47.321L345.94,47.638L346.83,47.934L347.71,48.22L348.6,48.51L349.48,48.789L350.36,49.051L351.25,49.262L352.13,49.386L353.02,49.421L353.9,49.373L354.78,49.294L355.67,49.212L356.55,49.129L357.43,49.036L358.32,48.913L359.2,48.778L360.09,48.641L360.97,48.479L361.85,48.303L362.74,48.093L363.62,47.962L364.51,48.014L365.39,48.134L366.27,48.223L367.16,48.25L368.04,48.229L368.92,48.146L369.81,47.959L370.69,47.659L371.58,47.249L372.46,46.721L373.34,46.18L374.23,45.542L375.11,45.025L376,44.518L376.88,43.002L377.76,41.404L378.65,40.76L379.53,40.33L380.41,40.113L381.3,40.227L382.18,40.475L383.07,40.751L383.95,41.123L384.83,41.62L385.72,42.236L386.6,42.936L387.48,43.687L388.37,44.431L389.25,45.151L390.14,45.812L391.02,46.464L391.9,47.132L392.79,47.852L393.67,48.614L394.56,49.416L395.44,50.242L396.32,51.114L397.21,51.995L398.09,52.849L398.97,53.679L399.86,54.519L400.74,55.383L401.63,56.257L402.51,57.111L403.39,57.921L404.28,58.682L405.16,59.399L406.05,60.119L406.93,60.904L407.81,61.803L408.7,62.844L409.58,63.984L410.46,65.158L411.35,66.354L412.23,67.573L413.12,69.271L414,71.54L414.88,74.616L415.77,77.932L416.65,80.932L417.54,84.156L418.42,87.465L419.3,90.438L420.19,93.727L421.07,98.493L421.95,103.9L422.84,108.08L423.72,112.31L424.61,120.79L425.49,128.71L426.37,132.58L427.26,138.74L428.14,144.75L429.03,149.39L429.91,155.21L430.79,160.16L431.68,163.2L432.56,167.22L433.44,171.1L434.33,173.47L435.21,176.16L436.1,179.4L436.98,181.56L437.86,183.01L438.75,184.93L439.63,186.96L440.52,188.93L441.4,190.16L442.28,192.67L443.17,195.29L444.05,196.77L444.93,198.64L445.82,201.3L446.7,203.25L447.59,205.49L448.47,208.34L449.35,210.28L450.24,211.71L451.12,214.19L452.01,215L452.89,215.06L453.77,215.04L454.66,214.8L455.54,214.43L456.42,213.93L457.31,213.32L458.19,212.5L459.08,211.57L459.96,210.68L460.84,209.85L461.73,209.06L462.61,208.36L463.49,207.72L464.38,207.2L465.26,206.83L466.15,206.63L467.03,206.61L467.91,206.82L468.8,207.23L469.68,207.91L470.57,208.87L471.45,210.1L472.33,211.48L473.22,212.87L474.1,214L474.98,215.21L475.87,220.12L476.75,228.71L477.64,234.08L478.52,237.57L479.4,242.93L480.29,247.01L481.17,250.25L482.06,254.71L482.94,257.76L483.82,259.5L484.71,261.34L485.59,262.31L486.47,262.82L487.36,262.9L488.24,262.7L489.13,262.57L490.01,262.45L490.89,262.32L491.78,262.32L492.66,262.37L493.55,262.42L494.43,262.57L495.31,262.71L496.2,262.95L497.08,264.53L497.96,266.7L498.85,268.32L499.73,269.5L500.62,270.78L501.5,272.21" style="fill:none;stroke:#000000" />
</g>
</svg>
