<?xml version="1.0"?>
<!-- Generated by SVGo and Plotinum VG -->
<svg width="504pt" height="288pt" viewBox="0 0 504 288"
	xmlns="http://www.w3.org/2000/svg"
	xmlns:xlink="http://www.w3.org/1999/xlink">
<g transform="scale(1, -1) translate(0, -288)">
<path d="M0,0L504,0L504,288L0,288Z" style="fill:#FFFFFF" />
<text x="76.632" y="-278.61" transform="scale(1, -1)"
	style="font-family:Liberation Serif;font-variant:normal;font-weight:normal;font-style:normal;font-size:12px">Filtered view of Density at TDPHH2-PR3-LS-B2-SY04-L43-G07-Detail</text>
<text x="259.03" y="-3.9023" transform="scale(1, -1)"
	style="font-family:Liberation Serif;font-variant:normal;font-weight:normal;font-style:normal;font-size:12px">Time, s</text>
<text x="85.549" y="-16.541" transform="scale(1, -1)"
	style="font-family:Liberation Serif;font-variant:normal;font-weight:normal;font-style:normal;font-size:10px">5050</text>
<text x="267.26" y="-16.541" transform="scale(1, -1)"
	style="font-family:Liberation Serif;font-variant:normal;font-weight:normal;font-style:normal;font-size:10px">5250</text>
<text x="448.97" y="-16.541" transform="scale(1, -1)"
	style="font-family:Liberation Serif;font-variant:normal;font-weight:normal;font-style:normal;font-size:10px">5450</text>
<path d="M95.549,24.363L95.549,32.363" style="fill:none;stroke:#000000;stroke-width:0.5" />
<path d="M277.26,24.363L277.26,32.363" style="fill:none;stroke:#000000;stroke-width:0.5" />
<path d="M458.97,24.363L458.97,32.363" style="fill:none;stroke:#000000;stroke-width:0.5" />
<path d="M186.4,28.363L186.4,32.363" style="fill:none;stroke:#000000;stroke-width:0.5" />
<path d="M368.11,28.363L368.11,32.363" style="fill:none;stroke:#000000;stroke-width:0.5" />
<path d="M50.135,32.363L503.5,32.363" style="fill:none;stroke:#000000;stroke-width:0.5" />
<g transform="rotate(90)">
<text x="119.75" y="9.3867" transform="scale(1, -1)"
	style="font-family:Liberation Serif;font-variant:normal;font-weight:normal;font-style:normal;font-size:12px">Density, Te/m3</text>
</g>
<text x="15.885" y="-52.692" transform="scale(1, -1)"
	style="font-family:Liberation Serif;font-variant:normal;font-weight:normal;font-style:normal;font-size:10px">0.81</text>
<text x="15.885" y="-142.21" transform="scale(1, -1)"
	style="font-family:Liberation Serif;font-variant:normal;font-weight:normal;font-style:normal;font-size:10px">0.84</text>
<text x="15.885" y="-231.72" transform="scale(1, -1)"
	style="font-family:Liberation Serif;font-variant:normal;font-weight:normal;font-style:normal;font-size:10px">0.87</text>
<path d="M35.885,54.977L43.885,54.977" style="fill:none;stroke:#000000;stroke-width:0.5" />
<path d="M35.885,144.49L43.885,144.49" style="fill:none;stroke:#000000;stroke-width:0.5" />
<path d="M35.885,234L43.885,234" style="fill:none;stroke:#000000;stroke-width:0.5" />
<path d="M39.885,84.815L43.885,84.815" style="fill:none;stroke:#000000;stroke-width:0.5" />
<path d="M39.885,114.65L43.885,114.65" style="fill:none;stroke:#000000;stroke-width:0.5" />
<path d="M39.885,174.33L43.885,174.33" style="fill:none;stroke:#000000;stroke-width:0.5" />
<path d="M39.885,204.17L43.885,204.17" style="fill:none;stroke:#000000;stroke-width:0.5" />
<path d="M39.885,263.84L43.885,263.84" style="fill:none;stroke:#000000;stroke-width:0.5" />
<path d="M43.885,38.113L43.885,274.21" style="fill:none;stroke:#000000;stroke-width:0.5" />
<path d="M50.135,167.03L51.043,200.15L51.952,113.75L52.86,134.83L53.769,177.02L54.678,216.43L55.586,247.13L56.495,264.6L57.403,178.77L58.312,170.27L59.22,199.48L60.129,116.46L61.037,143.54L61.946,70.977L62.854,109.89L63.763,154.49L64.672,84.907L65.58,119.22L66.489,173.67L67.397,100.8L68.306,132.76L69.214,181.75L70.123,221.69L71.031,246.41L71.94,261.87L72.848,176.64L73.757,176.88L74.666,208.61L75.574,125.34L76.483,142.35L77.391,179.7L78.3,106.68L79.208,131.05L80.117,174.59L81.025,215.1L81.934,245.13L82.842,261.56L83.751,178.54L84.66,172.4L85.568,187.37L86.477,217.05L87.385,236.68L88.294,147.88L89.202,155.22L90.111,191.34L91.019,108.75L91.928,144.55L92.837,194.83L93.745,119.29L94.654,144.34L95.562,194.32L96.471,228.83L97.379,145.42L98.288,159.23L99.196,198.08L100.1,229.04L101.01,151.67L101.92,159.83L102.83,202.03L103.74,230.8L104.65,248.57L105.56,243.39L106.46,237L107.37,232.29L108.28,227.87L109.19,224.16L110.1,221.09L111.01,217.97L111.92,226.92L112.82,242.21L113.73,231.98L114.64,221.65L115.55,214.23L116.46,208.75L117.37,103.59L118.28,118.61L119.18,169.9L120.09,89.367L121,124.28L121.91,56.731L122.82,99.05L123.73,142.61L124.64,197.5L125.54,130.63L126.45,146.52L127.36,171.42L128.27,213.58L129.18,244.4L130.09,163.18L131,171.25L131.9,190.5L132.81,227.98L133.72,147.79L134.63,167.08L135.54,209.98L136.45,239.43L137.36,257.13L138.26,251L139.17,244.35L140.08,239.65L140.99,233.26L141.9,228.33L142.81,224.4L143.72,219.86L144.62,216.32L145.53,212.89L146.44,210.05L147.35,207.73L148.26,206.72L149.17,206.18L150.07,204.61L150.98,202.83L151.89,200.58L152.8,198.72L153.71,198.16L154.62,199.56L155.53,199.95L156.43,199.66L157.34,199.68L158.25,198.89L159.16,198.02L160.07,197.36L160.98,197.92L161.89,197.39L162.79,195.68L163.7,194.18L164.61,193.1L165.52,192.42L166.43,192.94L167.34,193.46L168.25,193.14L169.15,192.61L170.06,199.94L170.97,222.92L171.88,239.52L172.79,248.95L173.7,233.65L174.61,215.38L175.51,206.03L176.42,202.78L177.33,203.83L178.24,202.06L179.15,198.82L180.06,197.46L180.97,198.13L181.87,200.27L182.78,202.86L183.69,207.17L184.6,209.21L185.51,207.7L186.42,206.24L187.33,206.31L188.23,206.24L189.14,207.38L190.05,208.92L190.96,210.85L191.87,210.8L192.78,208.44L193.69,206.43L194.59,204.12L195.5,202.29L196.41,201.56L197.32,202.94L198.23,204.99L199.14,205.25L200.05,221.83L200.95,236.06L201.86,223.08L202.77,211.69L203.68,204.67L204.59,197.87L205.5,194.49L206.4,194.32L207.31,194.75L208.22,195.45L209.13,197.28L210.04,217.01L210.95,116.67L211.86,125.61L212.76,168.14L213.67,89.072L214.58,110.32L215.49,38.113L216.4,83.967L217.31,133.67L218.22,77.926L219.12,110.95L220.03,158.16L220.94,210.4L221.85,246.41L222.76,256.2L223.67,249.98L224.58,245.05L225.48,241.44L226.39,237.66L227.3,236.96L228.21,237.92L229.12,234.97L230.03,227.36L230.94,221.06L231.84,217.43L232.75,215.41L233.66,213.88L234.57,215.16L235.48,217.67L236.39,215.92L237.3,209.63L238.2,204.83L239.11,202.32L240.02,201.27L240.93,200.98L241.84,203.79L242.75,207.71L243.66,207.32L244.56,204.23L245.47,201.38L246.38,199.75L247.29,93.23L248.2,105.54L249.11,138.23L250.02,67.821L250.92,93.528L251.83,149.69L252.74,83.679L253.65,108.09L254.56,155.95L255.47,201.84L256.38,233.85L257.28,240.72L258.19,252.74L259.1,262.97L260.01,269.82L260.92,271.44L261.83,274.21L262.73,169.53L263.64,165.65L264.55,199.14L265.46,227.99L266.37,247.3L267.28,260.97L268.19,248.94L269.09,237.73L270,228.61L270.91,219.82L271.82,214.91L272.73,212.75L273.64,123.2L274.55,124.72L275.45,152.31L276.36,195.12L277.27,115.65L278.18,133.53L279.09,189.94L280,226.58L280.91,252.15L281.81,163.58L282.72,165.63L283.63,195.31L284.54,225.06L285.45,248.66L286.36,245.4L287.27,237.88L288.17,232.42L289.08,226.53L289.99,221.97L290.9,220.62L291.81,218.87L292.72,214.93L293.63,210.42L294.53,206.33L295.44,203.58L296.35,202.93L297.26,203.22L298.17,202.9L299.08,201.99L299.99,201.6L300.89,199.14L301.8,196.51L302.71,197.26L303.62,199.83L304.53,200.45L305.44,200.85L306.35,201.16L307.25,91.222L308.16,105.77L309.07,143.43L309.98,66.37L310.89,97.679L311.8,145.88L312.71,76.924L313.61,108.31L314.52,167.89L315.43,212.21L316.34,239.03L317.25,236.97L318.16,232.48L319.06,229.74L319.97,227.46L320.88,225.03L321.79,223.19L322.7,220.78L323.61,218.96L324.52,217.33L325.42,218.69L326.33,219.49L327.24,112.08L328.15,122.89L329.06,152.8L329.97,196.96L330.88,228.89L331.78,237.62L332.69,229.36L333.6,226.9L334.51,225.05L335.42,222.45L336.33,220.85L337.24,219.65L338.14,218.38L339.05,217.43L339.96,236.84L340.87,252.24L341.78,259.57L342.69,261.37L343.6,243.63L344.5,229.48L345.41,222.51L346.32,218.23L347.23,214.62L348.14,212.25L349.05,210.29L349.96,224.22L350.86,243.41L351.77,139.05L352.68,154.03L353.59,70.622L354.5,104.51L355.41,158.16L356.32,99.079L357.22,124.1L358.13,162.3L359.04,207.69L359.95,126.32L360.86,150.25L361.77,198.67L362.68,117.06L363.58,149.03L364.49,198.69L365.4,126.2L366.31,145.76L367.22,194.03L368.13,232.64L369.03,253.73L369.94,247.55L370.85,241.01L371.76,235.19L372.67,139.52L373.58,157.79L374.49,204L375.39,228.44L376.3,242.86L377.21,253.62L378.12,159.53L379.03,162.56L379.94,197.69L380.85,225.43L381.75,246.13L382.66,154.39L383.57,153.28L384.48,175.99L385.39,94.757L386.3,118.5L387.21,160.45L388.11,206.59L389.02,128.13L389.93,148.81L390.84,194.77L391.75,230.63L392.66,151.79L393.57,159.32L394.47,195.03L395.38,225.04L396.29,248.53L397.2,264.88L398.11,175.11L399.02,174.24L399.93,205.57L400.83,229.46L401.74,249.8L402.65,260.25L403.56,163.4L404.47,172.55L405.38,205.43L406.29,123.3L407.19,149.23L408.1,197.71L409.01,231.39L409.92,147.89L410.83,157.14L411.74,191.19L412.65,115.62L413.55,133.04L414.46,173.38L415.37,106.15L416.28,128.03L417.19,162.13L418.1,93.472L419.01,123.17L419.91,162.69L420.82,95.578L421.73,125.77L422.64,166.21L423.55,211.94L424.46,130.79L425.36,160.66L426.27,207.6L427.18,132.74L428.09,150.23L429,85.387L429.91,117.09L430.82,161.54L431.72,94.461L432.63,126.89L433.54,170.85L434.45,97.743L435.36,132.52L436.27,189.33L437.18,114.1L438.08,141.98L438.99,73.583L439.9,115.41L440.81,157.38L441.72,207.1L442.63,132.59L443.54,159.61L444.44,207.1L445.35,128.78L446.26,156.87L447.17,204.92L448.08,237.54L448.99,259.27L449.9,176.57L450.8,187.02L451.71,220.49L452.62,243.44L453.53,262.07L454.44,259.52L455.35,246.53L456.26,236.98L457.16,230.44L458.07,225.12L458.98,221.33L459.89,218.04L460.8,215.14L461.71,123.26L462.62,128.83L463.52,171.03L464.43,96.772L465.34,116.8L466.25,159.4L467.16,208.15L468.07,239.97L468.98,259.04L469.88,251.96L470.79,239.7L471.7,231.71L472.61,226.29L473.52,222.59L474.43,220.92L475.34,219.34L476.24,218.16L477.15,217.46L478.06,216.52L478.97,215.37L479.88,111.08L480.79,124.16L481.69,165.42L482.6,85.953L483.51,114.75L484.42,150L485.33,198.81L486.24,124.96L487.15,140.93L488.05,169.28L488.96,211.2L489.87,241.74L490.78,252.27L491.69,245.35L492.6,235.37L493.51,123.84L494.41,137.84L495.32,171.14L496.23,210.96L497.14,123.21L498.05,150.2L498.96,197.93L499.87,229.22L500.77,146.57L501.68,159.05L502.59,88.537L503.5,117.37" style="fill:none;stroke:#0000FF" />
</g>
</svg>
